<svg width="220" height="220" fill="none" version="1.1" viewBox="0 0 220 220" xmlns="http://www.w3.org/2000/svg" xmlns:xlink="http://www.w3.org/1999/xlink">
 <defs>
  <filter id="au">
   <feGaussianBlur stdDeviation="2.41517"/>
  </filter>
  <filter id="ar">
   <feGaussianBlur stdDeviation="1.06429"/>
  </filter>
  <filter id="aq">
   <feGaussianBlur stdDeviation=".88691"/>
  </filter>
  <filter id="an">
   <feGaussianBlur stdDeviation=".6988"/>
  </filter>
  <filter id="aj">
   <feGaussianBlur stdDeviation=".48564"/>
  </filter>
  <filter id="ai">
   <feGaussianBlur stdDeviation="1.29633"/>
  </filter>
  <filter id="ah">
   <feGaussianBlur stdDeviation="4.40154"/>
  </filter>
  <filter id="ae">
   <feGaussianBlur stdDeviation="2.87004"/>
  </filter>
  <filter id="h">
   <feGaussianBlur stdDeviation="2.04133"/>
  </filter>
  <filter id="ad">
   <feGaussianBlur stdDeviation="2.02838"/>
  </filter>
  <filter id="b">
   <feGaussianBlur stdDeviation="1.58885"/>
  </filter>
  <filter id="av" x="-.19358" y="-.07773" width="1.3872" height="1.1555">
   <feGaussianBlur stdDeviation="6.13927"/>
  </filter>
  <filter id="at" x="-.12502" y="-.14942" width="1.25" height="1.2988">
   <feGaussianBlur stdDeviation="6.1565"/>
  </filter>
  <filter id="as" x="-.12488" y="-.0777" width="1.2498" height="1.1554">
   <feGaussianBlur stdDeviation="2.00864"/>
  </filter>
  <filter id="ap" x="-.10675" y="-.07893" width="1.2135" height="1.1579">
   <feGaussianBlur stdDeviation=".95942"/>
  </filter>
  <filter id="ao" x="-.21274" y="-.11735" width="1.4255" height="1.2347">
   <feGaussianBlur stdDeviation="6.69712"/>
  </filter>
  <filter id="am" x="-.35108" y="-.46025" width="1.7022" height="1.9205">
   <feGaussianBlur stdDeviation="6.80157"/>
  </filter>
  <filter id="al" x="-.18303" y="-.40488" width="1.3661" height="1.8098">
   <feGaussianBlur stdDeviation="2.49455"/>
  </filter>
  <filter id="ak" x="-.16663" y="-.19932" width="1.3332" height="1.3986">
   <feGaussianBlur stdDeviation="3.93126"/>
  </filter>
  <filter id="ag" x="-.14115" y="-.18828" width="1.2823" height="1.3766">
   <feGaussianBlur stdDeviation="3.24639"/>
  </filter>
  <filter id="af" x="-.13143" y="-.08865" width="1.2628" height="1.1773">
   <feGaussianBlur stdDeviation="2.0379"/>
  </filter>
  <filter id="c" x="-.2253" y="-.15197" width="1.4506" height="1.304">
   <feGaussianBlur stdDeviation="3.49354"/>
  </filter>
  <filter id="ac" x="-.12194" y="-.19914" width="1.2439" height="1.3983">
   <feGaussianBlur stdDeviation="6.88103"/>
  </filter>
  <filter id="ab" x="-.103" y="-.14373" width="1.206" height="1.2874">
   <feGaussianBlur stdDeviation="2.49304"/>
  </filter>
  <filter id="aa" x="-.10346" y="-.14283" width="1.2069" height="1.2857">
   <feGaussianBlur stdDeviation="3.77375"/>
  </filter>
  <filter id="g" x="-.09936" y="-.13924" width="1.1987" height="1.2785">
   <feGaussianBlur stdDeviation="1.37674"/>
  </filter>
  <filter id="f" x="-.34178" y="-.39874" width="1.6836" height="1.7975">
   <feGaussianBlur stdDeviation="2.4295"/>
  </filter>
  <linearGradient id="d">
   <stop stop-color="#cfb598" offset="0"/>
   <stop stop-color="#cfb598" stop-opacity="0" offset="1"/>
  </linearGradient>
  <linearGradient id="e">
   <stop stop-color="#e8daca" offset="0"/>
   <stop stop-color="#e8daca" stop-opacity="0" offset="1"/>
  </linearGradient>
  <linearGradient id="a">
   <stop offset="0"/>
   <stop stop-opacity="0" offset="1"/>
  </linearGradient>
  <linearGradient id="x" x1="596.5" x2="607.47" y1="129.15" y2="145.24" gradientUnits="userSpaceOnUse">
   <stop stop-color="#910d26" offset="0"/>
   <stop stop-color="#910d26" stop-opacity="0" offset="1"/>
  </linearGradient>
  <linearGradient id="p" x1="664.98" x2="673.71" y1="-29.488" y2="-41.674" gradientUnits="userSpaceOnUse">
   <stop stop-color="#f61541" offset="0"/>
   <stop stop-color="#f61541" stop-opacity="0" offset="1"/>
  </linearGradient>
  <linearGradient id="n" x1="687.22" x2="675.99" gradientUnits="userSpaceOnUse">
   <stop stop-color="#66091b" offset="0"/>
   <stop stop-color="#66091b" stop-opacity="0" offset="1"/>
  </linearGradient>
  <linearGradient id="m" x1="915.88" x2="940.28" y1="5.9395" y2="56.633" gradientUnits="userSpaceOnUse">
   <stop stop-color="#5b360b" offset="0"/>
   <stop stop-color="#b66611" stop-opacity="0" offset="1"/>
  </linearGradient>
  <linearGradient id="l" x1="953.31" x2="914.45" y1="130.79" y2="78.146" gradientUnits="userSpaceOnUse">
   <stop stop-color="#c4a787" offset="0"/>
   <stop stop-color="#c4a787" stop-opacity="0" offset="1"/>
  </linearGradient>
  <linearGradient id="z" x1="590.66" x2="596.31" y1="202.95" y2="145.43" gradientUnits="userSpaceOnUse" xlink:href="#d"/>
  <linearGradient id="y" x1="612.41" x2="603.24" y1="125.72" y2="161.22" gradientUnits="userSpaceOnUse" xlink:href="#d"/>
  <linearGradient id="w" x1="710.63" x2="651.35" y1="-50.453" y2="-58.725" gradientUnits="userSpaceOnUse" xlink:href="#a"/>
  <linearGradient id="v" x1="682.77" x2="795.72" y1="-80.661" y2="-68.253" gradientUnits="userSpaceOnUse" xlink:href="#a"/>
  <linearGradient id="u" x1="755.53" x2="770.15" y1="-127.12" y2="-66.278" gradientUnits="userSpaceOnUse" xlink:href="#a"/>
  <linearGradient id="t" x1="732.46" x2="754.82" y1="-113.96" y2="-129.23" gradientUnits="userSpaceOnUse" xlink:href="#a"/>
  <linearGradient id="s" x1="567.38" x2="677.43" y1="-47.179" y2="90.278" gradientUnits="userSpaceOnUse" xlink:href="#a"/>
  <linearGradient id="r" x1="588.46" x2="661.64" y1="31.831" y2="-16.913" gradientUnits="userSpaceOnUse" xlink:href="#a"/>
  <linearGradient id="q" x1="598.51" x2="606.62" y1="74.275" y2="114.24" gradientUnits="userSpaceOnUse" xlink:href="#a"/>
  <linearGradient id="o" x1="649.93" x2="661.72" y1="6.2077" y2="-63.868" gradientUnits="userSpaceOnUse" xlink:href="#a"/>
  <linearGradient id="k" x1="803.89" x2="854.15" y1="134.38" y2="127.56" gradientUnits="userSpaceOnUse" xlink:href="#e"/>
  <linearGradient id="j" x1="888.18" x2="905.82" y1="77.842" y2="109.04" gradientUnits="userSpaceOnUse" xlink:href="#e"/>
  <radialGradient id="i" cx="603.34" cy="136.91" r="16.627" gradientTransform="matrix(1 0 0 .71362 -4 33.209)" gradientUnits="userSpaceOnUse">
   <stop stop-color="#c0a281" offset="0"/>
   <stop stop-color="#c0a281" stop-opacity="0" offset="1"/>
  </radialGradient>
  <clipPath id="clipPath1733">
   <rect x="135.95" y="-53.158" width="555.97" height="422.14" fill="#000" stroke="#000" stroke-width="57.687"/>
  </clipPath>
 </defs>
 <g transform="matrix(12.051 0 0 12.051 9.8206 13.348)">
  <ellipse cx="8.313" cy="8.0203" rx="8.8479" ry="8.9516" fill="#fb2715" stroke-width=".82981"/>
  <ellipse cx="8.313" cy="8.0974" rx="7.188" ry="7.2519" fill="#000" stroke="#fff" stroke-opacity=".035176" stroke-width=".94243"/>
  <path d="m15.757 8.0132c0.08776 3.9123-3.1795 7.4551-7.4455 7.4523-4.259-0.004189-7.4883-3.5455-7.4427-7.4663 0.047696-4.1365 3.3191-7.427 7.4736-7.4242 4.1138 0.0028135 7.4146 3.3137 7.4146 7.4382zm-8.5327 6.2754c0.039274-0.0085 0.07785-0.01684 0.11713-0.02467-0.053308-2.2168-0.25882-4.4407 0.30582-6.6006-0.097505-0.085025-0.14239-0.14545-0.20201-0.17285-0.30723-0.14193-0.61375-0.28598-0.92938-0.40894-0.55412-0.21572-0.76805-0.58671-0.66845-1.2521 0.12205 0.059022 0.23147 0.11664 0.3451 0.16583 0.37385 0.16231 0.7414 0.34499 1.1258 0.47569 0.50993 0.17356 0.60953 0.30565 0.53027 0.8502-0.054006 0.3703-0.12274 0.73989-0.1508 1.113-0.025956 0.34078 0.29599 0.80664 0.55482 0.86214 0.22446 0.048488 0.57096-0.24171 0.68037-0.612 0.044197-0.14896 0.024551-0.32252 0.0084225-0.48272-0.036472-0.3724-0.095392-0.74199-0.13186-1.1144-0.031568-0.3183 0.13607-0.48553 0.43137-0.59022 0.41664-0.14686 0.81995-0.33236 1.2281-0.5024 0.11159-0.046375 0.22168-0.09837 0.34658-0.15458 0.05751 0.75113-0.13327 1.0343-0.77019 1.2704-0.3444 0.12788-0.67266 0.29863-1.0528 0.47077 0.56744 2.2457 0.3521 4.4751 0.38508 6.7081 0.16483-0.18762 0.27987-0.38501 0.38157-0.58883 0.088376-0.17776 0.15923-0.36398 0.24129-0.54518 0.38995-0.8629 0.79609-1.7187 1.1622-2.5914 0.11363-0.27194 0.16277-0.58882 0.16631-0.88603 0.0161-1.4636 0.0147-2.9272 0.0028-4.3908-0.0028-0.34921-0.011235-0.71599-0.11714-1.042-0.18942-0.5832-0.35918-1.2107-0.7092-1.6948-0.62984-0.87128-1.5922-1.1095-2.6296-0.97386-0.82838 0.10821-1.5607 0.48413-1.9366 1.2381-0.3949 0.79188-0.6453 1.6547-0.63899 2.5675 0.00982 1.4404-0.0021 2.8801 0.00841 4.3206 0.0014 0.2298 0.026654 0.47782 0.11643 0.68433 0.51975 1.2008 1.0598 2.3925 1.5978 3.5856 0.050497 0.11242 0.13327 0.21154 0.20131 0.31624z" fill="#fb2715" stroke-width=".93065"/>
  <g transform="matrix(.016594 0 0 .016594 .095327 1.1577)">
   <path d="m299.91-48.906c-17.207 0.17671-36.841 19.944-40.719 26.406-4.136 6.8934-71.697 51.033-79.969 62.062s-16.544 28.939-23.438 39.969 19.312 64.812 19.312 64.812l6.6562 90.562c-10.862 5.2379-25.04 14.097-27.969 25.812-4.0679 16.272 3.9149 29.269 22.438 31.219s22.402 1.9362 38-7.8125 35.117-11.709 21.469-33.156c-7.3243-11.51-18.018-16.779-26.656-19.25 6.8636-5.6899 15.961-12.695 23.969-17.062 14.218-7.7551 25.863-44.176 27.281-48.75 1.4141-0.87068 2.7435-1.6954 3.9062-2.4375l19.625-8.25c-0.15816 21.818 0.0917 63.066 3.5625 90.844l-0.34375 3.1562 0.90625 1.0312c1.565 10.753 3.6874 18.825 6.5938 21.812 0.13037 0.15116 0.28458 0.32767 0.5 0.5 0.43084 0.34467 0.894 0.67422 1.4062 1h0.0312l0.46875 0.28125c16.571 10.224 71.713 15.79 100.12 1.4688 31.71-9.6507 52.397-9.6618 67.562-19.312 5.17-3.29 26.318-16.436 52.125-32.938 37.062-23.157 80.88-52.339 105.03-71.344 0.8157-0.63649 1.5424-1.2302 2.3126-1.8438 0.7817-0.62749 1.5803-1.2421 2.3124-1.8438 1.3111-1.0692 2.5118-2.0787 3.6563-3.0625l0.375-0.3125c1.1639-1.0068 2.2165-1.968 3.1875-2.875 0.0731-0.0685 0.1468-0.11964 0.2188-0.1875 0.9844-0.92534 1.8293-1.8143 2.5937-2.625l0.0937-0.0937c0.7725-0.82404 1.4429-1.5866 1.9688-2.2812l0.0312-0.0312c0.2594-0.34419 0.4922-0.65826 0.6876-0.96875 5e-3 -8e-3 -5e-3 -0.0228 0-0.0312 0.1981-0.31646 0.3707-0.59496 0.5-0.875 8.272-17.923 28.936-49.634 17.906-57.906-0.0505-0.03786-0.0978-0.0829-0.1562-0.09375-11.532-8.5232-96.388-55.067-108.75-59.188-6.1486-2.0495-15.696 0.63943-23.75 3.875-57.392-17.979-164.83-51.991-178.91-59.031-19.301-9.6507-24.827-8.2739-42.75-11.031-1.1202-0.17233-2.2592-0.23053-3.4062-0.21875z" clip-path="url(#clipPath1733)" fill="#fff" fill-rule="evenodd" filter="url(#g)"/>
   <g transform="translate(-406.71,115.81)">
    <g fill-rule="evenodd">
     <path d="m597.55 119.05s-12.655 4.1043-14.365 10.945c-1.4272 5.7087 0.2402 11.952 6.7386 12.637s12.378-1.0078 17.85-4.428 11.185-0.72061 6.3966-8.2451-15.937-10.908-16.621-10.908z" fill="url(#i)" filter="url(#g)"/>
     <path d="m601.45 113.72s-36.07 11.698-40.945 31.196c-4.0679 16.272 3.8995 29.246 22.422 31.196s22.422 1.9497 38.02-7.799 35.095-11.698 21.447-33.146-38.995-21.447-40.945-21.447z" fill="url(#z)" filter="url(#aa)"/>
     <path d="m600.15 120.2s-21.876 7.0949-24.832 18.92c-2.4671 9.8684 0.41523 20.662 11.649 21.844s20.019 3.7726 29.479-2.1398 13.131-7.4497 12.436-19.768c-0.70334-12.471-27.549-18.857-28.732-18.857z" fill="url(#y)" filter="url(#ab)"/>
     <path d="m591.14 127.57 8.7738-2.4372 15.72 8.2864-11.028 3.412-11.028 9.8706-2.4372-19.132z" fill="url(#x)" filter="url(#f)"/>
     <path d="m588.69 122.27-6.8934-93.75s-26.195-53.768-19.301-64.798 15.165-28.952 23.438-39.982 75.827-55.147 79.963-62.04 26.195-28.952 44.118-26.195 23.438 1.3787 42.739 11.029 215.07 70.313 215.07 70.313l-274.36 121.32-26.195 11.029s-12.408 41.36-27.574 49.632-34.467 26.195-34.467 26.195l-13.787 6.8934-2.7574-9.6507z" fill="#f61541"/>
     <path d="m683.82-147.19s5.5147-12.408 15.165-2.7574l9.6507 9.6507s4.136 39.982-1.3787 56.526-2.7574 37.224-5.5147 48.254-11.029 23.438-12.408 34.467 2.7574 15.165 1.3787 22.059 0 15.165 0 15.165l-70.312-31.71s30.331-128.22 41.36-132.35 22.059-20.68 22.059-19.301z" fill="url(#w)" filter="url(#an)" opacity=".77778"/>
     <path d="m726.29-145.81s-28.952-13.787-19.301-4.136l9.6507 9.6507s4.136 39.982-1.3787 56.526-2.7574 37.224-5.5147 48.254-11.029 23.438-12.408 34.467 2.7574 15.165 1.3787 22.059 0 15.165 0 15.165l74.449-62.04s-32.989-47.855-35.846-59.283c-2.7574-11.029-5.5147-42.739-11.029-60.662z" fill="url(#v)" filter="url(#av)" opacity=".52564"/>
     <path d="m736.12-92.398 56.624-7.2972-5.2495 31.975-38.297 15.361-13.077-40.039z" fill="url(#u)" filter="url(#ak)" opacity=".57265"/>
     <g stroke="#000">
      <path transform="matrix(1.5053,0,0,1.5965,-372.04,71.99)" d="m732.97-111.35 31.71-9.6507-31.71-4.136v13.787z" fill="url(#t)" filter="url(#al)" opacity=".35043"/>
      <path transform="matrix(1.3848,0,0,1.3848,-299.49,14.755)" d="m755.51-55.577 2.7574 34.467 42.739-30.331-45.496-4.136z" filter="url(#am)" opacity=".4188"/>
      <path d="m858.64-114.38 45.496 28.952 20.68-8.2721-66.176-20.68z" filter="url(#aj)" opacity=".17949"/>
     </g>
     <path d="m690.72 24.386s-2.7574 121.32 11.029 132.35 70.312 12.408 102.02 2.7574 52.39-9.6507 67.555-19.301 166.82-103.4 175.09-121.32 28.952-49.632 17.923-57.904-96.507-55.147-108.92-59.283-38.603 11.029-38.603 11.029-44.118-15.165-59.283-9.6507-99.265 73.07-114.43 82.721-51.011 39.982-52.39 38.603z" fill="#fff"/>
     <path d="m807.19-51.079 34.12-25.347 16.573-7.799 48.744 14.623 54.593 47.769 44.844-28.271 7.7989-5.8492-80.914-31.196 16.573-5.8492 73.115 36.07 23.397 16.573v8.7738l-35.095 0.97487-44.844 30.221-86.764 50.693-89.688 48.744-71.166 45.819-17.548-0.97487-3.8995-26.322 37.045-20.472-26.322-35.095 20.472-30.221 25.347 2.9246 2.9246-35.095 50.693-50.693z" fill="#dfcab4" filter="url(#ah)" opacity=".70513"/>
     <path d="m577.29-43.031 1.8721 45.26 23.319 51.109s2.7574 15.165 20.68 15.165 53.768-24.816 53.768-24.816l-43.962-11.751-37.587-36.509-18.09-38.458z" fill="url(#s)" filter="url(#at)" stroke="#000"/>
     <path d="m583.58-63.849 21.655 60.662s19.301 35.846 39.982 39.982 42.739 2.7574 42.739 2.7574-51.211-20.73-56.26-34.871-8.6615-27.735-8.6615-27.735l-24.574-53.681-14.88 12.886z" fill="url(#r)" filter="url(#au)"/>
     <path d="m588.29 45.205 18.327 29.503 35.874 14.88-44.146 31.306z" fill="url(#q)" filter="url(#as)" opacity=".67521"/>
     <path d="m687.36-14.037s-12.702-19.33-20.709-20.374c-21.616-2.8189-24.049-2.7574-24.049-2.7574l17.923-16.544 32.782 25.583-5.9472 14.093z" fill="url(#p)" filter="url(#aq)"/>
     <path d="m688.87-19.987s-12.215-17.38-20.221-18.425c-21.616-2.8189-17.885 1.0136-24.049-2.7574s-10.964-26.467 1.6415-39.593c12.841-13.372 38.34-11.81 38.34-11.81s14.693 37.538 15.062 54.815c0.37876 17.761-10.773 17.77-10.773 17.77z" fill="url(#o)" filter="url(#ar)" opacity=".71795"/>
     <path d="m694.11-17.689-5.6055 14.136s-8.1452-2.8552-9.8634-5.9992-1.5913-14.961-1.5913-14.961c-10.62-13.428 0.56901-6.0372 2.6809-7.3115l14.379 14.136z" fill="url(#n)" filter="url(#ap)"/>
     <path d="m608.32-67.652 25.103-28.271 47.525-6.8241 2.9246 59.955-10.724 48.744-14.136 28.271-36.07-28.271-14.623-73.603z" fill="#810b22" filter="url(#ao)" opacity=".62821"/>
     <path d="m713.93 153.97s85.787-43.273 159.67-83.956c6.6428-3.6579 14.082-7.5612 20.473-11.11s10.932-6.8872 16.933-10.255 13.295-5.6592 18.764-8.7739 10.04-7.058 14.838-9.8471 9.4829-4.8612 13.47-7.2525 7.8228-4.3233 10.859-6.2447 3.5609-5.9529 5.5057-7.332 5.187-0.6805 5.9007-1.4452c1.706-1.8279 3.6082-4.94 5.6513-6.8232s3.3989-1.4216 5.6609-3.2875 4.6466-5.269 7.0095-7.0455 4.3281-3.7945 6.6739-5.4091 5.9191-3.4286 8.1297-4.809 4.6344-3.6603 6.5917-4.7342 4.41 0.0625 5.9961-0.63247 0.7962-0.7283 1.8929-0.97201c8.7739-1.9498 21.18 7.4091 21.18 7.4091s-25.734 39.533-44.257 50.256c-9.2613 5.3618-54.376 35.651-99.37 64.357s-89.865 55.827-98.638 54.852c-17.548-1.9497-92.132 6.086-94.082 4.1363l3.324 0.90845" fill="url(#m)" filter="url(#ai)"/>
    </g>
    <g fill="#fff" fill-rule="evenodd">
     <path d="m702.8 19.318 17.468-4.8323 18.227 33.59 1.519 21.58-18.987-21.066-1.519-14.672-16.709-14.6z" filter="url(#c)"/>
     <path d="m695.97 57.338 17.468-4.8323 18.227 33.59 1.519 21.58-18.987-21.066-1.519-14.672-16.709-14.6z" filter="url(#af)"/>
     <path transform="matrix(1.7594,0,0,1.7303,-661.98,26.212)" d="m867.82-49.402 13.711-11.853 30.865 22.535 10.622 18.846-26.184-10.894-7.6612-12.605-21.354-6.0294z" filter="url(#ag)"/>
    </g>
    <g stroke="#fff" stroke-dasharray="2.1, 4.20000000000000018" stroke-width="2.1">
     <path transform="matrix(.96919 -.24633 .24633 .96919 27.7 209.66)" d="m798.76-28.577 7.5858 9.9998 3.4173 9.6475 7.8029 9.1961 5.0984 8.9194 4.3489 9.9872 8.6973 9.5461 4.6979 9.3664 6.5558 9.1178-3.8637-9.2362-4.9326-9.4857-4.2978-6.5166-4.3005-8.2122-5.1582-10.08-3.9386-8.1393-3.4864-9.4359-4.3856-7.1732 5.9044 5.5214 5.5778 9.1504 5.1286 9.4552 5.9829 6.5002 5.8081 7.6936 6.7309 7.9518 5.1543 9.0276 5.1359 7.0395-6.4543-10.292-5.41-10.031-4.8137-10.144-4.8675-10.32-5.0615-9.0327-5.585-9.7619-4.9572-10.557-5.4718-10.019 6.7552 9.8096 2.6446 7.5568 7.6819 11.77 5.4824 6.8865 6.1389 9.0657 4.4402 7.3981 5.8135 10.033 4.9087 9.1946-2.8294-10.29-4.6698-8.6179-3.8047-9.6966-5.9902-10.712-3.3895-11.376-4.4026-10.991-4.5486-9.3926-4.2606-8.6421 5.9153 7.0943 5.3479 7.1272 4.4236 9.3168 7.3251 9.992 4.3819 7.853 5.0209 6.6635 5.2287 9.4994 4.3189 10.476-3.9391-9.6238-1.9136-8.2328-5.2022-10.984-4.2282-8.2085-3.9336-8.534-3.4657-10.251-2.8286-9.5805-4.4174-10.011 4.6287 10.627 7.6663 6.6109 5.7001 10.092 6.0774 8.0087 5.8761 9.3696 5.2404 6.7778 6.1524 7.7261 6.4165 9.0537-3.5492-9.321-5.8995-6.7065-6.185-10.545-4.0649-10.238-4.1004-8.3085-5.2678-7.8905-2.6996-9.1629-4.366-10.78 5.5978 6.5592 7.7149 6.1574 7.3212 7.6362 5.9891 4.5515 8.795 6.7524 8.3161 6.3764 5.6136 8.077 6.0803 5.2816 0.5189 2.5978-2.6346 0.62418-1.012 1.3549-3.2881 0.44525 0.18981 2.0835-0.49334 2.2119-2.5617-0.12646-1.0655 2.2969-2.632-3.8448-2.288-2.0902-1.816-4.829-1.5868-1.6511-1.6003-4.4233-1.7563-0.13373-2.8334-4.6278-1.1543-2.5117-3.865-1.7434 0.82687-0.70552-0.0742-0.68815-1.4868-3.004-0.86814 0.53069-2.4376-1.3822-1.2249-1.9044-2.24-1.173-7.9757-0.44556-7.2828 2.9818-8.9852-0.64477-9.0724 0.12279-9.4581 0.06689-7.5874 0.68164-8.3544 0.553-9.4259 0.09695 0.46619 0.17671" filter="url(#b)"/>
     <path transform="matrix(-.96919 .24633 -.24633 -.96919 1698.9 -219.54)" d="m798.76-28.577 7.5858 9.9998 3.4173 9.6475 7.8029 9.1961 5.0984 8.9194 4.3489 9.9872 8.6973 9.5461 4.6979 9.3664 6.5558 9.1178-3.8637-9.2362-4.9326-9.4857-4.2978-6.5166-4.3005-8.2122-5.1582-10.08-3.9386-8.1393-3.4864-9.4359-4.3856-7.1732 5.9044 5.5214 5.5778 9.1504 5.1286 9.4552 5.9829 6.5002 5.8081 7.6936 6.7309 7.9518 5.1543 9.0276 5.1359 7.0395-6.4543-10.292-5.41-10.031-4.8137-10.144-4.8675-10.32-5.0615-9.0327-5.585-9.7619-4.9572-10.557-5.4718-10.019 6.7552 9.8096 2.6446 7.5568 7.6819 11.77 5.4824 6.8865 6.1389 9.0657 4.4402 7.3981 5.8135 10.033 4.9087 9.1946-2.8294-10.29-4.6698-8.6179-3.8047-9.6966-5.9902-10.712-3.3895-11.376-4.4026-10.991-4.5486-9.3926-4.2606-8.6421 5.9153 7.0943 5.3479 7.1272 4.4236 9.3168 7.3251 9.992 4.3819 7.853 5.0209 6.6635 5.2287 9.4994 4.3189 10.476-3.9391-9.6238-1.9136-8.2328-5.2022-10.984-4.2282-8.2085-3.9336-8.534-3.4657-10.251-2.8286-9.5805-4.4174-10.011 4.6287 10.627 7.6663 6.6109 5.7001 10.092 6.0774 8.0087 5.8761 9.3696 5.2404 6.7778 6.1524 7.7261 6.4165 9.0537-3.5492-9.321-5.8995-6.7065-6.185-10.545-4.0649-10.238-4.1004-8.3085-5.2678-7.8905-2.6996-9.1629-4.366-10.78 5.5978 6.5592 7.7149 6.1574 7.3212 7.6362 5.9891 4.5515 8.795 6.7524 8.3161 6.3764 5.6136 8.077 6.0803 5.2816 0.5189 2.5978-2.6346 0.62418-1.012 1.3549-3.2881 0.44525 0.18981 2.0835-0.49334 2.2119-2.5617-0.12646-1.0655 2.2969-2.632-3.8448-2.288-2.0902-1.816-4.829-1.5868-1.6511-1.6003-4.4233-1.7563-0.13373-2.8334-4.6278-1.1543-2.5117-3.865-1.7434 0.82687-0.70552-0.0742-0.68815-1.4868-3.004-0.86814 0.53069-2.4376-1.3822-1.2249-1.9044-2.24-1.173-7.9757-0.44556-7.2828 2.9818-8.9852-0.64477-9.0724 0.12279-9.4581 0.06689-7.5874 0.68164-8.3544 0.553-9.4259 0.09695 0.46619 0.17671" filter="url(#b)"/>
     <path transform="matrix(-.96919 .24633 -.24633 -.96919 1636.6 -180.54)" d="m798.76-28.577 7.5858 9.9998 3.4173 9.6475 7.8029 9.1961 5.0984 8.9194 4.3489 9.9872 8.6973 9.5461 4.6979 9.3664 6.5558 9.1178-3.8637-9.2362-4.9326-9.4857-4.2978-6.5166-4.3005-8.2122-5.1582-10.08-3.9386-8.1393-3.4864-9.4359-4.3856-7.1732 5.9044 5.5214 5.5778 9.1504 5.1286 9.4552 5.9829 6.5002 5.8081 7.6936 6.7309 7.9518 5.1543 9.0276 5.1359 7.0395-6.4543-10.292-5.41-10.031-4.8137-10.144-4.8675-10.32-5.0615-9.0327-5.585-9.7619-4.9572-10.557-5.4718-10.019 6.7552 9.8096 2.6446 7.5568 7.6819 11.77 5.4824 6.8865 6.1389 9.0657 4.4402 7.3981 5.8135 10.033 4.9087 9.1946-2.8294-10.29-4.6698-8.6179-3.8047-9.6966-5.9902-10.712-3.3895-11.376-4.4026-10.991-4.5486-9.3926-4.2606-8.6421 5.9153 7.0943 5.3479 7.1272 4.4236 9.3168 7.3251 9.992 4.3819 7.853 5.0209 6.6635 5.2287 9.4994 4.3189 10.476-3.9391-9.6238-1.9136-8.2328-5.2022-10.984-4.2282-8.2085-3.9336-8.534-3.4657-10.251-2.8286-9.5805-4.4174-10.011 4.6287 10.627 7.6663 6.6109 5.7001 10.092 6.0774 8.0087 5.8761 9.3696 5.2404 6.7778 6.1524 7.7261 6.4165 9.0537-3.5492-9.321-5.8995-6.7065-6.185-10.545-4.0649-10.238-4.1004-8.3085-5.2678-7.8905-2.6996-9.1629-4.366-10.78 5.5978 6.5592 7.7149 6.1574 7.3212 7.6362 5.9891 4.5515 8.795 6.7524 8.3161 6.3764 5.6136 8.077 6.0803 5.2816 0.5189 2.5978-2.6346 0.62418-1.012 1.3549-3.2881 0.44525 0.18981 2.0835-0.49334 2.2119-2.5617-0.12646-1.0655 2.2969-2.632-3.8448-2.288-2.0902-1.816-4.829-1.5868-1.6511-1.6003-4.4233-1.7563-0.13373-2.8334-4.6278-1.1543-2.5117-3.865-1.7434 0.82687-0.70552-0.0742-0.68815-1.4868-3.004-0.86814 0.53069-2.4376-1.3822-1.2249-1.9044-2.24-1.173-7.9757-0.44556-7.2828 2.9818-8.9852-0.64477-9.0724 0.12279-9.4581 0.06689-7.5874 0.68164-8.3544 0.553-9.4259 0.09695 0.46619 0.17671" filter="url(#b)"/>
    </g>
    <g fill-rule="evenodd">
     <path d="m741.79 65.137 17.468-4.8323 18.227 33.59 1.519 21.58-18.987-21.066-1.519-14.672-16.709-14.6z" fill="#fff" filter="url(#c)"/>
     <path transform="matrix(3.2005,0,0,1,-1734.7,-5.8492)" d="m780.79 3.7199 17.468-4.8323 13.658-46.35 1.2144 67.399-20.51 42.301-9.7432-18.572-2.0876-39.947z" fill="#fff" filter="url(#c)" opacity=".59829"/>
     <path d="m701.75 156.74c13.787 11.029 72.424 17.677 102.02 2.7574 32.684-16.475 32.892-9.6507 56.832-16.377 17.306-4.8623 177.54-106.33 185.82-124.25s28.952-49.632 17.923-57.904c-3.2304-2.4228-22.905 51.186-42.624 68.425-172.08 150.45-333.75 116.32-319.97 127.35z" fill="url(#l)" filter="url(#ae)"/>
     <path d="m694.02 31.016 19.418 21.489 24.077 65.761 31.995 6.1096 30.621-8.6437c-8.9872 21.989 25.809 25.011 46.219 32.301l-70.542 8.3197-62.12 0.0666-19.962-23.015 4.3303-40.994-4.0352-61.394z" fill="#e8daca" filter="url(#h)" opacity=".65385"/>
     <path d="m804.78 107.54 60.091 23.918-48.12 16.119-46.522-6.7575-11.188-21.066 45.739-12.213z" fill="url(#k)" filter="url(#h)" opacity=".47009"/>
    </g>
    <path d="m693.06 26.248s101.51-70.791 165.5-117.75c8.2933-6.086 45.792 19.006 54.402 15.114 39.723-17.957 43.546-18.038 41.468-18.73-12.408-4.136-39.115 8.9741-39.115 8.9741s-0.4232 1.5145-1.6592 1.1106-3.968 0.44566-6.1545-0.22213-5.5307-4.0615-8.3823-4.8531-3.3709-1.477-6.6022-2.2525-6.1532-0.87204-9.4787-1.4914-8.1132-4.4354-11.248-4.7585-5.8294 2.643-8.4872 2.756-3.6784 1.3688-5.5741 2.0581c-0.94784 0.34467-3.2282-0.76324-4.6172 0.08112s-2.785 4.8314-4.6753 6.0283-5.2807 0.71262-7.5957 1.9567-3.6156 3.1528-6.179 4.9677-6.2345 2.2272-9.2321 4.6082-6.5827 5.4796-9.5501 7.6782-5.8309 5.3439-8.8582 7.5513-6.9985 1.8797-10.101 4.2278-5.4826 6.9454-8.5192 9.0691-5.7703 2.4909-8.7376 4.7541-4.7402 6.372-7.4498 8.684-4.9721 4.6104-7.5356 6.5545c-5.127 3.8883-12.165 6.7144-15.946 9.496s-5.8281 4.4791-7.7238 5.6855-2.6461 5.3661-4.9071 7.5619-5.3454 2.14-7.8362 4.915-4.7813 3.4316-7.3665 6.3755-7.872 9.125-10.416 11.828-2.5004 6.089-4.868 8.1399-6.179 1.3294-8.2346 2.3184-2.4947 4.2731-4.1029 3.7898 4.0278-0.54734 3.0024-2.9131l5.3925 4.492" filter="url(#ad)" stroke="#fff" stroke-width="4"/>
    <path d="m955.89 41.251-9.1253 35.616-79.316 47.315-45.547-1.8832-1.4393-14.241 135.43-66.806z" fill="url(#j)" fill-rule="evenodd" filter="url(#ac)" opacity=".52564"/>
    <path d="m591.63 131.71 8.2864-1.4623 5.4836-5.6055 9.3222-13.648-21.996 2.559-1.0967 18.157z" fill="#bd1032" fill-rule="evenodd" filter="url(#f)"/>
   </g>
  </g>
  <path d="m5.2588 5.4357c0.00985 1.4404 0.068248 2.8394 0.078751 4.2798 0.00142 0.2298 0.025627 0.47735 0.1154 0.68386 0.51975 1.2008 1.0605 2.3929 1.5985 3.586 0.050496 0.11242 0.13285 0.21159 0.20088 0.31629 0.039271-0.0085 0.078255-0.01782 0.11754-0.02564-0.026654-1.1084-0.091611-2.218-0.079072-3.321 0.012545-1.1031 0.10235-2.1983 0.38468-3.2783-0.097502-0.085029-0.1434-0.1457-0.20302-0.1731-0.30723-0.14193-0.61186-0.28736-0.92749-0.41032-0.27706-0.10785-0.47099-0.25444-0.58128-0.45733-0.1103-0.20289-0.13742-0.46228-0.08762-0.79499 0.12205 0.05902 0.23044 0.1175 0.34407 0.16669 0.37385 0.16231 0.74186 0.34587 1.1262 0.47657 0.50993 0.17356 0.60926 0.30601 0.52999 0.85055-0.054009 0.3703-0.12154 0.73817-0.1496 1.1113-0.025954 0.34078 0.29468 0.80787 0.5535 0.86338 0.22446 0.048483 0.57231-0.24305 0.68173-0.61334 0.044194-0.14896 0.024691-0.32278 0.0085455-0.48298-0.036474-0.3724-0.096022-0.74101-0.1325-1.1134-0.031567-0.3183 0.13639-0.48514 0.43169-0.58983 0.41665-0.14686 0.81849-0.33217 1.2267-0.50221 0.11158-0.046371 0.22345-0.0998 0.34834-0.15601 0.02875 0.37557-6e-3 0.63499-0.12609 0.82918-0.12012 0.19419-0.32694 0.32433-0.6454 0.44237-0.3444 0.12788-0.67128 0.29801-1.0514 0.47016 0.28372 1.1228 0.36987 2.2423 0.39108 3.3595 0.021216 1.1172-0.022855 2.2323-0.00641 3.3488 0.16483-0.18762 0.2787-0.38388 0.3804-0.5877 0.088376-0.17776 0.15942-0.36589 0.24149-0.54709 0.38995-0.8629 0.79645-1.7175 1.1626-2.5901 0.11363-0.27194 0.16316-0.58968 0.16669-0.88688 0.0161-1.4636 0.01389-2.9259 0.0022-4.3895-0.002859-0.34921-0.011645-0.71686-0.11755-1.0429-0.18952-0.5832-0.10723-1.2335-0.45725-1.7176-0.044743 0.040624-0.28648-0.2841-0.47553-0.079686-0.74166 0.80193-3.6564 2.308-5.0507 2.9756z" fill="#000" stroke="#fff" stroke-opacity=".035176" stroke-width=".94243"/>
 </g>
</svg>
