<?xml version="1.0" encoding="UTF-8" standalone="no"?>
<svg
   xmlns:dc="http://purl.org/dc/elements/1.1/"
   xmlns:cc="http://creativecommons.org/ns#"
   xmlns:rdf="http://www.w3.org/1999/02/22-rdf-syntax-ns#"
   xmlns:svg="http://www.w3.org/2000/svg"
   xmlns="http://www.w3.org/2000/svg"
   xmlns:xlink="http://www.w3.org/1999/xlink"
   xmlns:sodipodi="http://sodipodi.sourceforge.net/DTD/sodipodi-0.dtd"
   xmlns:inkscape="http://www.inkscape.org/namespaces/inkscape"
   width="220"
   height="220"
   viewBox="0 0 220 220"
   version="1.1"
   id="svg4"
   sodipodi:docname="spartav2santaborder.svg"
   inkscape:version="0.92.4 (5da689c313, 2019-01-14)"
   inkscape:export-filename="F:\Programming\Projects\spartan-protocol\resources\logos\themed-or-old\png\spartav2santaborderx380.png"
   inkscape:export-xdpi="165.81818"
   inkscape:export-ydpi="165.81818"
   style="fill:none">
  <metadata
     id="metadata10">
    <rdf:RDF>
      <cc:Work
         rdf:about="">
        <dc:format>image/svg+xml</dc:format>
        <dc:type
           rdf:resource="http://purl.org/dc/dcmitype/StillImage" />
        <dc:title></dc:title>
      </cc:Work>
    </rdf:RDF>
  </metadata>
  <defs
     id="defs8">
    <filter
       id="au">
      <feGaussianBlur
         id="feGaussianBlur816"
         stdDeviation="2.41517" />
    </filter>
    <filter
       id="ar">
      <feGaussianBlur
         id="feGaussianBlur819"
         stdDeviation="1.06429" />
    </filter>
    <filter
       id="aq">
      <feGaussianBlur
         id="feGaussianBlur822"
         stdDeviation=".88691" />
    </filter>
    <filter
       id="an">
      <feGaussianBlur
         id="feGaussianBlur825"
         stdDeviation=".6988" />
    </filter>
    <filter
       id="aj">
      <feGaussianBlur
         id="feGaussianBlur828"
         stdDeviation=".48564" />
    </filter>
    <filter
       id="ai">
      <feGaussianBlur
         id="feGaussianBlur831"
         stdDeviation="1.29633" />
    </filter>
    <filter
       id="ah">
      <feGaussianBlur
         id="feGaussianBlur834"
         stdDeviation="4.40154" />
    </filter>
    <filter
       id="ae">
      <feGaussianBlur
         id="feGaussianBlur837"
         stdDeviation="2.87004" />
    </filter>
    <filter
       id="h">
      <feGaussianBlur
         id="feGaussianBlur840"
         stdDeviation="2.04133" />
    </filter>
    <filter
       id="ad">
      <feGaussianBlur
         id="feGaussianBlur843"
         stdDeviation="2.02838" />
    </filter>
    <filter
       id="b">
      <feGaussianBlur
         id="feGaussianBlur846"
         stdDeviation="1.58885" />
    </filter>
    <filter
       height="1.1555001"
       width="1.3872"
       y="-0.07773"
       x="-0.19358"
       id="av">
      <feGaussianBlur
         id="feGaussianBlur849"
         stdDeviation="6.13927" />
    </filter>
    <filter
       height="1.2988"
       width="1.25"
       y="-0.14941999"
       x="-0.12502"
       id="at">
      <feGaussianBlur
         id="feGaussianBlur852"
         stdDeviation="6.1565" />
    </filter>
    <filter
       height="1.1554"
       width="1.2498"
       y="-0.077699997"
       x="-0.12488"
       id="as">
      <feGaussianBlur
         id="feGaussianBlur855"
         stdDeviation="2.00864" />
    </filter>
    <filter
       height="1.1579"
       width="1.2135"
       y="-0.078929998"
       x="-0.10675"
       id="ap">
      <feGaussianBlur
         id="feGaussianBlur858"
         stdDeviation=".95942" />
    </filter>
    <filter
       height="1.2347"
       width="1.4255"
       y="-0.11735"
       x="-0.21274"
       id="ao">
      <feGaussianBlur
         id="feGaussianBlur861"
         stdDeviation="6.69712" />
    </filter>
    <filter
       height="1.9205"
       width="1.7022001"
       y="-0.46024999"
       x="-0.35108"
       id="am">
      <feGaussianBlur
         id="feGaussianBlur864"
         stdDeviation="6.80157" />
    </filter>
    <filter
       height="1.8098"
       width="1.3661"
       y="-0.40487999"
       x="-0.18302999"
       id="al">
      <feGaussianBlur
         id="feGaussianBlur867"
         stdDeviation="2.49455" />
    </filter>
    <filter
       height="1.3986"
       width="1.3332"
       y="-0.19932"
       x="-0.16663"
       id="ak">
      <feGaussianBlur
         id="feGaussianBlur870"
         stdDeviation="3.93126" />
    </filter>
    <filter
       height="1.3766"
       width="1.2823"
       y="-0.18828"
       x="-0.14115"
       id="ag">
      <feGaussianBlur
         id="feGaussianBlur873"
         stdDeviation="3.24639" />
    </filter>
    <filter
       height="1.1773"
       width="1.2628"
       y="-0.088650003"
       x="-0.13143"
       id="af">
      <feGaussianBlur
         id="feGaussianBlur876"
         stdDeviation="2.0379" />
    </filter>
    <filter
       height="1.304"
       width="1.4506"
       y="-0.15197"
       x="-0.2253"
       id="c">
      <feGaussianBlur
         id="feGaussianBlur879"
         stdDeviation="3.49354" />
    </filter>
    <filter
       height="1.3983001"
       width="1.2438999"
       y="-0.19914"
       x="-0.12194"
       id="ac">
      <feGaussianBlur
         id="feGaussianBlur882"
         stdDeviation="6.88103" />
    </filter>
    <filter
       height="1.2874"
       width="1.206"
       y="-0.14373"
       x="-0.103"
       id="ab">
      <feGaussianBlur
         id="feGaussianBlur885"
         stdDeviation="2.49304" />
    </filter>
    <filter
       height="1.2857"
       width="1.2069"
       y="-0.14283"
       x="-0.10346"
       id="aa">
      <feGaussianBlur
         id="feGaussianBlur888"
         stdDeviation="3.77375" />
    </filter>
    <filter
       height="1.2785"
       width="1.1987"
       y="-0.13924"
       x="-0.099359997"
       id="g">
      <feGaussianBlur
         id="feGaussianBlur891"
         stdDeviation="1.37674" />
    </filter>
    <filter
       height="1.7975"
       width="1.6835999"
       y="-0.39873999"
       x="-0.34178001"
       id="f">
      <feGaussianBlur
         id="feGaussianBlur894"
         stdDeviation="2.4295" />
    </filter>
    <linearGradient
       id="d">
      <stop
         id="stop897"
         offset="0"
         stop-color="#cfb598" />
      <stop
         id="stop899"
         offset="1"
         stop-opacity="0"
         stop-color="#cfb598" />
    </linearGradient>
    <linearGradient
       id="e">
      <stop
         id="stop902"
         offset="0"
         stop-color="#e8daca" />
      <stop
         id="stop904"
         offset="1"
         stop-opacity="0"
         stop-color="#e8daca" />
    </linearGradient>
    <linearGradient
       id="a">
      <stop
         id="stop907"
         offset="0" />
      <stop
         id="stop909"
         offset="1"
         stop-opacity="0" />
    </linearGradient>
    <linearGradient
       gradientUnits="userSpaceOnUse"
       y2="145.24001"
       y1="129.14999"
       x2="607.46997"
       x1="596.5"
       id="x">
      <stop
         id="stop912"
         offset="0"
         stop-color="#910d26" />
      <stop
         id="stop914"
         offset="1"
         stop-opacity="0"
         stop-color="#910d26" />
    </linearGradient>
    <linearGradient
       gradientUnits="userSpaceOnUse"
       y2="-41.674"
       y1="-29.488001"
       x2="673.71002"
       x1="664.97998"
       id="p">
      <stop
         id="stop917"
         offset="0"
         stop-color="#f61541" />
      <stop
         id="stop919"
         offset="1"
         stop-opacity="0"
         stop-color="#f61541" />
    </linearGradient>
    <linearGradient
       gradientUnits="userSpaceOnUse"
       x2="675.98999"
       x1="687.21997"
       id="n">
      <stop
         id="stop922"
         offset="0"
         stop-color="#66091b" />
      <stop
         id="stop924"
         offset="1"
         stop-opacity="0"
         stop-color="#66091b" />
    </linearGradient>
    <linearGradient
       gradientUnits="userSpaceOnUse"
       y2="56.632999"
       y1="5.9394999"
       x2="940.28003"
       x1="915.88"
       id="m">
      <stop
         id="stop927"
         offset="0"
         stop-color="#5b360b" />
      <stop
         id="stop929"
         offset="1"
         stop-opacity="0"
         stop-color="#b66611" />
    </linearGradient>
    <linearGradient
       gradientUnits="userSpaceOnUse"
       y2="78.146004"
       y1="130.78999"
       x2="914.45001"
       x1="953.31"
       id="l">
      <stop
         id="stop932"
         offset="0"
         stop-color="#c4a787" />
      <stop
         id="stop934"
         offset="1"
         stop-opacity="0"
         stop-color="#c4a787" />
    </linearGradient>
    <linearGradient
       xlink:href="#d"
       gradientUnits="userSpaceOnUse"
       y2="145.42999"
       y1="202.95"
       x2="596.31"
       x1="590.65997"
       id="z" />
    <linearGradient
       xlink:href="#d"
       gradientUnits="userSpaceOnUse"
       y2="161.22"
       y1="125.72"
       x2="603.23999"
       x1="612.40997"
       id="y" />
    <linearGradient
       xlink:href="#a"
       gradientUnits="userSpaceOnUse"
       y2="-58.724998"
       y1="-50.452999"
       x2="651.34998"
       x1="710.63"
       id="w" />
    <linearGradient
       xlink:href="#a"
       gradientUnits="userSpaceOnUse"
       y2="-68.252998"
       y1="-80.661003"
       x2="795.71997"
       x1="682.77002"
       id="v" />
    <linearGradient
       xlink:href="#a"
       gradientUnits="userSpaceOnUse"
       y2="-66.278"
       y1="-127.12"
       x2="770.15002"
       x1="755.53003"
       id="u" />
    <linearGradient
       xlink:href="#a"
       gradientUnits="userSpaceOnUse"
       y2="-129.23"
       y1="-113.96"
       x2="754.82001"
       x1="732.46002"
       id="t" />
    <linearGradient
       xlink:href="#a"
       gradientUnits="userSpaceOnUse"
       y2="90.278"
       y1="-47.179001"
       x2="677.42999"
       x1="567.38"
       id="s" />
    <linearGradient
       xlink:href="#a"
       gradientUnits="userSpaceOnUse"
       y2="-16.913"
       y1="31.830999"
       x2="661.64001"
       x1="588.46002"
       id="r" />
    <linearGradient
       xlink:href="#a"
       gradientUnits="userSpaceOnUse"
       y2="114.24"
       y1="74.275002"
       x2="606.62"
       x1="598.51001"
       id="q" />
    <linearGradient
       xlink:href="#a"
       gradientUnits="userSpaceOnUse"
       y2="-63.868"
       y1="6.2076998"
       x2="661.71997"
       x1="649.92999"
       id="o" />
    <linearGradient
       xlink:href="#e"
       gradientUnits="userSpaceOnUse"
       y2="127.56"
       y1="134.38"
       x2="854.15002"
       x1="803.89001"
       id="k" />
    <linearGradient
       xlink:href="#e"
       gradientUnits="userSpaceOnUse"
       y2="109.04"
       y1="77.842003"
       x2="905.82001"
       x1="888.17999"
       id="j" />
    <radialGradient
       gradientUnits="userSpaceOnUse"
       gradientTransform="matrix(1,0,0,0.71362,-4,33.209)"
       r="16.627001"
       cy="136.91"
       cx="603.34003"
       id="i">
      <stop
         id="stop949"
         offset="0"
         stop-color="#c0a281" />
      <stop
         id="stop951"
         offset="1"
         stop-opacity="0"
         stop-color="#c0a281" />
    </radialGradient>
    <clipPath
       clipPathUnits="userSpaceOnUse"
       id="clipPath1733">
      <rect
         style="opacity:1;fill:#000000;fill-opacity:1;stroke:#000000;stroke-width:57.68745804;stroke-miterlimit:4;stroke-dasharray:none;stroke-opacity:1"
         id="rect1735"
         width="555.97174"
         height="422.13681"
         x="135.94594"
         y="-53.158463" />
    </clipPath>
  </defs>
  <sodipodi:namedview
     pagecolor="#ffffff"
     bordercolor="#666666"
     borderopacity="1"
     objecttolerance="10"
     gridtolerance="10"
     guidetolerance="10"
     inkscape:pageopacity="0"
     inkscape:pageshadow="2"
     inkscape:window-width="2560"
     inkscape:window-height="1356"
     id="namedview6"
     showgrid="false"
     inkscape:zoom="4"
     inkscape:cx="69.812928"
     inkscape:cy="105.71705"
     inkscape:window-x="1912"
     inkscape:window-y="82"
     inkscape:window-maximized="1"
     inkscape:current-layer="g986"
     showguides="true"
     inkscape:guide-bbox="true"
     fit-margin-top="10"
     fit-margin-left="10"
     fit-margin-right="10"
     fit-margin-bottom="10" />
  <g
     id="g986"
     transform="matrix(12.050914,0,0,12.050914,9.8206059,13.348392)">
    <ellipse
       style="fill:#000000;stroke-width:0.82981259"
       id="path1739"
       cx="8.3130121"
       cy="8.0202723"
       rx="9.1590567"
       ry="9.1798019" />
    <ellipse
       style="fill:#fb2715;stroke-width:0.82981259"
       id="path1737"
       cx="8.3130121"
       cy="8.0202723"
       rx="8.8478765"
       ry="8.9516039" />
    <ellipse
       ry="7.2519379"
       rx="7.1880436"
       cy="8.0973558"
       cx="8.3130121"
       id="path816"
       style="fill:#000000;stroke:#ffffff;stroke-width:0.9424324;stroke-opacity:0.03517588" />
    <path
       style="fill:#fb2715;stroke-width:0.93065453"
       inkscape:connector-curvature="0"
       id="path2"
       d="M 15.756501,8.0132444 C 15.844261,11.925577 12.577013,15.468299 8.3110039,15.465508 4.0520029,15.461319 0.82268101,11.919992 0.86827311,7.9991915 0.91596931,3.8627205 4.1873759,0.57222552 8.3418644,0.57503601 12.455656,0.57784953 15.756501,3.8887137 15.756501,8.0132444 Z M 7.2238133,14.288601 c 0.039274,-0.0085 0.07785,-0.01684 0.1171321,-0.02467 C 7.2876375,12.047121 7.0821211,9.8232654 7.6467678,7.6633276 7.5492632,7.5783029 7.5043777,7.5178757 7.4447599,7.4904772 7.1375322,7.348543 6.8310118,7.2044962 6.5153805,7.0815381 5.9612593,6.8658218 5.7473297,6.4948257 5.8469284,5.829417 5.9689745,5.888439 6.0784008,5.9460558 6.1920245,5.9952502 6.5658777,6.1575565 6.933421,6.340244 7.3178001,6.4709358 7.8277336,6.6444935 7.9273323,6.7765906 7.8480684,7.3211352 7.7940625,7.6914334 7.7253244,8.0610242 7.6972651,8.4341329 7.6713091,8.7749106 7.9932598,9.2407681 8.2520842,9.2962725 8.4765395,9.34476 8.8230408,9.0545627 8.9324578,8.6842742 8.9766545,8.5353137 8.9570085,8.3617559 8.9408803,8.201553 8.9044079,7.8291516 8.8454881,7.4595607 8.8090158,7.0871593 8.7774481,6.7688568 8.9450867,6.6016276 9.2403836,6.4969382 9.6570283,6.350081 10.060337,6.1645828 10.468521,5.994543 10.580108,5.948168 10.690203,5.896173 10.815098,5.8399613 10.872608,6.5910925 10.681829,6.8742535 10.044907,7.110342 9.7005085,7.2382231 9.3722479,7.4089704 8.9920848,7.5811136 9.5595235,9.8267734 9.3441886,12.05624 9.3771617,14.289254 9.54199,14.101633 9.6570283,13.90424 9.7587302,13.700428 c 0.088376,-0.177755 0.1592253,-0.363979 0.2412908,-0.545177 0.389954,-0.862904 0.796092,-1.718734 1.16221,-2.591409 0.113634,-0.271936 0.162773,-0.5888246 0.166308,-0.8860288 0.0161,-1.4636125 0.0147,-2.927225 0.0028,-4.3908376 C 11.328539,4.9377661 11.320104,4.5709858 11.214198,4.2449589 11.024774,3.661755 10.855023,3.0342983 10.505003,2.5501718 9.875164,1.678893 8.9128209,1.4406957 7.8754297,1.576307 7.0470541,1.6845142 6.3147778,2.0604335 5.938812,2.814366 5.5439166,3.6062507 5.2935148,4.4690978 5.2998244,5.3818372 c 0.00982,1.4404206 -0.0021,2.8801432 0.00841,4.3205724 0.0014,0.2297978 0.026654,0.4778164 0.1164341,0.6843294 0.519752,1.200825 1.0598482,2.392527 1.5978316,3.585626 0.050497,0.112423 0.1332697,0.211538 0.2013089,0.316236 z" />
    <g
       transform="matrix(0.01659428,0,0,0.01659428,0.09532718,1.1576864)"
       id="g1030">
      <path
         style="fill:#ffffff;fill-rule:evenodd;filter:url(#g)"
         inkscape:connector-curvature="0"
         d="m 299.91,-48.906 c -17.207,0.17671 -36.841,19.944 -40.719,26.406 -4.136,6.8934 -71.697,51.033 -79.969,62.062 -8.272,11.029 -16.544,28.939 -23.438,39.969 -6.894,11.03 19.312,64.812 19.312,64.812 l 6.6562,90.562 c -10.862,5.2379 -25.04,14.097 -27.969,25.812 -4.0679,16.272 3.9149,29.269 22.438,31.219 18.5231,1.95 22.402,1.9362 38,-7.8125 15.598,-9.7487 35.117,-11.709 21.469,-33.156 -7.3243,-11.51 -18.018,-16.779 -26.656,-19.25 6.8636,-5.6899 15.961,-12.695 23.969,-17.062 14.218,-7.7551 25.863,-44.176 27.281,-48.75 1.4141,-0.87068 2.7435,-1.6954 3.9062,-2.4375 l 19.625,-8.25 c -0.15816,21.818 0.0917,63.066 3.5625,90.844 l -0.34375,3.1562 0.90625,1.0312 c 1.565,10.753 3.6874,18.825 6.5938,21.812 0.13037,0.15116 0.28458,0.32767 0.5,0.5 0.43084,0.34467 0.894,0.67422 1.4062,1 h 0.0312 l 0.46875,0.28125 c 16.571,10.224 71.713,15.79 100.12,1.4688 31.71,-9.6507 52.397,-9.6618 67.562,-19.312 5.17,-3.29 26.318,-16.436 52.125,-32.938 37.062,-23.157 80.88,-52.339 105.03,-71.344 0.8157,-0.63649 1.5424,-1.2302 2.3126,-1.8438 0.7817,-0.62749 1.5803,-1.2421 2.3124,-1.8438 1.3111,-1.0692 2.5118,-2.0787 3.6563,-3.0625 l 0.375,-0.3125 c 1.1639,-1.0068 2.2165,-1.968 3.1875,-2.875 0.0731,-0.0685 0.1468,-0.11964 0.2188,-0.1875 0.9844,-0.92534 1.8293,-1.8143 2.5937,-2.625 l 0.0937,-0.0937 c 0.7725,-0.82404 1.4429,-1.5866 1.9688,-2.2812 l 0.0312,-0.0312 c 0.2594,-0.34419 0.4922,-0.65826 0.6876,-0.96875 0.005,-0.008 -0.005,-0.0228 0,-0.0312 0.1981,-0.31646 0.3707,-0.59496 0.5,-0.875 8.272,-17.923 28.936,-49.634 17.906,-57.906 -0.0505,-0.03786 -0.0978,-0.0829 -0.1562,-0.09375 -11.532,-8.5232 -96.388,-55.067 -108.75,-59.188 -6.1486,-2.0495 -15.696,0.63943 -23.75,3.875 -57.392,-17.979 -164.83,-51.991 -178.91,-59.031 -19.301,-9.6507 -24.827,-8.2739 -42.75,-11.031 -1.1202,-0.17233 -2.2592,-0.23053 -3.4062,-0.21875 z"
         id="path956"
         clip-path="url(#clipPath1733)" />
      <g
         transform="translate(-406.71,115.81)"
         id="g1028">
        <path
           style="fill:url(#i);fill-rule:evenodd;filter:url(#g)"
           inkscape:connector-curvature="0"
           d="m 597.55,119.05 c 0,0 -12.655,4.1043 -14.365,10.945 -1.4272,5.7087 0.2402,11.952 6.7386,12.637 6.4984,0.685 12.378,-1.0078 17.85,-4.428 5.472,-3.4202 11.185,-0.72061 6.3966,-8.2451 -4.7884,-7.52449 -15.937,-10.908 -16.621,-10.908 z"
           id="path958" />
        <path
           style="fill:url(#z);fill-rule:evenodd;filter:url(#aa)"
           inkscape:connector-curvature="0"
           d="m 601.45,113.72 c 0,0 -36.07,11.698 -40.945,31.196 -4.0679,16.272 3.8995,29.246 22.422,31.196 18.5225,1.95 22.422,1.9497 38.02,-7.799 15.598,-9.7487 35.095,-11.698 21.447,-33.146 -13.648,-21.448 -38.995,-21.447 -40.945,-21.447 z"
           id="path960" />
        <path
           style="fill:url(#y);fill-rule:evenodd;filter:url(#ab)"
           inkscape:connector-curvature="0"
           d="m 600.15,120.2 c 0,0 -21.876,7.0949 -24.832,18.92 -2.4671,9.8684 0.41523,20.662 11.649,21.844 11.23377,1.182 20.019,3.7726 29.479,-2.1398 9.46,-5.9124 13.131,-7.4497 12.436,-19.768 -0.70334,-12.471 -27.549,-18.857 -28.732,-18.857 z"
           id="path962" />
        <path
           style="fill:url(#x);fill-rule:evenodd;filter:url(#f)"
           inkscape:connector-curvature="0"
           d="m 591.14,127.57 8.7738,-2.4372 15.72,8.2864 -11.028,3.412 -11.028,9.8706 -2.4372,-19.132 z"
           id="path964" />
        <path
           style="fill:#f61541;fill-rule:evenodd"
           inkscape:connector-curvature="0"
           d="m 588.69,122.27 -6.8934,-93.75 c 0,0 -26.195,-53.768 -19.301,-64.798 6.894,-11.03 15.165,-28.952 23.438,-39.982 8.273,-11.03 75.827,-55.147 79.963,-62.04 4.136,-6.893 26.195,-28.952 44.118,-26.195 17.923,2.757 23.438,1.3787 42.739,11.029 19.301,9.6503 215.07,70.313 215.07,70.313 l -274.36,121.32 -26.195,11.029 c 0,0 -12.408,41.36 -27.574,49.632 -15.166,8.272 -34.467,26.195 -34.467,26.195 l -13.787,6.8934 -2.7574,-9.6507 z"
           id="path966" />
        <path
           style="opacity:0.77777997;fill:url(#w);fill-rule:evenodd;filter:url(#an)"
           inkscape:connector-curvature="0"
           d="m 683.82,-147.19 c 0,0 5.5147,-12.408 15.165,-2.7574 l 9.6507,9.6507 c 0,0 4.136,39.982 -1.3787,56.526 -5.5147,16.544 -2.7574,37.224 -5.5147,48.254 -2.7573,11.03 -11.029,23.438 -12.408,34.467 -1.379,11.029 2.7574,15.165 1.3787,22.059 -1.3787,6.894 0,15.165 0,15.165 l -70.312,-31.71 c 0,0 30.331,-128.22 41.36,-132.35 11.029,-4.13 22.059,-20.68 22.059,-19.301 z"
           id="path968" />
        <path
           style="opacity:0.52564003;fill:url(#v);fill-rule:evenodd;filter:url(#av)"
           inkscape:connector-curvature="0"
           d="m 726.29,-145.81 c 0,0 -28.952,-13.787 -19.301,-4.136 l 9.6507,9.6507 c 0,0 4.136,39.982 -1.3787,56.526 -5.5147,16.544 -2.7574,37.224 -5.5147,48.254 -2.7573,11.03 -11.029,23.438 -12.408,34.467 -1.379,11.029 2.7574,15.165 1.3787,22.059 -1.3787,6.894 0,15.165 0,15.165 l 74.449,-62.04 c 0,0 -32.989,-47.855 -35.846,-59.283 -2.7574,-11.029 -5.5147,-42.739 -11.029,-60.662 z"
           id="path970" />
        <path
           style="opacity:0.57265003;fill:url(#u);fill-rule:evenodd;filter:url(#ak)"
           inkscape:connector-curvature="0"
           d="m 736.12,-92.398 56.624,-7.2972 -5.2495,31.975 -38.297,15.361 -13.077,-40.039 z"
           id="path972" />
        <path
           style="opacity:0.35043;fill:url(#t);fill-rule:evenodd;stroke:#000000;filter:url(#al)"
           inkscape:connector-curvature="0"
           transform="matrix(1.5053,0,0,1.5965,-372.04,71.99)"
           d="m 732.97,-111.35 31.71,-9.6507 -31.71,-4.136 v 13.787 z"
           id="path974" />
        <path
           style="opacity:0.41880002;fill-rule:evenodd;stroke:#000000;filter:url(#am)"
           inkscape:connector-curvature="0"
           transform="matrix(1.3848,0,0,1.3848,-299.49,14.755)"
           d="m 755.51,-55.577 2.7574,34.467 42.739,-30.331 -45.496,-4.136 z"
           id="path976" />
        <path
           style="opacity:0.17949003;fill-rule:evenodd;stroke:#000000;filter:url(#aj)"
           inkscape:connector-curvature="0"
           d="m 858.64,-114.38 45.496,28.952 20.68,-8.2721 -66.176,-20.68 z"
           id="path978" />
        <path
           style="fill:#ffffff;fill-rule:evenodd"
           inkscape:connector-curvature="0"
           d="m 690.72,24.386 c 0,0 -2.7574,121.32 11.029,132.35 13.7864,11.03 70.312,12.408 102.02,2.7574 31.708,-9.6506 52.39,-9.6507 67.555,-19.301 15.165,-9.6503 166.82,-103.4 175.09,-121.32 8.27,-17.92 28.952,-49.632 17.923,-57.904 -11.029,-8.272 -96.507,-55.147 -108.92,-59.283 -12.413,-4.136 -38.603,11.029 -38.603,11.029 0,0 -44.118,-15.165 -59.283,-9.6507 -15.165,5.5143 -99.265,73.07 -114.43,82.721 -15.165,9.651 -51.011,39.982 -52.39,38.603 z"
           id="path980" />
        <path
           style="opacity:0.70513;fill:#dfcab4;fill-rule:evenodd;filter:url(#ah)"
           inkscape:connector-curvature="0"
           d="m 807.19,-51.079 34.12,-25.347 16.573,-7.799 48.744,14.623 54.593,47.769 44.844,-28.271 7.7989,-5.8492 -80.914,-31.196 16.573,-5.8492 73.115,36.07 23.397,16.573 v 8.7738 l -35.095,0.97487 -44.844,30.221 -86.764,50.693 -89.688,48.744 -71.166,45.819 -17.548,-0.97487 -3.8995,-26.322 37.045,-20.472 -26.322,-35.095 20.472,-30.221 25.347,2.9246 2.9246,-35.095 50.693,-50.693 z"
           id="path982" />
        <path
           style="fill:url(#s);fill-rule:evenodd;stroke:#000000;filter:url(#at)"
           inkscape:connector-curvature="0"
           d="m 577.29,-43.031 1.8721,45.26 23.319,51.109 c 0,0 2.7574,15.165 20.68,15.165 17.9226,0 53.768,-24.816 53.768,-24.816 l -43.962,-11.751 -37.587,-36.509 -18.09,-38.458 z"
           id="path984" />
        <path
           style="fill:url(#r);fill-rule:evenodd;filter:url(#au)"
           inkscape:connector-curvature="0"
           d="m 583.58,-63.849 21.655,60.662 c 0,0 19.301,35.846 39.982,39.982 20.681,4.136 42.739,2.7574 42.739,2.7574 0,0 -51.211,-20.73 -56.26,-34.871 -5.049,-14.141 -8.6615,-27.735 -8.6615,-27.735 l -24.574,-53.681 -14.88,12.886 z"
           id="path986" />
        <path
           style="opacity:0.67520997;fill:url(#q);fill-rule:evenodd;filter:url(#as)"
           inkscape:connector-curvature="0"
           d="m 588.29,45.205 18.327,29.503 35.874,14.88 -44.146,31.306 z"
           id="path988" />
        <path
           style="fill:url(#p);fill-rule:evenodd;filter:url(#aq)"
           inkscape:connector-curvature="0"
           d="m 687.36,-14.037 c 0,0 -12.702,-19.33 -20.709,-20.374 -21.616,-2.8189 -24.049,-2.7574 -24.049,-2.7574 l 17.923,-16.544 32.782,25.583 -5.9472,14.093 z"
           id="path990" />
        <path
           style="opacity:0.71794996;fill:url(#o);fill-rule:evenodd;filter:url(#ar)"
           inkscape:connector-curvature="0"
           d="m 688.87,-19.987 c 0,0 -12.215,-17.38 -20.221,-18.425 -21.616,-2.8189 -17.885,1.0136 -24.049,-2.7574 -6.164,-3.771 -10.964,-26.467 1.6415,-39.593 12.841,-13.372 38.34,-11.81 38.34,-11.81 0,0 14.693,37.538 15.062,54.815 0.37876,17.761 -10.773,17.77 -10.773,17.77 z"
           id="path992" />
        <path
           style="fill:url(#n);fill-rule:evenodd;filter:url(#ap)"
           inkscape:connector-curvature="0"
           d="m 694.11,-17.689 -5.6055,14.136 c 0,0 -8.1452,-2.8552 -9.8634,-5.9992 -1.7182,-3.144 -1.5913,-14.961 -1.5913,-14.961 -10.62,-13.428 0.56901,-6.0372 2.6809,-7.3115 l 14.379,14.136 z"
           id="path994" />
        <path
           style="opacity:0.62821003;fill:#810b22;fill-rule:evenodd;filter:url(#ao)"
           inkscape:connector-curvature="0"
           d="m 608.32,-67.652 25.103,-28.271 47.525,-6.8241 2.9246,59.955 -10.724,48.744 -14.136,28.271 -36.07,-28.271 -14.623,-73.603 z"
           id="path996" />
        <path
           style="fill:url(#m);fill-rule:evenodd;filter:url(#ai)"
           inkscape:connector-curvature="0"
           d="m 713.93,153.97 c 0,0 85.787,-43.273 159.67,-83.956 6.6428,-3.6579 14.082,-7.5612 20.473,-11.11 6.391,-3.5488 10.932,-6.8872 16.933,-10.255 6.001,-3.3678 13.295,-5.6592 18.764,-8.7739 5.469,-3.1147 10.04,-7.058 14.838,-9.8471 4.798,-2.7891 9.4829,-4.8612 13.47,-7.2525 3.9871,-2.3913 7.8228,-4.3233 10.859,-6.2447 3.0362,-1.9214 3.5609,-5.9529 5.5057,-7.332 1.9448,-1.3791 5.187,-0.6805 5.9007,-1.4452 1.706,-1.8279 3.6082,-4.94 5.6513,-6.8232 2.0431,-1.8832 3.3989,-1.4216 5.6609,-3.2875 2.262,-1.8659 4.6466,-5.269 7.0095,-7.0455 2.3629,-1.7765 4.3281,-3.7945 6.6739,-5.4091 2.3458,-1.6146 5.9191,-3.4286 8.1297,-4.809 2.2106,-1.3804 4.6344,-3.6603 6.5917,-4.7342 1.9573,-1.0739 4.41,0.0625 5.9961,-0.63247 1.5861,-0.69497 0.7962,-0.7283 1.8929,-0.97201 8.7739,-1.9498 21.18,7.4091 21.18,7.4091 0,0 -25.734,39.533 -44.257,50.256 -9.2613,5.3618 -54.376,35.651 -99.37,64.357 -44.994,28.706 -89.865,55.827 -98.638,54.852 -17.548,-1.9497 -92.132,6.086 -94.082,4.1363 l 3.324,0.90845"
           id="path998" />
        <path
           style="fill:#ffffff;fill-rule:evenodd;filter:url(#c)"
           inkscape:connector-curvature="0"
           d="m 702.8,19.318 17.468,-4.8323 18.227,33.59 1.519,21.58 -18.987,-21.066 -1.519,-14.672 -16.709,-14.6 z"
           id="path1000" />
        <path
           style="fill:#ffffff;fill-rule:evenodd;filter:url(#af)"
           inkscape:connector-curvature="0"
           d="m 695.97,57.338 17.468,-4.8323 18.227,33.59 1.519,21.58 -18.987,-21.066 -1.519,-14.672 -16.709,-14.6 z"
           id="path1002" />
        <path
           style="fill:#ffffff;fill-rule:evenodd;filter:url(#ag)"
           inkscape:connector-curvature="0"
           transform="matrix(1.7594,0,0,1.7303,-661.98,26.212)"
           d="m 867.82,-49.402 13.711,-11.853 30.865,22.535 10.622,18.846 -26.184,-10.894 -7.6612,-12.605 -21.354,-6.0294 z"
           id="path1004" />
        <path
           style="stroke:#ffffff;stroke-width:2.0999999;stroke-dasharray:2.1, 4.20000000000000018;filter:url(#b)"
           inkscape:connector-curvature="0"
           transform="matrix(0.96919,-0.24633,0.24633,0.96919,27.7,209.66)"
           d="m 798.76,-28.577 7.5858,9.9998 3.4173,9.6475 7.8029,9.1961 5.0984,8.9194 4.3489,9.9872 8.6973,9.5461 4.6979,9.3664 6.5558,9.1178 -3.8637,-9.2362 -4.9326,-9.4857 -4.2978,-6.5166 -4.3005,-8.2122 -5.1582,-10.08 -3.9386,-8.1393 -3.4864,-9.4359 -4.3856,-7.1732 5.9044,5.5214 5.5778,9.1504 5.1286,9.4552 5.9829,6.5002 5.8081,7.6936 6.7309,7.9518 5.1543,9.0276 5.1359,7.0395 -6.4543,-10.292 -5.41,-10.031 -4.8137,-10.144 -4.8675,-10.32 -5.0615,-9.0327 -5.585,-9.7619 -4.9572,-10.557 -5.4718,-10.019 6.7552,9.8096 2.6446,7.5568 7.6819,11.77 5.4824,6.8865 6.1389,9.0657 4.4402,7.3981 5.8135,10.033 4.9087,9.1946 -2.8294,-10.29 -4.6698,-8.6179 -3.8047,-9.6966 -5.9902,-10.712 -3.3895,-11.376 -4.4026,-10.991 -4.5486,-9.3926 -4.2606,-8.6421 5.9153,7.0943 5.3479,7.1272 4.4236,9.3168 7.3251,9.992 4.3819,7.853 5.0209,6.6635 5.2287,9.4994 4.3189,10.476 -3.9391,-9.6238 -1.9136,-8.2328 -5.2022,-10.984 -4.2282,-8.2085 -3.9336,-8.534 -3.4657,-10.251 -2.8286,-9.5805 -4.4174,-10.011 4.6287,10.627 7.6663,6.6109 5.7001,10.092 6.0774,8.0087 5.8761,9.3696 5.2404,6.7778 6.1524,7.7261 6.4165,9.0537 -3.5492,-9.321 -5.8995,-6.7065 -6.185,-10.545 -4.0649,-10.238 -4.1004,-8.3085 -5.2678,-7.8905 -2.6996,-9.1629 -4.366,-10.78 5.5978,6.5592 7.7149,6.1574 7.3212,7.6362 5.9891,4.5515 8.795,6.7524 8.3161,6.3764 5.6136,8.077 6.0803,5.2816 0.5189,2.5978 -2.6346,0.62418 -1.012,1.3549 -3.2881,0.44525 0.18981,2.0835 -0.49334,2.2119 -2.5617,-0.12646 -1.0655,2.2969 -2.632,-3.8448 -2.288,-2.0902 -1.816,-4.829 -1.5868,-1.6511 -1.6003,-4.4233 -1.7563,-0.13373 -2.8334,-4.6278 -1.1543,-2.5117 -3.865,-1.7434 0.82687,-0.70552 -0.0742,-0.68815 -1.4868,-3.004 -0.86814,0.53069 -2.4376,-1.3822 -1.2249,-1.9044 -2.24,-1.173 -7.9757,-0.44556 -7.2828,2.9818 -8.9852,-0.64477 -9.0724,0.12279 -9.4581,0.06689 -7.5874,0.68164 -8.3544,0.553 -9.4259,0.09695 0.46619,0.17671"
           id="path1006" />
        <path
           style="stroke:#ffffff;stroke-width:2.0999999;stroke-dasharray:2.1, 4.20000000000000018;filter:url(#b)"
           inkscape:connector-curvature="0"
           transform="matrix(-0.96919,0.24633,-0.24633,-0.96919,1698.9,-219.54)"
           d="m 798.76,-28.577 7.5858,9.9998 3.4173,9.6475 7.8029,9.1961 5.0984,8.9194 4.3489,9.9872 8.6973,9.5461 4.6979,9.3664 6.5558,9.1178 -3.8637,-9.2362 -4.9326,-9.4857 -4.2978,-6.5166 -4.3005,-8.2122 -5.1582,-10.08 -3.9386,-8.1393 -3.4864,-9.4359 -4.3856,-7.1732 5.9044,5.5214 5.5778,9.1504 5.1286,9.4552 5.9829,6.5002 5.8081,7.6936 6.7309,7.9518 5.1543,9.0276 5.1359,7.0395 -6.4543,-10.292 -5.41,-10.031 -4.8137,-10.144 -4.8675,-10.32 -5.0615,-9.0327 -5.585,-9.7619 -4.9572,-10.557 -5.4718,-10.019 6.7552,9.8096 2.6446,7.5568 7.6819,11.77 5.4824,6.8865 6.1389,9.0657 4.4402,7.3981 5.8135,10.033 4.9087,9.1946 -2.8294,-10.29 -4.6698,-8.6179 -3.8047,-9.6966 -5.9902,-10.712 -3.3895,-11.376 -4.4026,-10.991 -4.5486,-9.3926 -4.2606,-8.6421 5.9153,7.0943 5.3479,7.1272 4.4236,9.3168 7.3251,9.992 4.3819,7.853 5.0209,6.6635 5.2287,9.4994 4.3189,10.476 -3.9391,-9.6238 -1.9136,-8.2328 -5.2022,-10.984 -4.2282,-8.2085 -3.9336,-8.534 -3.4657,-10.251 -2.8286,-9.5805 -4.4174,-10.011 4.6287,10.627 7.6663,6.6109 5.7001,10.092 6.0774,8.0087 5.8761,9.3696 5.2404,6.7778 6.1524,7.7261 6.4165,9.0537 -3.5492,-9.321 -5.8995,-6.7065 -6.185,-10.545 -4.0649,-10.238 -4.1004,-8.3085 -5.2678,-7.8905 -2.6996,-9.1629 -4.366,-10.78 5.5978,6.5592 7.7149,6.1574 7.3212,7.6362 5.9891,4.5515 8.795,6.7524 8.3161,6.3764 5.6136,8.077 6.0803,5.2816 0.5189,2.5978 -2.6346,0.62418 -1.012,1.3549 -3.2881,0.44525 0.18981,2.0835 -0.49334,2.2119 -2.5617,-0.12646 -1.0655,2.2969 -2.632,-3.8448 -2.288,-2.0902 -1.816,-4.829 -1.5868,-1.6511 -1.6003,-4.4233 -1.7563,-0.13373 -2.8334,-4.6278 -1.1543,-2.5117 -3.865,-1.7434 0.82687,-0.70552 -0.0742,-0.68815 -1.4868,-3.004 -0.86814,0.53069 -2.4376,-1.3822 -1.2249,-1.9044 -2.24,-1.173 -7.9757,-0.44556 -7.2828,2.9818 -8.9852,-0.64477 -9.0724,0.12279 -9.4581,0.06689 -7.5874,0.68164 -8.3544,0.553 -9.4259,0.09695 0.46619,0.17671"
           id="path1008" />
        <path
           style="stroke:#ffffff;stroke-width:2.0999999;stroke-dasharray:2.1, 4.20000000000000018;filter:url(#b)"
           inkscape:connector-curvature="0"
           transform="matrix(-0.96919,0.24633,-0.24633,-0.96919,1636.6,-180.54)"
           d="m 798.76,-28.577 7.5858,9.9998 3.4173,9.6475 7.8029,9.1961 5.0984,8.9194 4.3489,9.9872 8.6973,9.5461 4.6979,9.3664 6.5558,9.1178 -3.8637,-9.2362 -4.9326,-9.4857 -4.2978,-6.5166 -4.3005,-8.2122 -5.1582,-10.08 -3.9386,-8.1393 -3.4864,-9.4359 -4.3856,-7.1732 5.9044,5.5214 5.5778,9.1504 5.1286,9.4552 5.9829,6.5002 5.8081,7.6936 6.7309,7.9518 5.1543,9.0276 5.1359,7.0395 -6.4543,-10.292 -5.41,-10.031 -4.8137,-10.144 -4.8675,-10.32 -5.0615,-9.0327 -5.585,-9.7619 -4.9572,-10.557 -5.4718,-10.019 6.7552,9.8096 2.6446,7.5568 7.6819,11.77 5.4824,6.8865 6.1389,9.0657 4.4402,7.3981 5.8135,10.033 4.9087,9.1946 -2.8294,-10.29 -4.6698,-8.6179 -3.8047,-9.6966 -5.9902,-10.712 -3.3895,-11.376 -4.4026,-10.991 -4.5486,-9.3926 -4.2606,-8.6421 5.9153,7.0943 5.3479,7.1272 4.4236,9.3168 7.3251,9.992 4.3819,7.853 5.0209,6.6635 5.2287,9.4994 4.3189,10.476 -3.9391,-9.6238 -1.9136,-8.2328 -5.2022,-10.984 -4.2282,-8.2085 -3.9336,-8.534 -3.4657,-10.251 -2.8286,-9.5805 -4.4174,-10.011 4.6287,10.627 7.6663,6.6109 5.7001,10.092 6.0774,8.0087 5.8761,9.3696 5.2404,6.7778 6.1524,7.7261 6.4165,9.0537 -3.5492,-9.321 -5.8995,-6.7065 -6.185,-10.545 -4.0649,-10.238 -4.1004,-8.3085 -5.2678,-7.8905 -2.6996,-9.1629 -4.366,-10.78 5.5978,6.5592 7.7149,6.1574 7.3212,7.6362 5.9891,4.5515 8.795,6.7524 8.3161,6.3764 5.6136,8.077 6.0803,5.2816 0.5189,2.5978 -2.6346,0.62418 -1.012,1.3549 -3.2881,0.44525 0.18981,2.0835 -0.49334,2.2119 -2.5617,-0.12646 -1.0655,2.2969 -2.632,-3.8448 -2.288,-2.0902 -1.816,-4.829 -1.5868,-1.6511 -1.6003,-4.4233 -1.7563,-0.13373 -2.8334,-4.6278 -1.1543,-2.5117 -3.865,-1.7434 0.82687,-0.70552 -0.0742,-0.68815 -1.4868,-3.004 -0.86814,0.53069 -2.4376,-1.3822 -1.2249,-1.9044 -2.24,-1.173 -7.9757,-0.44556 -7.2828,2.9818 -8.9852,-0.64477 -9.0724,0.12279 -9.4581,0.06689 -7.5874,0.68164 -8.3544,0.553 -9.4259,0.09695 0.46619,0.17671"
           id="path1010" />
        <path
           style="fill:#ffffff;fill-rule:evenodd;filter:url(#c)"
           inkscape:connector-curvature="0"
           d="m 741.79,65.137 17.468,-4.8323 18.227,33.59 1.519,21.58 -18.987,-21.066 -1.519,-14.672 -16.709,-14.6 z"
           id="path1012" />
        <path
           style="opacity:0.59829;fill:#ffffff;fill-rule:evenodd;filter:url(#c)"
           inkscape:connector-curvature="0"
           transform="matrix(3.2005,0,0,1,-1734.7,-5.8492)"
           d="m 780.79,3.7199 17.468,-4.8323 13.658,-46.35 1.2144,67.399 -20.51,42.301 -9.7432,-18.572 -2.0876,-39.947 z"
           id="path1014" />
        <path
           style="fill:url(#l);fill-rule:evenodd;filter:url(#ae)"
           inkscape:connector-curvature="0"
           d="m 701.75,156.74 c 13.787,11.029 72.424,17.677 102.02,2.7574 32.684,-16.475 32.892,-9.6507 56.832,-16.377 17.306,-4.8623 177.54,-106.33 185.82,-124.25 8.28,-17.92 28.952,-49.632 17.923,-57.904 -3.2304,-2.4228 -22.905,51.186 -42.624,68.425 -172.08,150.45 -333.75,116.32 -319.97,127.35 z"
           id="path1016" />
        <path
           style="opacity:0.65385;fill:#e8daca;fill-rule:evenodd;filter:url(#h)"
           inkscape:connector-curvature="0"
           d="m 694.02,31.016 19.418,21.489 24.077,65.761 31.995,6.1096 30.621,-8.6437 c -8.9872,21.989 25.809,25.011 46.219,32.301 l -70.542,8.3197 -62.12,0.0666 -19.962,-23.015 4.3303,-40.994 -4.0352,-61.394 z"
           id="path1018" />
        <path
           style="opacity:0.47009002;fill:url(#k);fill-rule:evenodd;filter:url(#h)"
           inkscape:connector-curvature="0"
           d="m 804.78,107.54 60.091,23.918 -48.12,16.119 -46.522,-6.7575 -11.188,-21.066 45.739,-12.213 z"
           id="path1020" />
        <path
           style="stroke:#ffffff;stroke-width:4;filter:url(#ad)"
           inkscape:connector-curvature="0"
           d="m 693.06,26.248 c 0,0 101.51,-70.791 165.5,-117.75 8.2933,-6.086 45.792,19.006 54.402,15.114 39.723,-17.957 43.546,-18.038 41.468,-18.73 -12.408,-4.136 -39.115,8.9741 -39.115,8.9741 0,0 -0.4232,1.5145 -1.6592,1.1106 -1.236,-0.4039 -3.968,0.44566 -6.1545,-0.22213 -2.1865,-0.66779 -5.5307,-4.0615 -8.3823,-4.8531 -2.8516,-0.7916 -3.3709,-1.477 -6.6022,-2.2525 -3.2313,-0.7755 -6.1532,-0.87204 -9.4787,-1.4914 -3.3255,-0.61936 -8.1132,-4.4354 -11.248,-4.7585 -3.1348,-0.3231 -5.8294,2.643 -8.4872,2.756 -2.6578,0.113 -3.6784,1.3688 -5.5741,2.0581 -0.94784,0.34467 -3.2282,-0.76324 -4.6172,0.08112 -1.389,0.84436 -2.785,4.8314 -4.6753,6.0283 -1.8903,1.1969 -5.2807,0.71262 -7.5957,1.9567 -2.315,1.24408 -3.6156,3.1528 -6.179,4.9677 -2.5634,1.8149 -6.2345,2.2272 -9.2321,4.6082 -2.9976,2.381 -6.5827,5.4796 -9.5501,7.6782 -2.9674,2.1986 -5.8309,5.3439 -8.8582,7.5513 -3.0273,2.2074 -6.9985,1.8797 -10.101,4.2278 -3.1025,2.3481 -5.4826,6.9454 -8.5192,9.0691 -3.0366,2.1237 -5.7703,2.4909 -8.7376,4.7541 -2.9673,2.2632 -4.7402,6.372 -7.4498,8.684 -2.7096,2.312 -4.9721,4.6104 -7.5356,6.5545 -5.127,3.8883 -12.165,6.7144 -15.946,9.496 -3.781,2.7816 -5.8281,4.4791 -7.7238,5.6855 -1.8957,1.2064 -2.6461,5.3661 -4.9071,7.5619 -2.261,2.1958 -5.3454,2.14 -7.8362,4.915 -2.4908,2.775 -4.7813,3.4316 -7.3665,6.3755 -2.5852,2.9439 -7.872,9.125 -10.416,11.828 -2.544,2.703 -2.5004,6.089 -4.868,8.1399 -2.3676,2.0509 -6.179,1.3294 -8.2346,2.3184 -2.0556,0.989 -2.4947,4.2731 -4.1029,3.7898 -1.6082,-0.4833 4.0278,-0.54734 3.0024,-2.9131 l 5.3925,4.492"
           id="path1022" />
        <path
           style="opacity:0.52564003;fill:url(#j);fill-rule:evenodd;filter:url(#ac)"
           inkscape:connector-curvature="0"
           d="m 955.89,41.251 -9.1253,35.616 -79.316,47.315 -45.547,-1.8832 -1.4393,-14.241 135.43,-66.806 z"
           id="path1024" />
        <path
           style="fill:#bd1032;fill-rule:evenodd;filter:url(#f)"
           inkscape:connector-curvature="0"
           d="m 591.63,131.71 8.2864,-1.4623 5.4836,-5.6055 9.3222,-13.648 -21.996,2.559 -1.0967,18.157 z"
           id="path1026" />
      </g>
    </g>
    <path
       sodipodi:nodetypes="ccccccccccscccccccccccccccsccccccccsc"
       inkscape:connector-curvature="0"
       d="m 5.2588275,5.4356575 c 0.00985,1.440421 0.068248,2.8393955 0.078751,4.2798236 0.00142,0.229797 0.025627,0.4773509 0.1154019,0.6838639 0.5197519,1.200825 1.0605443,2.392905 1.5985286,3.586005 0.050496,0.112422 0.1328452,0.211589 0.2008844,0.316287 0.039271,-0.0085 0.078255,-0.01782 0.117539,-0.02564 -0.026654,-1.10841 -0.091611,-2.217952 -0.079072,-3.32101 C 7.3034054,9.8519266 7.3932137,8.7566861 7.6755363,7.6767172 7.5780338,7.5916885 7.532132,7.5310127 7.4725146,7.5036145 7.1652874,7.3616797 6.8606565,7.2162554 6.5450261,7.093297 6.2679655,6.9854437 6.0740408,6.8388534 5.963743,6.635964 5.8534453,6.4330746 5.8263258,6.173679 5.8761232,5.8409739 5.9981689,5.8999939 6.1065674,5.958471 6.2201914,6.0076653 6.5940442,6.1699716 6.9620485,6.3535399 7.3464275,6.484232 7.8563611,6.6577897 7.9556853,6.7902411 7.876421,7.3347859 7.8224122,7.7050838 7.7548851,8.0729536 7.726826,8.4460624 7.700872,8.7868396 8.0215033,9.2539344 8.2803272,9.309439 8.5047829,9.357922 8.8526356,9.0663888 8.9620525,8.6960998 9.0062464,8.5471392 8.9867437,8.373324 8.970598,8.2131218 8.9341237,7.8407199 8.8745759,7.4721102 8.8381025,7.0997082 8.8065354,6.7814059 8.9744935,6.6145658 9.2697906,6.5098769 9.6864359,6.3630193 10.088284,6.1777053 10.496469,6.0076653 c 0.111585,-0.046371 0.223448,-0.0998 0.348342,-0.1560061 0.02875,0.3755652 -0.006,0.6349904 -0.126087,0.8291832 -0.12012,0.1941929 -0.326935,0.3243302 -0.645395,0.4423737 -0.3443985,0.1278811 -0.6712756,0.2980125 -1.0514384,0.4701554 0.2837197,1.1228299 0.3698665,2.2422731 0.3910838,3.3594765 0.021216,1.1172 -0.022855,2.232283 -0.00641,3.348789 0.1648284,-0.18762 0.2786967,-0.383882 0.3803981,-0.587695 0.088376,-0.177755 0.1594233,-0.365892 0.2414895,-0.54709 0.389952,-0.862903 0.796447,-1.717454 1.162566,-2.590129 0.113634,-0.271938 0.163156,-0.5896819 0.166691,-0.8868849 0.0161,-1.4636109 0.01389,-2.9259306 0.0022,-4.3895431 C 11.35705,4.9510856 11.348264,4.5834311 11.242357,4.2574047 11.052832,3.6742004 11.135123,3.0239206 10.785104,2.539794 10.740361,2.5804177 10.498621,2.2556985 10.309573,2.4601075 9.5679081,3.2620381 6.6531552,4.7681099 5.2588275,5.4356575 Z"
       style="fill:#000000;stroke:#ffffff;stroke-width:0.9424324;stroke-opacity:0.03517588"
       id="path1216" />
  </g>
</svg>
