<svg width="192" height="192" fill="none" version="1.1" viewBox="0 0 192 192" xmlns="http://www.w3.org/2000/svg" xmlns:xlink="http://www.w3.org/1999/xlink">
 <defs>
  <radialGradient id="radialGradient4664" cx="-464.92" cy="873.19" r="255.59" gradientTransform="translate(614.4,-728.4)" gradientUnits="userSpaceOnUse">
   <stop stop-color="#fed51f" offset=".5"/>
   <stop offset="1"/>
  </radialGradient>
  <filter id="filter5207" color-interpolation-filters="sRGB">
   <feGaussianBlur stdDeviation="6.0463237"/>
  </filter>
  <linearGradient id="linearGradient6941">
   <stop offset="0"/>
   <stop stop-color="#5d5d5d" offset=".24795"/>
   <stop stop-color="#9e9e9e" offset=".33869"/>
   <stop stop-color="#424242" offset=".54403"/>
   <stop stop-color="#232323" offset="1"/>
  </linearGradient>
  <linearGradient id="linearGradient6906">
   <stop offset="0"/>
   <stop offset=".4054"/>
   <stop stop-opacity="0" offset=".55242"/>
   <stop stop-opacity=".2328" offset="1"/>
  </linearGradient>
  <linearGradient id="linearGradient6023">
   <stop stop-color="#8a8a8a" offset="0"/>
   <stop stop-color="#3a3a3a" offset="1"/>
  </linearGradient>
  <linearGradient id="linearGradient4333" x1="524.73" x2="442.93" y1="316.39" y2="294.89" gradientUnits="userSpaceOnUse" xlink:href="#linearGradient6023"/>
  <linearGradient id="linearGradient4341" x1="555.85" x2="557.15" y1="426.96" y2="241.83" gradientUnits="userSpaceOnUse">
   <stop offset="0"/>
   <stop stop-color="#5d5d5d" offset=".439"/>
   <stop stop-color="#9e9e9e" offset=".50403"/>
   <stop stop-color="#424242" offset=".54403"/>
   <stop stop-color="#525252" offset="1"/>
  </linearGradient>
  <linearGradient id="linearGradient4343" x1="609.41" x2="608.13" y1="-192.11" y2="-104.72" gradientUnits="userSpaceOnUse" xlink:href="#linearGradient6023"/>
  <linearGradient id="linearGradient4345" x1="543.97" x2="632.81" y1="-104.88" y2="-229.69" gradientUnits="userSpaceOnUse" xlink:href="#linearGradient6906"/>
  <linearGradient id="linearGradient4347" x1="674.58" x2="589.13" y1="361.39" y2="433.51" gradientTransform="translate(-17,-13)" gradientUnits="userSpaceOnUse" xlink:href="#linearGradient6941"/>
  <linearGradient id="linearGradient4349" x1="606.39" x2="570.39" y1="385.81" y2="346.74" gradientUnits="userSpaceOnUse" xlink:href="#linearGradient6906"/>
  <linearGradient id="linearGradient4351" x1="674.58" x2="589.13" y1="361.39" y2="433.51" gradientUnits="userSpaceOnUse" xlink:href="#linearGradient6941"/>
  <linearGradient id="linearGradient4353" x1="698.55" x2="652.84" y1="423.1" y2="449.27" gradientUnits="userSpaceOnUse" xlink:href="#linearGradient6023"/>
  <linearGradient id="linearGradient4355" x1="673.85" x2="651.85" y1="450.55" y2="417.72" gradientUnits="userSpaceOnUse" xlink:href="#linearGradient6906"/>
  <radialGradient id="radialGradient2779" cx="52.91" cy="648.26" r="250.98" gradientTransform="matrix(1.9284 -.49403 .18074 .70552 -103.91 113.24)" gradientUnits="userSpaceOnUse">
   <stop offset="0"/>
   <stop stop-opacity="0" offset="1"/>
  </radialGradient>
  <linearGradient id="linearGradient1527" x1="520.16" x2="458.66" y1="363.13" y2="423.13" gradientUnits="userSpaceOnUse">
   <stop offset="0"/>
   <stop stop-opacity="0" offset="1"/>
  </linearGradient>
  <radialGradient id="radialGradient1530" cx="396.75" cy="468.11" r="126.43" fx="403.11" fy="569.23" gradientTransform="matrix(.28537 .23019 -1 1.2397 772 -188.86)" gradientUnits="userSpaceOnUse">
   <stop stop-color="#8a6e27" offset="0"/>
   <stop stop-color="#1b1507" offset="1"/>
  </radialGradient>
  <radialGradient id="radialGradient1533" cx="431.79" cy="322.48" r="54.353" fx="434.43" fy="322.17" gradientTransform="matrix(1.7723 .18587 -.088745 .84621 -312.37 -30.359)" gradientUnits="userSpaceOnUse">
   <stop stop-color="#1d1d1d" offset="0"/>
   <stop stop-color="#686868" offset=".439"/>
   <stop stop-color="#9e9e9e" offset=".50403"/>
   <stop stop-color="#424242" offset=".54403"/>
   <stop stop-color="#616161" offset="1"/>
  </radialGradient>
 </defs>
 <g transform="matrix(12.051 0 0 12.051 -4.1794 -.65161)">
  <ellipse cx="8.313" cy="8.2633" rx="7.188" ry="7.2519" fill="#000" stroke="#fff" stroke-opacity=".035176" stroke-width=".94243"/>
  <path d="m15.757 8.2563c0.08776 3.9123-3.1795 7.4551-7.4455 7.4523-4.259-0.004189-7.4883-3.5455-7.4427-7.4663 0.047696-4.1365 3.3191-7.427 7.4736-7.4242 4.1138 0.0028135 7.4146 3.3137 7.4146 7.4382zm-8.5327 6.2754c0.039274-0.0085 0.07785-0.01684 0.11713-0.02467-0.053308-2.2168-0.25882-4.4407 0.30582-6.6006-0.097505-0.085025-0.14239-0.14545-0.20201-0.17285-0.30723-0.14193-0.61375-0.28598-0.92938-0.40894-0.55412-0.21572-0.76805-0.58671-0.66845-1.2521 0.12205 0.059022 0.23147 0.11664 0.3451 0.16583 0.37385 0.16231 0.7414 0.34499 1.1258 0.47569 0.50993 0.17356 0.60953 0.30565 0.53027 0.8502-0.054006 0.3703-0.12274 0.73989-0.1508 1.113-0.025956 0.34078 0.29599 0.80664 0.55482 0.86214 0.22446 0.048488 0.57096-0.24171 0.68037-0.612 0.044197-0.14896 0.024551-0.32252 0.0084225-0.48272-0.036472-0.3724-0.095392-0.74199-0.13186-1.1144-0.031568-0.3183 0.13607-0.48553 0.43137-0.59022 0.41664-0.14686 0.81995-0.33236 1.2281-0.5024 0.11159-0.046375 0.22168-0.09837 0.34658-0.15458 0.05751 0.75113-0.13327 1.0343-0.77019 1.2704-0.3444 0.12788-0.67266 0.29863-1.0528 0.47077 0.56744 2.2457 0.3521 4.4751 0.38508 6.7081 0.16483-0.18762 0.27987-0.38501 0.38157-0.58883 0.088376-0.17776 0.15923-0.36398 0.24129-0.54518 0.38995-0.8629 0.79609-1.7187 1.1622-2.5914 0.11363-0.27194 0.16277-0.58882 0.16631-0.88603 0.0161-1.4636 0.0147-2.9272 0.0028-4.3908-0.0028-0.34921-0.011235-0.71599-0.11714-1.042-0.18942-0.5832-0.35918-1.2107-0.7092-1.6948-0.62984-0.87128-1.5922-1.1095-2.6296-0.97386-0.82838 0.10821-1.5607 0.48413-1.9366 1.2381-0.3949 0.79188-0.6453 1.6547-0.63899 2.5675 0.00982 1.4404-0.0021 2.8801 0.00841 4.3206 0.0014 0.2298 0.026654 0.47782 0.11643 0.68433 0.51975 1.2008 1.0598 2.3925 1.5978 3.5856 0.050497 0.11242 0.13327 0.21154 0.20131 0.31624z" fill="#fb2715" stroke-width=".93065"/>
  <path d="m5.2295 5.6675c0.00985 1.4404 0.068248 2.8394 0.078751 4.2798 0.00142 0.2298 0.025627 0.47735 0.1154 0.68386 0.51975 1.2008 1.0605 2.3929 1.5985 3.586 0.050496 0.11242 0.13285 0.21159 0.20088 0.31629 0.039271-0.0085 0.078255-0.01782 0.11754-0.02564-0.026654-1.1084-0.091611-2.218-0.079072-3.321 0.012546-1.1031 0.10235-2.1983 0.38468-3.2783-0.097502-0.085029-0.1434-0.1457-0.20302-0.1731-0.30723-0.14193-0.61186-0.28736-0.92749-0.41032-0.27706-0.10785-0.47099-0.25444-0.58128-0.45733-0.1103-0.20289-0.13742-0.46228-0.08762-0.79499 0.12205 0.05902 0.23044 0.1175 0.34407 0.16669 0.37385 0.16231 0.74186 0.34587 1.1262 0.47657 0.50993 0.17356 0.60926 0.30601 0.52999 0.85055-0.054009 0.3703-0.12154 0.73817-0.1496 1.1113-0.025954 0.34078 0.29468 0.80787 0.5535 0.86338 0.22446 0.048483 0.57231-0.24305 0.68173-0.61334 0.044194-0.14896 0.024691-0.32278 0.0085455-0.48298-0.036474-0.3724-0.096022-0.74101-0.1325-1.1134-0.031567-0.3183 0.13639-0.48514 0.43169-0.58983 0.41665-0.14686 0.81849-0.33217 1.2267-0.50221 0.11158-0.046371 0.22345-0.0998 0.34834-0.15601 0.02875 0.37557-6e-3 0.63499-0.12609 0.82918-0.12012 0.19419-0.32694 0.32433-0.6454 0.44237-0.3444 0.12788-0.67128 0.29801-1.0514 0.47016 0.28372 1.1228 0.36987 2.2423 0.39108 3.3595 0.021216 1.1172-0.022855 2.2323-0.00641 3.3488 0.16483-0.18762 0.2787-0.38388 0.3804-0.5877 0.088376-0.17776 0.15942-0.36589 0.24149-0.54709 0.38995-0.8629 0.79645-1.7175 1.1626-2.5901 0.11363-0.27194 0.16316-0.58968 0.16669-0.88688 0.0161-1.4636 0.01389-2.9259 0.0022-4.3895-0.002859-0.34921-0.011645-0.71686-0.11755-1.0429-0.18952-0.5832-0.10723-1.2335-0.45725-1.7176-0.044743 0.040624-0.28648-0.2841-0.47553-0.079686-0.74167 0.80193-3.6564 2.308-5.0507 2.9756z" fill="#000" stroke="#fff" stroke-opacity=".035176" stroke-width=".94243"/>
 </g>
 <g transform="matrix(.61173 -.2135 .23989 .54444 108.85 -34.285)">
  <g transform="matrix(.39282 0 0 .39282 -230.38 -105.97)" stroke-width="2">
   <g transform="translate(175.95,318.3)">
    <path d="m266.02 314.16s-30.965 16.684-78.454 33.213c-28.683 10-79.628-6.867-106.15-13.891-26.563-7.049-72.459-21.629-59.724-34.364 12.736-12.732 49.354-39.888 49.354-39.888s-34.865 57.573 194.98 54.93z" fill="#fff" stroke="#ccc"/>
    <path d="m54.069 272.29c0 24.282 72.646 43.974 162.27 43.974 89.617 0 162.25-19.689 162.25-43.974-18.69-13.55-15.99-24.96-15.99-24.96h-293.3c0.01 0 2.605 11.406-15.23 24.954z" fill="#fff" stroke="#ccc"/>
    <path d="m344.76 160.41c-3.628-8.278-17.685-36.869-46.261-56.996-51.803-36.532-116.04-29.563-153.81-7.634-25.523 14.848-43.106 33.982-57.037 62.074-3.4 6.862-9.738 21.504-14.082 42.451-3.759 18.168-4.121 29.625-4.726 48.653 0.03 15.899 30.204 30.239 82.196 37.222 72.762 9.744 160.7 1.28 196.39-18.902 10.213-5.772 15.034-11.914 15.014-17.896-0.753-24.585-1.662-52.437-17.687-88.972z" fill="#fff"/>
    <path d="m344.76 160.41c-3.628-8.278-17.685-36.869-46.261-56.996-51.803-36.532-116.04-29.563-153.81-7.634-25.523 14.848-43.106 33.982-57.037 62.074-3.4 6.862-9.738 21.504-14.082 42.451-3.759 18.168-4.121 29.625-4.726 48.653 0.03 15.899 30.204 30.239 82.196 37.222 72.762 9.744 160.7 1.28 196.39-18.902 10.213-5.772 15.034-11.914 15.014-17.896-0.753-24.585-1.662-52.437-17.687-88.972z" stroke="#ccc"/>
   </g>
   <path d="m246.47 564.91c0.0102 0 2.2196 9.7873-11.625 22-11.791 9.0527-28.244 22.028-35.969 29.75-12.736 12.761 33.157 27.352 59.719 34.375 26.527 7.049 77.483 23.886 106.16 13.906 47.479-16.555 78.438-33.219 78.438-33.219 65.302-5.6841 112.59-22.285 112.59-41.875-18.702-13.548-16-24.938-16-24.938h-293.31z" fill="#ffd520" stroke="#000"/>
   <g transform="translate(175.95,318.3)">
    <path d="m345.99 159.67c-3.628-8.272-17.692-36.851-46.26-56.997-51.798-36.531-116.03-29.554-153.81-7.628-25.539 14.849-43.112 33.981-57.032 62.05-3.406 6.862-9.759 21.504-14.082 42.462-3.748 18.156-4.115 29.623-4.729 48.627 0.021 15.9 30.219 30.264 82.218 37.223 72.76 9.769 160.69 1.279 196.37-18.903 10.213-5.772 15.044-11.892 15.022-17.896-0.78-24.546-1.692-52.402-17.698-88.938z" fill="#ffd520"/>
    <path d="m345.99 159.67c-3.628-8.272-17.692-36.851-46.26-56.997-51.798-36.531-116.03-29.554-153.81-7.628-25.539 14.849-43.112 33.981-57.032 62.05-3.406 6.862-9.759 21.504-14.082 42.462-3.748 18.156-4.115 29.623-4.729 48.627 0.021 15.9 30.219 30.264 82.218 37.223 72.76 9.769 160.69 1.279 196.37-18.903 10.213-5.772 15.044-11.892 15.022-17.896-0.78-24.546-1.692-52.402-17.698-88.938z" stroke="#000"/>
   </g>
   <g transform="translate(175.95,318.3)">
    <path d="m345.99 159.67c-3.628-8.272-17.692-36.851-46.26-56.997-51.798-36.531-116.03-29.554-153.81-7.628-25.539 14.849-43.112 33.981-57.032 62.05-3.406 6.862-9.759 21.504-14.082 42.462-3.748 18.156-4.115 29.623-4.729 48.627 0.021 15.9 30.219 30.264 82.218 37.223 72.76 9.769 160.69 1.279 196.37-18.903 10.213-5.772 15.044-11.892 15.022-17.896-0.78-24.546-1.692-52.402-17.698-88.938z" fill="url(#radialGradient4664)"/>
   </g>
   <g transform="matrix(1 0 0 .97726 175.95 325.37)" fill="#fed51f" filter="url(#filter5207)">
    <path d="m292.97 97.194c-108.97-69.487-219.57 73.226-216.11 164.87l-10.137 4.09c6e-3 -99.89 108.25-247.13 226.25-168.96"/>
    <polygon points="76.865 262.06 61.197 281.15 66.729 266.15"/>
    <path d="m109.11 280.45c-0.01-90.41 53.95-231.27 151.65-199.29-104.77-35.462-194.01 94.26-194.01 184.97l-5.532 15.003 42.381 14.294 5.512-14.974z" stroke="#000" stroke-linecap="round" stroke-linejoin="round"/>
    <path d="m109.1 280.45-5.526 15.004 24.849-17.417c-3.47-91.65 55.57-250.32 164.55-180.86-118-78.149-183.87 83.37-183.87 183.28z"/>
    <path d="m109.1 280.45-5.526 15.004 24.849-17.417c-3.47-91.65 55.57-250.32 164.55-180.86-118-78.149-183.87 83.37-183.87 183.28z" stroke="#000" stroke-linecap="round" stroke-linejoin="round"/>
   </g>
  </g>
 </g>
 <g transform="matrix(.14184 0 0 .14184 80.508 91.391)">
  <path d="m301.07 472.25c-30.98 0.82-66.55 0.78-90.09 5.98 28.63-0.85 64.07 2.03 81.1 7.99 1.31 2.19-13.03 6.78 6.05 8.81 14.61 2.77 30.1 5.54 8.07 8.53-83.16 20.5-168.26 40.71-242.93 62.76-26.182 4.69-20.271 15.31 15.502 16.79 30.948 2.21 57.968-2.93 71.858-8.5 71.94-21.56 142.39-43.37 212.04-65.29 15.17 5.87 48.19-1.38 63.62 2.49 25.33 3.27 6.47 10.2 33.07 13.22 27.01 5.98 62.77-0.85 79-6.04 22.59-6.01-5.37-13.11-33.96-14.31-20.77 1.48-42.29-3.29-23.18-7-4.18-5.8-34.14-8.58-49.12-13.11-18.51-5.63-45.33-7.93-74.05-10.09-17.95-1.6-37.69-2.19-56.98-2.23z" fill="url(#radialGradient2779)" fill-rule="evenodd" opacity=".75862"/>
  <g transform="matrix(1.4152,0,0,1.4152,-331.51,-341.21)">
   <path d="m407.58 307.4c44.9-42.08 111.5-2.86 111.5-2.86l-45.96 40.3c-14.35-22.94-30.48-44.27-65.54-37.44z" fill="url(#linearGradient4333)" fill-rule="evenodd" stroke="#000" stroke-width="3.7"/>
   <g fill-rule="evenodd">
    <path d="m392.08 308.4c44.9-42.08 108.5 4.64 108.5 4.64l-40.96 32.8c-14.35-22.94-32.48-44.27-67.54-37.44z" fill="url(#radialGradient1533)" stroke="#000" stroke-width="3.7"/>
    <path d="m489.49 356.21c-81.17 104.71-190.22 217.15-206.33 244.24-22.59 37.95 32.36 64.68 57.15 32.28 50.54-66.05 178.9-254.25 178.9-254.25 2.74-12.04 1.39-23.35-29.72-22.27z" fill="url(#radialGradient1530)" stroke="#000" stroke-width="6.7803"/>
    <path d="m489.49 356.21c-23.05 26.86-42.64 50.32-60.33 69.97-9.25 10.26 27.18 42.47 33.34 34.77 30.99-38.72 56.71-82.47 56.71-82.47 2.74-12.04 1.39-23.35-29.72-22.27z" fill="url(#linearGradient1527)"/>
   </g>
   <g transform="matrix(.71224 0 0 .71224 126.02 130.44)">
    <path d="m540.34 244.16c-4.15 0.08-35.05-9.75-41.84 1l-41.03 47.53c-6.04 6.99-5.65 17.93 0.84 24.5l76.57 77.43c9.49 12.07 34.08 0.22 68.12-6.78l37.03-42.53c6.04-6.99 5.65-17.93-0.84-24.5l-74.07-73.93c-3.19-3.24-20.75-2.81-24.78-2.72z" color="#000000" fill="url(#linearGradient4341)" stroke="#000" stroke-width="5.651"/>
    <path transform="matrix(.70311 .71108 -.65336 .75705 0 0)" d="m555.06-197.23h108.9c9.24 0 16.68 7.44 16.68 16.68v62.8c0 9.24-7.44 16.68-16.68 16.68h-108.9c-9.24 0-16.68-7.44-16.68-16.68v-62.8c0-9.24 7.44-16.68 16.68-16.68z" color="#000000" fill="url(#linearGradient4343)" stroke="url(#linearGradient4345)" stroke-miterlimit="7.8" stroke-width="5.6598"/>
    <path d="m619.24 348.98c-4.98 0.14-10.75 1.62-17.09 4.5-7.79 3.53-19.63 16.81-21.79 25.03-2.05 7.85 0.4 14.09 4.34 17.85 3.91 3.73 17.64 16.85 20.75 20.65 5.59 6.84 17.24 7.77 31.73 1.16 22.53-10.29 18.47-4.91 21.75-25 1.17-7.17 2.41-13.86-0.69-17.66-3.79-4.66-21.18-16.58-23.99-20.37-3.11-4.19-8.33-6.35-15.01-6.16z" color="#000000" fill="url(#linearGradient4347)" stroke="url(#linearGradient4349)" stroke-miterlimit="7.8" stroke-width="4.4487"/>
    <g transform="translate(23,15.5)" stroke-miterlimit="7.8" stroke-width="4.4487">
     <path d="m644.24 351.98c-4.98 0.14-10.76 1.61-17.09 4.5-22.54 10.28-43.51 34.94-46.79 55.03-1.3 8.01 0.4 14.09 4.34 17.85 3.91 3.73 17.64 16.85 20.75 20.65 5.59 6.84 17.24 7.77 31.73 1.16 22.53-10.29 43.47-34.91 46.75-55 1.17-7.17 2.41-13.86-0.69-17.66-3.79-4.66-21.18-16.58-23.99-20.37-3.11-4.19-8.33-6.35-15.01-6.16z" color="#000000" fill="url(#linearGradient4351)" stroke="#000"/>
     <path transform="matrix(1.0594 -.48337 -.29475 1.806 59.444 -46.713)" d="m712.76 436a38.537 20.153 0 1 1-77.07 0 38.537 20.153 0 1 1 77.07 0z" color="#000000" fill="url(#linearGradient4353)" stroke="url(#linearGradient4355)"/>
    </g>
   </g>
  </g>
 </g>
</svg>
