<?xml version="1.0" encoding="UTF-8" standalone="no"?>
<svg
   xmlns:dc="http://purl.org/dc/elements/1.1/"
   xmlns:cc="http://creativecommons.org/ns#"
   xmlns:rdf="http://www.w3.org/1999/02/22-rdf-syntax-ns#"
   xmlns:svg="http://www.w3.org/2000/svg"
   xmlns="http://www.w3.org/2000/svg"
   xmlns:sodipodi="http://sodipodi.sourceforge.net/DTD/sodipodi-0.dtd"
   xmlns:inkscape="http://www.inkscape.org/namespaces/inkscape"
   width="722.55847"
   height="188.09677"
   viewBox="0 0 722.55847 188.09677"
   version="1.1"
   id="svg8"
   sodipodi:docname="sparta-text-short-light-wht.svg"
   style="fill:none"
   inkscape:version="0.92.4 (5da689c313, 2019-01-14)">
  <metadata
     id="metadata14">
    <rdf:RDF>
      <cc:Work
         rdf:about="">
        <dc:format>image/svg+xml</dc:format>
        <dc:type
           rdf:resource="http://purl.org/dc/dcmitype/StillImage" />
        <dc:title />
      </cc:Work>
    </rdf:RDF>
  </metadata>
  <defs
     id="defs12" />
  <sodipodi:namedview
     pagecolor="#ffffff"
     bordercolor="#666666"
     borderopacity="1"
     objecttolerance="10"
     gridtolerance="10"
     guidetolerance="10"
     inkscape:pageopacity="0"
     inkscape:pageshadow="2"
     inkscape:window-width="2560"
     inkscape:window-height="1356"
     id="namedview10"
     showgrid="false"
     inkscape:zoom="1.5561644"
     inkscape:cx="265.41423"
     inkscape:cy="121.15051"
     inkscape:window-x="1912"
     inkscape:window-y="82"
     inkscape:window-maximized="1"
     inkscape:current-layer="svg8"
     fit-margin-top="20"
     fit-margin-bottom="20"
     fit-margin-left="20"
     fit-margin-right="20" />
  <ellipse
     cx="95.438957"
     cy="94.048393"
     rx="68.486053"
     ry="67.790764"
     id="ellipse2"
     style="fill:#000000;stroke-width:0.69528985" />
  <path
     d="M 168.07937,93.978161 C 168.95196,132.88936 136.45689,168.12457 94.028221,168.09676 51.669284,168.05506 19.551342,132.83374 20.004741,93.838411 20.479136,52.698456 53.015713,19.972067 94.334845,20.000018 135.24987,20.027968 168.07937,52.957035 168.07937,93.978161 Z M 83.215072,156.39155 c 0.390753,-0.0841 0.774553,-0.16826 1.165306,-0.24475 -0.530507,-22.04833 -2.573963,-44.1662 3.041194,-65.648559 -0.969231,-0.84547 -1.41561,-1.44621 -2.008689,-1.71876 -3.055799,-1.41213 -6.10395,-2.84443 -9.243184,-4.06744 -5.511423,-2.14567 -7.63915,-5.83557 -6.64857,-12.45327 1.213907,0.58703 2.302175,1.16009 3.43216,1.64923 3.71841,1.61432 7.373549,3.43118 11.196947,4.73137 5.071449,1.72571 6.062236,3.03981 5.273775,8.45542 -0.537462,3.68295 -1.220932,7.35895 -1.499739,11.06971 -0.257953,3.389539 2.943852,8.022949 5.517814,8.575009 2.232583,0.48183 5.678433,-2.40431 6.767264,-6.08726 0.43942,-1.481669 0.24404,-3.207369 0.0834,-4.800979 -0.362933,-3.70381 -0.949069,-7.3798 -1.311311,-11.08361 -0.314273,-3.16566 1.353031,-4.82879 4.289941,-5.86964 4.14393,-1.4608 8.15505,-3.30582 12.21555,-4.99698 1.10898,-0.46125 2.20407,-0.97841 3.44585,-1.53742 0.57223,7.47026 -1.32522,10.28688 -7.65931,12.63488 -3.42569,1.27168 -6.69008,2.97027 -10.47176,4.68208 5.64367,22.334789 3.50217,44.508969 3.83035,66.717919 1.63949,-1.86616 2.78325,-3.82965 3.79489,-5.85642 0.87885,-1.76813 1.58318,-3.61969 2.39945,-5.42327 3.87902,-8.58127 7.91796,-17.093 11.55989,-25.773 1.12984,-2.70398 1.61794,-5.85573 1.6534,-8.8121 0.15991,-14.556589 0.14601,-29.113179 0.0278,-43.669904 -0.0278,-3.473251 -0.11194,-7.121159 -1.16531,-10.363712 -1.88353,-5.800318 -3.57169,-12.040891 -7.05302,-16.855844 -6.26455,-8.665536 -15.83522,-11.034598 -26.153318,-9.685874 -8.238494,1.076239 -15.521656,4.815021 -19.260855,12.313444 -3.927553,7.875897 -6.418012,16.457582 -6.355228,25.535355 0.09769,14.326036 -0.02092,28.645526 0.08372,42.971265 0.01398,2.28542 0.265114,4.75231 1.158075,6.8069 5.169272,11.94299 10.540803,23.7949 15.891753,35.66141 0.502,1.11803 1.325224,2.10325 2.00174,3.1448 z"
     id="path4"
     inkscape:connector-curvature="0"
     style="fill:#ffffff;stroke-width:0.69528985" />
  <g
     transform="matrix(1.9405294,0,0,1.9405294,-1083.4912,-2464.3912)"
     id="g456"
     style="fill:#ffffff">
    <path
       inkscape:connector-curvature="0"
       d="m 668.826,1310.095 c -0.889,0 -1.861,-0.023 -2.916,-0.072 -1.057,-0.048 -2.082,-0.107 -3.078,-0.18 -0.996,-0.073 -1.902,-0.155 -2.719,-0.252 v -2.628 c 0.865,0.072 1.77,0.144 2.719,0.216 0.947,0.072 1.871,0.133 2.771,0.18 0.9,0.049 1.662,0.072 2.287,0.072 1.271,0 2.291,-0.054 3.059,-0.162 0.768,-0.107 1.416,-0.317 1.945,-0.629 0.359,-0.217 0.623,-0.504 0.791,-0.865 0.168,-0.359 0.27,-0.779 0.307,-1.26 0.035,-0.479 0.053,-0.995 0.053,-1.547 0,-0.816 -0.023,-1.477 -0.07,-1.98 -0.049,-0.504 -0.176,-0.895 -0.379,-1.17 -0.205,-0.275 -0.535,-0.48 -0.99,-0.612 -0.455,-0.132 -1.068,-0.233 -1.836,-0.306 l -6.156,-0.684 c -1.152,-0.145 -2.076,-0.391 -2.771,-0.738 -0.697,-0.348 -1.219,-0.793 -1.566,-1.332 -0.348,-0.541 -0.582,-1.188 -0.701,-1.944 -0.121,-0.756 -0.18,-1.603 -0.18,-2.538 0,-1.512 0.197,-2.724 0.594,-3.636 0.395,-0.912 0.977,-1.608 1.746,-2.089 0.768,-0.479 1.697,-0.797 2.789,-0.953 1.092,-0.156 2.346,-0.234 3.762,-0.234 0.912,0 1.848,0.024 2.809,0.072 0.959,0.049 1.865,0.114 2.719,0.197 0.852,0.085 1.553,0.188 2.105,0.307 v 2.557 c -0.625,-0.096 -1.344,-0.181 -2.16,-0.252 -0.816,-0.072 -1.65,-0.127 -2.502,-0.162 -0.852,-0.037 -1.662,-0.055 -2.43,-0.055 -1.32,0 -2.389,0.061 -3.205,0.18 -0.816,0.121 -1.463,0.337 -1.943,0.648 -0.527,0.312 -0.859,0.75 -0.99,1.314 -0.133,0.563 -0.197,1.242 -0.197,2.033 0,0.937 0.064,1.662 0.197,2.178 0.131,0.518 0.42,0.877 0.863,1.08 0.445,0.205 1.111,0.355 1.998,0.451 l 6.014,0.684 c 0.863,0.072 1.625,0.186 2.285,0.342 0.66,0.156 1.23,0.414 1.711,0.773 0.479,0.36 0.84,0.877 1.078,1.549 0.145,0.336 0.254,0.708 0.324,1.115 0.072,0.408 0.127,0.859 0.162,1.351 0.037,0.492 0.055,1.038 0.055,1.638 0,1.368 -0.133,2.502 -0.396,3.402 -0.263,0.9 -0.637,1.614 -1.115,2.142 -0.48,0.528 -1.068,0.925 -1.764,1.188 -0.697,0.264 -1.471,0.432 -2.322,0.504 -0.856,0.072 -1.774,0.107 -2.757,0.107 z"
       id="path426" />
    <path
       inkscape:connector-curvature="0"
       d="m 695.178,1309.808 v -24.769 h 10.836 c 1.584,0 2.85,0.198 3.797,0.595 0.947,0.396 1.656,0.941 2.125,1.637 0.467,0.697 0.785,1.52 0.953,2.467 0.168,0.948 0.252,1.986 0.252,3.113 0,1.08 -0.078,2.095 -0.234,3.043 -0.156,0.947 -0.473,1.781 -0.953,2.502 -0.48,0.72 -1.201,1.283 -2.16,1.691 -0.961,0.408 -2.244,0.612 -3.852,0.612 h -7.668 v 9.108 h -3.096 z m 3.095,-11.809 h 6.66 c 1.176,0 2.105,-0.096 2.789,-0.288 0.684,-0.191 1.193,-0.497 1.529,-0.918 0.336,-0.419 0.553,-0.954 0.648,-1.603 0.096,-0.647 0.145,-1.427 0.145,-2.34 0,-0.911 -0.043,-1.691 -0.127,-2.34 -0.084,-0.647 -0.287,-1.176 -0.611,-1.584 -0.324,-0.407 -0.828,-0.713 -1.512,-0.918 -0.684,-0.203 -1.615,-0.306 -2.789,-0.306 h -6.732 z"
       id="path428" />
    <path
       inkscape:connector-curvature="0"
       d="m 726.533,1309.808 9.359,-24.769 h 3.889 l 9.324,24.769 H 745.9 l -2.555,-6.769 H 732.22 l -2.555,6.769 z m 6.623,-9.469 h 9.252 l -4.535,-12.132 h -0.18 z"
       id="path430" />
    <path
       inkscape:connector-curvature="0"
       d="m 765.736,1309.808 v -24.769 h 11.377 c 1.559,0 2.801,0.187 3.725,0.558 0.924,0.373 1.607,0.9 2.053,1.584 0.443,0.685 0.738,1.482 0.883,2.395 0.143,0.912 0.215,1.885 0.215,2.916 0,0.889 -0.078,1.807 -0.234,2.754 -0.156,0.948 -0.504,1.807 -1.043,2.574 -0.541,0.768 -1.387,1.332 -2.539,1.691 l 4.176,10.297 h -3.311 l -4.105,-10.404 0.865,0.432 c -0.168,0.049 -0.373,0.084 -0.613,0.108 -0.24,0.024 -0.562,0.036 -0.971,0.036 h -7.381 v 9.828 z m 3.096,-12.529 h 6.949 c 1.199,0 2.141,-0.096 2.826,-0.288 0.684,-0.191 1.188,-0.492 1.512,-0.9 0.324,-0.408 0.533,-0.905 0.629,-1.494 0.096,-0.588 0.145,-1.289 0.145,-2.105 0,-0.816 -0.043,-1.518 -0.127,-2.105 -0.084,-0.587 -0.275,-1.08 -0.574,-1.477 -0.301,-0.396 -0.781,-0.695 -1.441,-0.9 -0.66,-0.203 -1.566,-0.306 -2.717,-0.306 h -7.201 v 9.575 z"
       id="path432" />
    <path
       inkscape:connector-curvature="0"
       d="m 807.533,1309.808 v -22.033 h -7.812 v -2.735 h 18.756 v 2.735 h -7.848 v 22.033 z"
       id="path434" />
    <path
       inkscape:connector-curvature="0"
       d="m 830.033,1309.808 9.359,-24.769 h 3.889 l 9.324,24.769 H 849.4 l -2.555,-6.769 H 835.72 l -2.555,6.769 z m 6.623,-9.469 h 9.252 l -4.535,-12.132 h -0.18 z"
       id="path436" />
    <path
       inkscape:connector-curvature="0"
       d="m 869.236,1309.808 v -24.769 h 3.168 l 12.854,18.972 h 0.143 v -18.972 h 2.988 v 24.769 H 885.4 l -13.031,-19.332 h -0.145 v 19.332 z"
       id="path438" />
    <path
       inkscape:connector-curvature="0"
       d="m 660.582,1351.808 v -24.769 h 10.836 c 1.584,0 2.85,0.198 3.797,0.595 0.949,0.396 1.656,0.941 2.125,1.637 0.469,0.697 0.785,1.52 0.953,2.467 0.168,0.948 0.252,1.986 0.252,3.113 0,1.08 -0.078,2.095 -0.232,3.043 -0.156,0.947 -0.475,1.781 -0.955,2.502 -0.48,0.72 -1.199,1.283 -2.16,1.691 -0.959,0.408 -2.244,0.612 -3.852,0.612 h -7.668 v 9.108 h -3.096 z m 3.096,-11.809 h 6.66 c 1.176,0 2.105,-0.096 2.789,-0.288 0.686,-0.191 1.195,-0.497 1.531,-0.918 0.336,-0.419 0.551,-0.954 0.648,-1.603 0.094,-0.647 0.143,-1.427 0.143,-2.34 0,-0.911 -0.041,-1.691 -0.125,-2.34 -0.084,-0.647 -0.289,-1.176 -0.613,-1.584 -0.324,-0.407 -0.828,-0.713 -1.512,-0.918 -0.684,-0.203 -1.613,-0.306 -2.789,-0.306 h -6.732 z"
       id="path440" />
    <path
       inkscape:connector-curvature="0"
       d="m 695.213,1351.808 v -24.769 h 11.377 c 1.559,0 2.801,0.187 3.727,0.558 0.922,0.373 1.607,0.9 2.051,1.584 0.443,0.685 0.738,1.482 0.883,2.395 0.143,0.912 0.215,1.885 0.215,2.916 0,0.889 -0.078,1.807 -0.232,2.754 -0.158,0.948 -0.506,1.807 -1.045,2.574 -0.539,0.767 -1.387,1.332 -2.537,1.691 l 4.176,10.297 h -3.312 l -4.104,-10.404 0.863,0.432 c -0.168,0.049 -0.373,0.084 -0.611,0.108 -0.24,0.024 -0.564,0.036 -0.973,0.036 h -7.381 v 9.828 z m 3.096,-12.529 h 6.949 c 1.199,0 2.143,-0.096 2.826,-0.288 0.684,-0.191 1.188,-0.492 1.512,-0.9 0.324,-0.408 0.533,-0.905 0.629,-1.494 0.096,-0.588 0.145,-1.289 0.145,-2.105 0,-0.816 -0.041,-1.518 -0.125,-2.105 -0.086,-0.588 -0.277,-1.08 -0.576,-1.477 -0.301,-0.396 -0.781,-0.695 -1.441,-0.9 -0.66,-0.203 -1.564,-0.306 -2.717,-0.306 h -7.201 v 9.575 z"
       id="path442" />
    <path
       inkscape:connector-curvature="0"
       d="m 740.178,1352.095 c -1.92,0 -3.51,-0.102 -4.77,-0.306 -1.262,-0.204 -2.258,-0.569 -2.988,-1.099 -0.732,-0.527 -1.268,-1.266 -1.604,-2.213 -0.336,-0.948 -0.551,-2.16 -0.646,-3.637 -0.098,-1.476 -0.145,-3.281 -0.145,-5.418 0,-2.136 0.047,-3.941 0.145,-5.418 0.096,-1.476 0.311,-2.688 0.646,-3.636 0.335,-0.948 0.871,-1.687 1.604,-2.214 0.73,-0.527 1.727,-0.895 2.988,-1.098 1.26,-0.204 2.85,-0.307 4.77,-0.307 1.92,0 3.51,0.103 4.77,0.307 1.26,0.203 2.256,0.57 2.988,1.098 0.732,0.528 1.266,1.266 1.602,2.214 0.336,0.948 0.553,2.16 0.648,3.636 0.096,1.477 0.145,3.282 0.145,5.418 0,2.137 -0.049,3.942 -0.145,5.418 -0.096,1.477 -0.312,2.688 -0.648,3.637 -0.336,0.947 -0.869,1.686 -1.602,2.213 -0.732,0.529 -1.729,0.895 -2.988,1.099 -1.259,0.204 -2.85,0.306 -4.77,0.306 z m 0,-2.664 c 1.318,0 2.412,-0.041 3.275,-0.125 0.863,-0.084 1.549,-0.282 2.053,-0.595 0.504,-0.312 0.887,-0.821 1.152,-1.53 0.264,-0.707 0.426,-1.686 0.484,-2.934 0.061,-1.248 0.09,-2.855 0.09,-4.824 0,-1.967 -0.029,-3.576 -0.09,-4.824 -0.059,-1.247 -0.221,-2.225 -0.484,-2.934 -0.266,-0.707 -0.648,-1.218 -1.152,-1.529 -0.504,-0.312 -1.189,-0.51 -2.053,-0.595 -0.863,-0.083 -1.957,-0.126 -3.275,-0.126 -1.32,0 -2.406,0.043 -3.258,0.126 -0.854,0.085 -1.537,0.282 -2.053,0.595 -0.516,0.312 -0.9,0.822 -1.152,1.529 -0.252,0.709 -0.414,1.687 -0.486,2.934 -0.07,1.248 -0.107,2.857 -0.107,4.824 0,1.969 0.037,3.576 0.107,4.824 0.072,1.248 0.234,2.227 0.486,2.934 0.252,0.709 0.637,1.219 1.152,1.53 0.516,0.312 1.199,0.511 2.053,0.595 0.851,0.084 1.937,0.125 3.258,0.125 z"
       id="path444" />
    <path
       inkscape:connector-curvature="0"
       d="m 773.154,1351.808 v -22.033 h -7.812 v -2.735 h 18.756 v 2.735 h -7.848 v 22.033 z"
       id="path446" />
    <path
       inkscape:connector-curvature="0"
       d="m 809.227,1352.095 c -1.922,0 -3.512,-0.102 -4.771,-0.306 -1.259,-0.204 -2.256,-0.569 -2.988,-1.099 -0.732,-0.527 -1.266,-1.266 -1.602,-2.213 -0.336,-0.948 -0.553,-2.16 -0.648,-3.637 -0.096,-1.476 -0.143,-3.281 -0.143,-5.418 0,-2.136 0.047,-3.941 0.143,-5.418 0.096,-1.476 0.312,-2.688 0.648,-3.636 0.336,-0.948 0.869,-1.687 1.602,-2.214 0.733,-0.527 1.729,-0.895 2.988,-1.098 1.26,-0.204 2.85,-0.307 4.771,-0.307 1.918,0 3.51,0.103 4.77,0.307 1.26,0.203 2.256,0.57 2.988,1.098 0.73,0.527 1.266,1.266 1.602,2.214 0.336,0.948 0.551,2.16 0.648,3.636 0.096,1.477 0.143,3.282 0.143,5.418 0,2.137 -0.047,3.942 -0.143,5.418 -0.098,1.477 -0.312,2.688 -0.648,3.637 -0.336,0.947 -0.871,1.686 -1.602,2.213 -0.732,0.529 -1.729,0.895 -2.988,1.099 -1.259,0.204 -2.852,0.306 -4.77,0.306 z m 0,-2.664 c 1.318,0 2.41,-0.041 3.275,-0.125 0.863,-0.084 1.547,-0.282 2.051,-0.595 0.506,-0.312 0.889,-0.821 1.152,-1.53 0.264,-0.707 0.426,-1.686 0.486,-2.934 0.06,-1.248 0.09,-2.855 0.09,-4.824 0,-1.967 -0.029,-3.576 -0.09,-4.824 -0.061,-1.247 -0.223,-2.225 -0.486,-2.934 -0.264,-0.707 -0.646,-1.218 -1.152,-1.529 -0.504,-0.312 -1.188,-0.51 -2.051,-0.595 -0.865,-0.083 -1.957,-0.126 -3.275,-0.126 -1.32,0 -2.408,0.043 -3.26,0.126 -0.852,0.085 -1.535,0.282 -2.051,0.595 -0.518,0.312 -0.9,0.822 -1.152,1.529 -0.252,0.709 -0.414,1.687 -0.486,2.934 -0.072,1.248 -0.107,2.857 -0.107,4.824 0,1.969 0.035,3.576 0.107,4.824 0.072,1.248 0.234,2.227 0.486,2.934 0.252,0.709 0.635,1.219 1.152,1.53 0.516,0.312 1.199,0.511 2.051,0.595 0.852,0.084 1.939,0.125 3.26,0.125 z"
       id="path448" />
    <path
       inkscape:connector-curvature="0"
       d="m 846.018,1352.095 c -1.729,0 -3.18,-0.102 -4.355,-0.306 -1.178,-0.204 -2.137,-0.563 -2.881,-1.08 -0.744,-0.516 -1.314,-1.247 -1.709,-2.196 -0.396,-0.947 -0.666,-2.165 -0.811,-3.654 -0.145,-1.487 -0.217,-3.299 -0.217,-5.436 0,-2.136 0.072,-3.941 0.217,-5.418 0.145,-1.476 0.414,-2.688 0.811,-3.636 0.395,-0.948 0.965,-1.687 1.709,-2.214 0.744,-0.527 1.703,-0.895 2.881,-1.098 1.176,-0.204 2.627,-0.307 4.355,-0.307 0.672,0 1.361,0.024 2.07,0.072 0.707,0.049 1.385,0.107 2.033,0.18 0.648,0.073 1.211,0.168 1.691,0.288 v 2.483 c -0.551,-0.071 -1.121,-0.137 -1.709,-0.197 -0.588,-0.06 -1.17,-0.102 -1.746,-0.126 -0.576,-0.023 -1.092,-0.036 -1.549,-0.036 -1.391,0 -2.555,0.061 -3.492,0.18 -0.936,0.121 -1.68,0.355 -2.23,0.703 -0.553,0.348 -0.967,0.888 -1.242,1.619 -0.277,0.732 -0.463,1.705 -0.559,2.916 -0.096,1.213 -0.145,2.742 -0.145,4.59 0,1.849 0.049,3.379 0.145,4.59 0.096,1.213 0.281,2.185 0.559,2.916 0.275,0.732 0.689,1.273 1.242,1.621 0.551,0.348 1.295,0.582 2.23,0.701 0.938,0.121 2.102,0.18 3.492,0.18 0.816,0 1.705,-0.035 2.664,-0.107 0.961,-0.072 1.789,-0.156 2.484,-0.252 v 2.556 c -0.504,0.097 -1.098,0.175 -1.781,0.234 -0.683,0.059 -1.387,0.113 -2.107,0.161 -0.718,0.049 -1.402,0.073 -2.05,0.073 z"
       id="path450" />
    <path
       inkscape:connector-curvature="0"
       d="m 878.057,1352.095 c -1.92,0 -3.51,-0.102 -4.77,-0.306 -1.26,-0.204 -2.256,-0.569 -2.988,-1.099 -0.732,-0.527 -1.266,-1.266 -1.602,-2.213 -0.336,-0.948 -0.553,-2.16 -0.648,-3.637 -0.096,-1.476 -0.145,-3.281 -0.145,-5.418 0,-2.136 0.049,-3.941 0.145,-5.418 0.096,-1.476 0.312,-2.688 0.648,-3.636 0.336,-0.948 0.869,-1.687 1.602,-2.214 0.733,-0.527 1.729,-0.895 2.988,-1.098 1.26,-0.204 2.85,-0.307 4.77,-0.307 1.92,0 3.51,0.103 4.771,0.307 1.26,0.203 2.254,0.57 2.986,1.098 0.732,0.528 1.266,1.266 1.604,2.214 0.336,0.948 0.551,2.16 0.646,3.636 0.096,1.477 0.145,3.282 0.145,5.418 0,2.137 -0.049,3.942 -0.145,5.418 -0.096,1.477 -0.311,2.688 -0.646,3.637 -0.338,0.947 -0.871,1.686 -1.604,2.213 -0.732,0.529 -1.727,0.895 -2.986,1.099 -1.262,0.204 -2.851,0.306 -4.771,0.306 z m 0,-2.664 c 1.32,0 2.412,-0.041 3.277,-0.125 0.863,-0.084 1.547,-0.282 2.051,-0.595 0.504,-0.312 0.889,-0.821 1.152,-1.53 0.264,-0.707 0.426,-1.686 0.486,-2.934 0.059,-1.248 0.09,-2.855 0.09,-4.824 0,-1.967 -0.031,-3.576 -0.09,-4.824 -0.061,-1.247 -0.223,-2.225 -0.486,-2.934 -0.264,-0.707 -0.648,-1.218 -1.152,-1.529 -0.504,-0.312 -1.188,-0.51 -2.051,-0.595 -0.865,-0.083 -1.957,-0.126 -3.277,-0.126 -1.32,0 -2.406,0.043 -3.258,0.126 -0.852,0.085 -1.535,0.282 -2.051,0.595 -0.518,0.312 -0.9,0.822 -1.152,1.529 -0.252,0.709 -0.414,1.687 -0.486,2.934 -0.072,1.248 -0.107,2.857 -0.107,4.824 0,1.969 0.035,3.576 0.107,4.824 0.072,1.248 0.234,2.227 0.486,2.934 0.252,0.709 0.635,1.219 1.152,1.53 0.516,0.312 1.199,0.511 2.051,0.595 0.852,0.084 1.937,0.125 3.258,0.125 z"
       id="path452" />
    <path
       inkscape:connector-curvature="0"
       d="m 905.742,1351.808 v -24.769 h 3.096 v 22.032 h 11.555 v 2.736 h -14.651 z"
       id="path454" />
  </g>
</svg>
