<?xml version="1.0" encoding="UTF-8" standalone="no"?>
<svg
   xmlns:dc="http://purl.org/dc/elements/1.1/"
   xmlns:cc="http://creativecommons.org/ns#"
   xmlns:rdf="http://www.w3.org/1999/02/22-rdf-syntax-ns#"
   xmlns:svg="http://www.w3.org/2000/svg"
   xmlns="http://www.w3.org/2000/svg"
   xmlns:sodipodi="http://sodipodi.sourceforge.net/DTD/sodipodi-0.dtd"
   xmlns:inkscape="http://www.inkscape.org/namespaces/inkscape"
   width="977.89136"
   height="164.89766"
   viewBox="0 0 977.89136 164.89766"
   version="1.1"
   id="svg8"
   sodipodi:docname="sparta-text-long-light-wht.svg"
   style="fill:none"
   inkscape:version="0.92.4 (5da689c313, 2019-01-14)">
  <metadata
     id="metadata14">
    <rdf:RDF>
      <cc:Work
         rdf:about="">
        <dc:format>image/svg+xml</dc:format>
        <dc:type
           rdf:resource="http://purl.org/dc/dcmitype/StillImage" />
        <dc:title />
      </cc:Work>
    </rdf:RDF>
  </metadata>
  <defs
     id="defs12" />
  <sodipodi:namedview
     pagecolor="#ffffff"
     bordercolor="#666666"
     borderopacity="1"
     objecttolerance="10"
     gridtolerance="10"
     guidetolerance="10"
     inkscape:pageopacity="0"
     inkscape:pageshadow="2"
     inkscape:window-width="2560"
     inkscape:window-height="1356"
     id="namedview10"
     showgrid="false"
     inkscape:zoom="0.8032733"
     inkscape:cx="-47.788535"
     inkscape:cy="138.0955"
     inkscape:window-x="1912"
     inkscape:window-y="82"
     inkscape:window-maximized="1"
     inkscape:current-layer="svg8"
     fit-margin-left="20"
     fit-margin-right="20"
     fit-margin-bottom="20"
     fit-margin-top="20" />
  <ellipse
     cx="82.836655"
     cy="83.612473"
     rx="58.957886"
     ry="58.182125"
     id="ellipse2"
     style="fill:#000000;stroke-width:0.77576166" />
  <path
     d="m 144.88286,82.38987 c 0.73542,32.81549 -26.66914,62.53104 -62.451148,62.50777 C 46.708354,144.86196 19.621549,115.15804 20.004,82.272032 20.40406,47.576247 47.843758,19.976431 82.690817,20.000015 117.19592,20.023598 144.88286,47.794313 144.88286,82.38987 Z m -71.570226,52.6362 c 0.329466,-0.0706 0.653036,-0.14196 0.982502,-0.20635 -0.447071,-18.59423 -2.170891,-37.248195 2.565134,-55.364867 -0.817731,-0.71308 -1.194285,-1.219963 -1.694419,-1.449821 -2.576847,-1.190484 -5.147877,-2.398732 -7.795319,-3.430107 -4.64782,-1.809309 -6.442235,-4.921122 -5.606817,-10.502417 1.023695,0.495091 1.941499,0.978391 2.8946,1.390941 3.135783,1.361384 6.21866,2.893746 9.442726,3.989975 4.277161,1.455716 5.112579,2.563737 4.447751,7.131266 -0.453044,3.105917 -1.02959,6.205938 -1.264879,9.335671 -0.217679,2.857906 2.482748,6.765418 4.653639,7.23165 1.882774,0.406499 4.788777,-2.027841 5.706503,-5.13399 0.370814,-1.248977 0.206352,-2.705081 0.07059,-4.0487 -0.30565,-3.123527 -0.79981,-6.223626 -1.10546,-9.34723 -0.265311,-2.669784 1.141145,-4.072516 3.618152,-4.950601 3.494806,-1.231832 6.877127,-2.787699 10.301343,-4.213937 0.93557,-0.389044 1.8595,-0.8251 2.90678,-1.296608 0.48253,6.300271 -1.11787,8.67542 -6.459772,10.655629 -2.888937,1.072646 -5.642115,2.50478 -8.831271,3.948705 4.759298,18.835725 2.953325,37.536241 3.230272,56.266231 1.382407,-1.57325 2.347454,-3.2295 3.200016,-4.9385 0.741629,-1.49102 1.335862,-3.0534 2.023963,-4.57389 3.271388,-7.23708 6.677762,-14.41521 9.749002,-21.73529 0.95264,-2.28074 1.36457,-4.93928 1.39405,-7.431802 0.13575,-12.276428 0.12334,-24.552934 0.0233,-36.829362 -0.0233,-2.929121 -0.0939,-6.005636 -0.98212,-8.740274 -1.58876,-4.89172 -3.01228,-10.15472 -5.94776,-14.215367 -5.283721,-7.30814 -13.355521,-9.306036 -22.056851,-8.168615 -6.948187,0.907641 -13.090358,4.060725 -16.243829,10.384579 -3.312347,6.642148 -5.412644,13.879462 -5.359737,21.535298 0.08239,12.081945 -0.01761,24.157606 0.07059,36.240094 0.01179,1.926992 0.223575,4.007589 0.976684,5.739859 4.359548,10.07249 8.889686,20.06818 13.402136,30.07551 0.423644,0.94255 1.117873,1.77416 1.688523,2.65232 z"
     id="path6"
     inkscape:connector-curvature="0"
     style="fill:#ffffff;stroke-width:0.77576166" />
  <g
     id="g870"
     transform="matrix(1.0739963,0,0,1.0739963,-52.973071,-25.410509)"
     style="fill:#ffffff">
    <path
       style="stroke-width:1.35422134"
       id="path650"
       d="m 230.56303,122.05859 c -1.20255,0 -2.51886,-0.0325 -3.94891,-0.0975 -1.43142,-0.0664 -2.82085,-0.1449 -4.1683,-0.24376 -1.3488,-0.0975 -2.57573,-0.21126 -3.68077,-0.34127 v -3.56024 c 1.17005,0.0975 2.39697,0.19636 3.68077,0.29386 1.2838,0.0975 2.53511,0.18011 3.7539,0.24376 1.2188,0.0664 2.25072,0.0975 3.09575,0.0975 1.72122,0 3.10388,-0.0745 4.14392,-0.21938 1.04004,-0.1449 1.91758,-0.43064 2.63261,-0.85316 0.48752,-0.29251 0.84503,-0.68253 1.07254,-1.17005 0.22616,-0.48616 0.36564,-1.05494 0.41439,-1.70632 0.0488,-0.65002 0.0731,-1.3488 0.0731,-2.09633 0,-1.10369 -0.0325,-1.99883 -0.0975,-2.68001 -0.065,-0.68388 -0.23699,-1.21202 -0.5119,-1.58579 -0.27626,-0.37241 -0.72315,-0.64867 -1.34068,-0.82878 -0.61752,-0.17741 -1.44631,-0.31554 -2.48635,-0.41439 l -8.33658,-0.92629 c -1.56007,-0.19501 -2.81137,-0.52815 -3.75391,-0.99942 -0.94253,-0.47127 -1.64944,-1.07254 -2.12071,-1.80382 -0.47127,-0.73128 -0.78815,-1.60881 -0.95066,-2.63261 -0.16251,-1.023787 -0.24376,-2.169458 -0.24376,-3.435655 0,-2.047583 0.26814,-3.690254 0.80441,-4.925303 0.53627,-1.23505 1.32443,-2.176234 2.36447,-2.827615 1.04004,-0.648672 2.29947,-1.079314 3.77828,-1.290573 1.47881,-0.211258 3.177,-0.316887 5.09458,-0.316887 1.23505,0 2.5026,0.03115 3.80265,0.0975 1.30005,0.065 2.52698,0.153027 3.68077,0.266781 1.1538,0.113755 2.10446,0.25324 2.85199,0.415746 v 3.46139 c -0.84638,-0.130005 -1.82007,-0.245114 -2.92511,-0.341264 -1.10505,-0.0975 -2.23447,-0.170632 -3.38827,-0.219384 -1.15379,-0.04875 -2.25071,-0.07313 -3.29075,-0.07313 -1.78758,0 -3.23524,0.08125 -4.33893,0.24376 -1.10504,0.162507 -1.98258,0.455019 -2.63261,0.877536 -0.71502,0.422517 -1.16192,1.015666 -1.34067,1.778092 -0.17876,0.762427 -0.26814,1.681943 -0.26814,2.754487 0,1.267551 0.0894,2.250715 0.26814,2.949494 0.1774,0.700135 0.56741,1.187655 1.17004,1.462555 0.60128,0.27626 1.50319,0.4794 2.70574,0.6094 l 8.14158,0.92629 c 1.17004,0.0975 2.20061,0.25324 3.09575,0.4645 0.89378,0.21126 1.66433,0.56065 2.31571,1.04681 0.64868,0.48617 1.13755,1.18765 1.46256,2.09634 0.19501,0.45637 0.34127,0.95878 0.43877,1.51131 0.0975,0.55252 0.17063,1.16192 0.21938,1.8282 0.0488,0.66627 0.0731,1.40703 0.0731,2.21956 0,1.85123 -0.17875,3.38827 -0.53627,4.60707 -0.35751,1.21744 -0.86128,2.18435 -1.51131,2.89938 -0.65003,0.71639 -1.44631,1.25266 -2.38885,1.60882 -0.94253,0.35887 -1.9907,0.58638 -3.1445,0.68388 -1.1538,0.0961 -2.39697,0.1449 -3.72952,0.1449 z"
       inkscape:connector-curvature="0" />
    <path
       style="stroke-width:1.35422134"
       id="path652"
       d="M 266.24811,121.66857 V 88.125864 h 14.67435 c 2.14508,0 3.85953,0.26949 5.14333,0.805762 1.2838,0.536271 2.24259,1.275676 2.87636,2.218214 0.63378,0.942538 1.06442,2.057063 1.29193,3.340864 0.22616,1.282448 0.34127,2.68813 0.34127,4.215691 0,1.462555 -0.10563,2.835735 -0.31689,4.119545 -0.21126,1.2838 -0.6419,2.41322 -1.29193,3.38826 -0.65003,0.97504 -1.62507,1.73882 -2.92512,2.29134 -1.30005,0.55252 -3.03887,0.82743 -5.21646,0.82743 h -10.38417 v 12.33425 h -4.19267 z m 4.19267,-15.98929 h 9.01912 c 1.59256,0 2.85199,-0.13 3.77827,-0.39137 0.92629,-0.25866 1.61694,-0.67305 2.07196,-1.24317 0.45502,-0.56742 0.74753,-1.29058 0.87754,-2.16947 0.12865,-0.87753 0.19501,-1.933825 0.19501,-3.168875 0,-1.235049 -0.0569,-2.289988 -0.17064,-3.168878 -0.11375,-0.878889 -0.39001,-1.592564 -0.82878,-2.145086 -0.43877,-0.552522 -1.12129,-0.966914 -2.04758,-1.243175 -0.92629,-0.274907 -2.18572,-0.415746 -3.77828,-0.415746 h -9.11662 z"
       inkscape:connector-curvature="0" />
    <path
       style="stroke-width:1.35422134"
       id="path654"
       d="m 308.71108,121.66857 12.67551,-33.542706 h 5.26521 l 12.62676,33.542706 h -4.33892 l -3.46139,-9.16672 h -15.06436 l -3.46139,9.16672 z m 8.97036,-12.82177 h 12.52926 l -6.14275,-16.430763 h -0.24376 z"
       inkscape:connector-curvature="0" />
    <path
       style="stroke-width:1.35422134"
       id="path656"
       d="M 361.80197,121.66857 V 88.125864 h 15.40562 c 2.11259,0 3.79453,0.253239 5.04583,0.75701 1.24995,0.505124 2.17624,1.218799 2.77887,2.145086 0.60127,0.926288 0.99941,2.006956 1.19442,3.243361 0.19501,1.235049 0.29251,2.551353 0.29251,3.948909 0,1.202549 -0.10563,2.44572 -0.31689,3.72953 -0.21261,1.28244 -0.68253,2.44572 -1.4138,3.48576 -0.73128,1.04004 -1.87696,1.80382 -3.43702,2.28999 l 5.65523,13.94306 h -4.48518 l -5.55773,-14.08796 1.17005,0.58502 c -0.22751,0.065 -0.50512,0.11376 -0.82878,0.1449 -0.32501,0.0325 -0.76378,0.0487 -1.31631,0.0487 h -9.99415 v 13.30929 z m 4.19267,-16.96568 h 9.40913 c 1.62507,0 2.90074,-0.13001 3.82703,-0.38866 0.92629,-0.26001 1.60882,-0.66628 2.04758,-1.2188 0.43877,-0.55253 0.72316,-1.22693 0.85316,-2.02321 0.13001,-0.79628 0.19501,-1.746945 0.19501,-2.850636 0,-1.105044 -0.0569,-2.055708 -0.17063,-2.85199 -0.11376,-0.796282 -0.37377,-1.462559 -0.78003,-1.998831 -0.40762,-0.536271 -1.0563,-0.942538 -1.95008,-1.218799 -0.89379,-0.274907 -2.12071,-0.415746 -3.68077,-0.415746 h -9.7504 z"
       inkscape:connector-curvature="0" />
    <path
       style="stroke-width:1.35422134"
       id="path658"
       d="M 418.40301,121.66857 V 91.832368 h -10.57918 v -3.70515 h 25.39978 v 3.70515 h -10.62793 v 29.836202 z"
       inkscape:connector-curvature="0" />
    <path
       style="stroke-width:1.35422134"
       id="path660"
       d="M 448.87299,121.66857 461.5485,88.125864 h 5.26521 l 12.62676,33.542706 h -4.33892 l -3.46139,-9.16672 H 456.5758 l -3.46139,9.16672 z m 8.97036,-12.82177 h 12.52926 l -6.14275,-16.430763 h -0.24376 z"
       inkscape:connector-curvature="0" />
    <path
       style="stroke-width:1.35422134"
       id="path662"
       d="M 501.96524,121.66857 V 88.125864 h 4.29017 l 17.40445,25.693646 h 0.19501 V 88.125864 h 4.04641 v 33.542706 h -4.04641 L 506.20666,95.488766 h -0.19501 v 26.179804 z"
       inkscape:connector-curvature="0" />
    <path
       style="stroke-width:1.35422134"
       id="path664"
       d="M 581.52574,121.66857 V 88.125864 h 14.67434 c 2.14509,0 3.85954,0.26949 5.14334,0.805762 1.2838,0.536271 2.24259,1.275676 2.87636,2.218214 0.63378,0.942538 1.06442,2.057063 1.29193,3.340864 0.22616,1.282448 0.34126,2.68813 0.34126,4.215691 0,1.462555 -0.10562,2.835735 -0.31688,4.119545 -0.21126,1.2838 -0.6419,2.41322 -1.29193,3.38826 -0.65003,0.97504 -1.62507,1.73882 -2.92512,2.29134 -1.30005,0.55252 -3.03887,0.82743 -5.21646,0.82743 h -10.38417 v 12.33425 h -4.19267 z m 4.19267,-15.98929 h 9.01912 c 1.59256,0 2.85199,-0.13 3.77827,-0.39137 0.92629,-0.25866 1.61694,-0.67305 2.07196,-1.24317 0.45502,-0.56742 0.74753,-1.29058 0.87754,-2.16947 0.12865,-0.87753 0.195,-1.933825 0.195,-3.168875 0,-1.235049 -0.0569,-2.289988 -0.17063,-3.168878 -0.11375,-0.878889 -0.39001,-1.592564 -0.82878,-2.145086 -0.43877,-0.552522 -1.1213,-0.966914 -2.04758,-1.243175 -0.92629,-0.274907 -2.18572,-0.415746 -3.77828,-0.415746 h -9.11662 z"
       inkscape:connector-curvature="0" />
    <path
       style="stroke-width:1.35422134"
       id="path666"
       d="M 629.54643,121.66857 V 88.125864 h 15.40562 c 2.11394,0 3.79318,0.253239 5.04719,0.75701 1.2513,0.505124 2.17623,1.218799 2.7775,2.145086 0.60263,0.926288 0.99942,2.006956 1.19578,3.243361 0.19636,1.236404 0.29116,2.551353 0.29116,3.948909 0,1.202549 -0.10563,2.44572 -0.31418,3.72953 -0.21126,1.28244 -0.68253,2.44572 -1.41516,3.48576 -0.72993,1.04004 -1.8756,1.80382 -3.43566,2.28999 l 5.65523,13.94306 h -4.48789 l -5.55773,-14.08796 1.1687,0.58502 c -0.22751,0.065 -0.50242,0.11376 -0.82743,0.1449 -0.32502,0.0325 -0.76378,0.0487 -1.31766,0.0487 h -9.99415 v 13.30929 z m 4.19267,-16.96568 h 9.40913 c 1.62371,0 2.9021,-0.13001 3.82703,-0.38866 0.92629,-0.26001 1.60882,-0.66628 2.04758,-1.2188 0.43877,-0.55253 0.7218,-1.22693 0.85452,-2.02321 0.13,-0.79628 0.19365,-1.746945 0.19365,-2.850636 0,-1.105044 -0.0555,-2.055708 -0.16928,-2.85199 -0.11375,-0.796282 -0.37512,-1.462559 -0.78003,-1.998831 -0.40762,-0.536271 -1.05765,-0.942538 -1.94872,-1.218799 -0.89379,-0.274907 -2.12071,-0.415746 -3.68213,-0.415746 h -9.7504 v 12.966672 z"
       inkscape:connector-curvature="0" />
    <path
       style="stroke-width:1.35422134"
       id="path668"
       d="m 691.55894,122.05859 c -2.60011,0 -4.75332,-0.13949 -6.45964,-0.41575 -1.70632,-0.2749 -3.05648,-0.77055 -4.04641,-1.48693 -0.99129,-0.71368 -1.71445,-1.71445 -2.16947,-2.99825 -0.45637,-1.2838 -0.74888,-2.92512 -0.87753,-4.92395 -0.13001,-2.00018 -0.19501,-4.4432 -0.19501,-7.33717 0,-2.89397 0.065,-5.338339 0.19501,-7.33717 0.13,-2.000185 0.42252,-3.640147 0.87753,-4.925303 0.45502,-1.282448 1.17682,-2.283217 2.16947,-2.996892 0.98993,-0.715029 2.34145,-1.212028 4.04641,-1.488289 1.70496,-0.276261 3.85953,-0.414392 6.45964,-0.414392 2.6001,0 4.75467,0.138131 6.46099,0.414392 1.70631,0.276261 3.05512,0.771906 4.04641,1.488289 0.98994,0.713675 1.71444,1.714444 2.16946,2.996892 0.45502,1.285156 0.74753,2.925118 0.87754,4.925303 0.12865,1.998831 0.19501,4.4432 0.19501,7.33717 0,2.89397 -0.0664,5.33699 -0.19501,7.33717 -0.13136,1.99883 -0.42252,3.64015 -0.87754,4.92395 -0.45502,1.2838 -1.17817,2.28457 -2.16946,2.99825 -0.99129,0.71503 -2.34145,1.21203 -4.04641,1.48693 -1.70632,0.27762 -3.86089,0.41575 -6.46099,0.41575 z m 0,-3.60765 c 1.78757,0 3.26638,-0.0555 4.43642,-0.17063 1.17005,-0.11375 2.09634,-0.38189 2.77887,-0.80576 0.68252,-0.42116 1.20255,-1.11182 1.56006,-2.07061 0.35751,-0.95743 0.5769,-2.28321 0.6568,-3.97328 0.0826,-1.69007 0.12323,-3.86766 0.12323,-6.53276 0,-2.66511 -0.0406,-4.8427 -0.12323,-6.532768 -0.0813,-1.690069 -0.30064,-3.014497 -0.6568,-3.973286 -0.35887,-0.958789 -0.87754,-1.650796 -1.56006,-2.071958 -0.68253,-0.421163 -1.60882,-0.690653 -2.77887,-0.805762 -1.17004,-0.112401 -2.64885,-0.169278 -4.43642,-0.169278 -1.78758,0 -3.25826,0.05688 -4.41206,0.169278 -1.15515,0.115109 -2.08008,0.383244 -2.77886,0.805762 -0.70013,0.422517 -1.2188,1.113169 -1.56006,2.071958 -0.34127,0.958789 -0.56065,2.283217 -0.6568,3.973286 -0.0975,1.690068 -0.14626,3.867658 -0.14626,6.532768 0,2.6651 0.0488,4.84269 0.14626,6.53276 0.0961,1.69007 0.31553,3.01585 0.6568,3.97328 0.34126,0.95879 0.86128,1.6508 1.56006,2.07061 0.69878,0.42252 1.62371,0.69201 2.77886,0.80576 1.1538,0.11511 2.62448,0.17063 4.41206,0.17063 z"
       inkscape:connector-curvature="0" />
    <path
       style="stroke-width:1.35422134"
       id="path670"
       d="M 737.33703,121.66857 V 91.832368 h -10.57917 v -3.70515 h 25.39977 v 3.70515 H 741.5297 v 29.836202 z"
       inkscape:connector-curvature="0" />
    <path
       style="stroke-width:1.35422134"
       id="path672"
       d="m 787.3078,122.05859 c -2.6001,0 -4.75331,-0.13949 -6.45963,-0.41575 -1.70632,-0.2749 -3.05648,-0.77055 -4.04642,-1.48693 -0.99129,-0.71368 -1.71444,-1.71445 -2.16946,-2.99825 -0.45637,-1.2838 -0.74888,-2.92512 -0.87753,-4.92395 -0.13001,-2.00018 -0.19501,-4.4432 -0.19501,-7.33717 0,-2.89397 0.065,-5.338339 0.19501,-7.33717 0.13,-2.000185 0.42251,-3.640147 0.87753,-4.925303 0.45502,-1.282448 1.17682,-2.283217 2.16946,-2.996892 0.98994,-0.715029 2.34145,-1.212028 4.04642,-1.488289 1.70496,-0.276261 3.85953,-0.414392 6.45963,-0.414392 2.60011,0 4.75467,0.138131 6.46099,0.414392 1.70632,0.276261 3.05513,0.771906 4.04642,1.488289 0.98993,0.713675 1.71444,1.714444 2.16946,2.996892 0.45502,1.285156 0.74753,2.925118 0.87753,4.925303 0.12866,1.998831 0.19501,4.4432 0.19501,7.33717 0,2.89397 -0.0664,5.33699 -0.19501,7.33717 -0.13136,1.99883 -0.42251,3.64015 -0.87753,4.92395 -0.45502,1.2838 -1.17817,2.28457 -2.16946,2.99825 -0.99129,0.71503 -2.34145,1.21203 -4.04642,1.48693 -1.70632,0.27762 -3.86088,0.41575 -6.46099,0.41575 z m 0,-3.60765 c 1.78757,0 3.26638,-0.0555 4.43643,-0.17063 1.17005,-0.11375 2.09634,-0.38189 2.77886,-0.80576 0.68253,-0.42116 1.20255,-1.11182 1.56007,-2.07061 0.35751,-0.95743 0.5769,-2.28321 0.65679,-3.97328 0.0826,-1.69007 0.12324,-3.86766 0.12324,-6.53276 0,-2.66511 -0.0406,-4.8427 -0.12324,-6.532768 -0.0813,-1.690069 -0.30063,-3.014497 -0.65679,-3.973286 -0.35887,-0.958789 -0.87754,-1.650796 -1.56007,-2.071958 -0.68252,-0.421163 -1.60881,-0.690653 -2.77886,-0.805762 -1.17005,-0.112401 -2.64886,-0.169278 -4.43643,-0.169278 -1.78757,0 -3.25825,0.05688 -4.41205,0.169278 -1.15515,0.115109 -2.08008,0.383244 -2.77886,0.805762 -0.70014,0.422517 -1.2188,1.113169 -1.56007,2.071958 -0.34126,0.958789 -0.56064,2.283217 -0.65679,3.973286 -0.0975,1.690068 -0.14626,3.867658 -0.14626,6.532768 0,2.6651 0.0487,4.84269 0.14626,6.53276 0.0961,1.69007 0.31553,3.01585 0.65679,3.97328 0.34127,0.95879 0.86129,1.6508 1.56007,2.07061 0.69878,0.42252 1.62371,0.69201 2.77886,0.80576 1.1538,0.11511 2.62448,0.17063 4.41205,0.17063 z"
       inkscape:connector-curvature="0" />
    <path
       style="stroke-width:1.35422134"
       id="path674"
       d="m 838.25361,122.05859 c -2.34009,0 -4.30778,-0.13949 -5.89899,-0.41575 -1.59256,-0.2749 -2.89261,-0.76107 -3.90016,-1.46256 -1.00754,-0.69878 -1.77809,-1.68871 -2.31571,-2.97251 -0.53628,-1.28245 -0.90192,-2.93325 -1.09692,-4.94833 -0.19637,-2.01508 -0.29252,-4.46757 -0.29252,-7.36154 0,-2.89398 0.0961,-5.338345 0.29252,-7.337176 0.195,-2.000185 0.56064,-3.640147 1.09692,-4.925303 0.53627,-1.282448 1.30817,-2.283217 2.31571,-2.996892 1.00755,-0.715029 2.3076,-1.212028 3.90016,-1.488289 1.59257,-0.276261 3.56025,-0.414392 5.89899,-0.414392 0.91004,0 1.8431,0.03115 2.80324,0.0975 0.95743,0.065 1.87695,0.144902 2.75313,0.24376 0.87754,0.0975 1.64132,0.227509 2.29134,0.388662 v 3.363885 c -0.74888,-0.0975 -1.51943,-0.186882 -2.31572,-0.266781 -0.79628,-0.08261 -1.58443,-0.139485 -2.36447,-0.171986 -0.78003,-0.03115 -1.47881,-0.0474 -2.09633,-0.0474 -1.88643,0 -3.46139,0.08125 -4.72894,0.24376 -1.26755,0.162506 -2.27509,0.479394 -3.02127,0.950663 -0.74888,0.472623 -1.30953,1.202549 -1.68194,2.193839 -0.37377,0.99129 -0.62701,2.307593 -0.75701,3.948909 -0.13001,1.641321 -0.19501,3.713271 -0.19501,6.215871 0,2.50261 0.065,4.57456 0.19501,6.21588 0.13,1.64132 0.38189,2.95762 0.75701,3.94891 0.37241,0.99129 0.93306,1.72257 1.68194,2.19384 0.74753,0.47262 1.75507,0.78816 3.02127,0.95066 1.2689,0.16251 2.84386,0.24376 4.72894,0.24376 1.10369,0 2.30759,-0.0487 3.60764,-0.1449 1.30006,-0.0975 2.42,-0.21126 3.36389,-0.34126 v 3.46003 c -0.68388,0.13136 -1.48829,0.23699 -2.41322,0.31689 -0.92764,0.0826 -1.87695,0.15303 -2.85199,0.21938 -0.97369,0.0664 -1.89862,0.0989 -2.77751,0.0989 z"
       inkscape:connector-curvature="0" />
    <path
       style="stroke-width:1.35422134"
       id="path676"
       d="m 882.7628,122.05859 c -2.6001,0 -4.75331,-0.13949 -6.45963,-0.41575 -1.70632,-0.2749 -3.05648,-0.77055 -4.04642,-1.48693 -0.99129,-0.71368 -1.71444,-1.71445 -2.16946,-2.99825 -0.45637,-1.2838 -0.74888,-2.92512 -0.87753,-4.92395 -0.13001,-2.00018 -0.19501,-4.4432 -0.19501,-7.33717 0,-2.89397 0.065,-5.338339 0.19501,-7.33717 0.13,-2.000185 0.42251,-3.640147 0.87753,-4.925303 0.45502,-1.282448 1.17682,-2.283217 2.16946,-2.996892 0.98994,-0.715029 2.34145,-1.212028 4.04642,-1.488289 1.70496,-0.276261 3.85953,-0.414392 6.45963,-0.414392 2.60011,0 4.75467,0.138131 6.46099,0.414392 1.70632,0.276261 3.05513,0.771906 4.04642,1.488289 0.98993,0.713675 1.71444,1.714444 2.16946,2.996892 0.45502,1.285156 0.74753,2.925118 0.87754,4.925303 0.12865,1.998831 0.195,4.4432 0.195,7.33717 0,2.89397 -0.0663,5.33699 -0.195,7.33717 -0.13136,1.99883 -0.42252,3.64015 -0.87754,4.92395 -0.45502,1.2838 -1.17817,2.28457 -2.16946,2.99825 -0.99129,0.71503 -2.34145,1.21203 -4.04642,1.48693 -1.70632,0.27762 -3.86088,0.41575 -6.46099,0.41575 z m 0,-3.60765 c 1.78758,0 3.26639,-0.0555 4.43643,-0.17063 1.17005,-0.11375 2.09634,-0.38189 2.77887,-0.80576 0.68252,-0.42116 1.20254,-1.11182 1.56006,-2.07061 0.35751,-0.95743 0.5769,-2.28321 0.6568,-3.97328 0.0826,-1.69007 0.12323,-3.86766 0.12323,-6.53276 0,-2.66511 -0.0406,-4.8427 -0.12323,-6.532768 -0.0813,-1.690069 -0.30064,-3.014497 -0.6568,-3.973286 -0.35887,-0.958789 -0.87754,-1.650796 -1.56006,-2.071958 -0.68253,-0.421163 -1.60882,-0.690653 -2.77887,-0.805762 -1.17004,-0.112401 -2.64885,-0.169278 -4.43643,-0.169278 -1.78757,0 -3.25825,0.05688 -4.41205,0.169278 -1.15515,0.115109 -2.08008,0.383244 -2.77886,0.805762 -0.70013,0.422517 -1.2188,1.113169 -1.56006,2.071958 -0.34127,0.958789 -0.56065,2.283217 -0.6568,3.973286 -0.0975,1.690068 -0.14626,3.867658 -0.14626,6.532768 0,2.6651 0.0488,4.84269 0.14626,6.53276 0.0961,1.69007 0.31553,3.01585 0.6568,3.97328 0.34126,0.95879 0.86128,1.6508 1.56006,2.07061 0.69878,0.42252 1.62371,0.69201 2.77886,0.80576 1.1538,0.11511 2.62448,0.17063 4.41205,0.17063 z"
       inkscape:connector-curvature="0" />
    <path
       style="stroke-width:1.35422134"
       id="path678"
       d="M 921.37436,121.66857 V 88.125864 h 4.19403 v 29.837556 h 15.64938 v 3.7038 h -19.84341 z"
       inkscape:connector-curvature="0" />
  </g>
</svg>
