<?xml version="1.0" encoding="UTF-8" standalone="no"?>
<svg
   xmlns:dc="http://purl.org/dc/elements/1.1/"
   xmlns:cc="http://creativecommons.org/ns#"
   xmlns:rdf="http://www.w3.org/1999/02/22-rdf-syntax-ns#"
   xmlns:svg="http://www.w3.org/2000/svg"
   xmlns="http://www.w3.org/2000/svg"
   xmlns:sodipodi="http://sodipodi.sourceforge.net/DTD/sodipodi-0.dtd"
   xmlns:inkscape="http://www.inkscape.org/namespaces/inkscape"
   width="500"
   height="500"
   viewBox="0 0 500 500"
   fill="none"
   version="1.1"
   id="svg8"
   sodipodi:docname="sparta-text-sq-light.svg"
   inkscape:version="0.92.4 (5da689c313, 2019-01-14)">
  <metadata
     id="metadata14">
    <rdf:RDF>
      <cc:Work
         rdf:about="">
        <dc:format>image/svg+xml</dc:format>
        <dc:type
           rdf:resource="http://purl.org/dc/dcmitype/StillImage" />
      </cc:Work>
    </rdf:RDF>
  </metadata>
  <defs
     id="defs12" />
  <sodipodi:namedview
     pagecolor="#ffffff"
     bordercolor="#666666"
     borderopacity="1"
     objecttolerance="10"
     gridtolerance="10"
     guidetolerance="10"
     inkscape:pageopacity="0"
     inkscape:pageshadow="2"
     inkscape:window-width="2560"
     inkscape:window-height="1356"
     id="namedview10"
     showgrid="false"
     inkscape:zoom="0.944"
     inkscape:cx="-15.163441"
     inkscape:cy="155.97775"
     inkscape:window-x="1912"
     inkscape:window-y="82"
     inkscape:window-maximized="1"
     inkscape:current-layer="g456" />
  <ellipse
     cx="250"
     cy="162.5"
     rx="119"
     ry="117.5"
     fill="black"
     id="ellipse2" />
  <path
     d="M375.971 162.381C377.46 228.854 321.948 289.048 249.466 289C177.102 288.928 122.233 228.758 123.008 162.142C123.818 91.8601 179.402 35.9523 249.99 36C319.887 36.0478 375.971 92.3018 375.971 162.381ZM230.993 269.003C231.661 268.86 232.316 268.717 232.984 268.585C232.078 230.919 228.586 193.134 238.18 156.435C236.523 154.991 235.76 153.964 234.747 153.498C229.527 151.087 224.319 148.639 218.957 146.55C209.542 142.885 205.907 136.582 207.599 125.276C209.673 126.279 211.532 127.258 213.463 128.093C219.815 130.851 226.059 133.955 232.59 136.176C241.254 139.124 242.947 141.369 241.6 150.621C240.682 156.913 239.514 163.192 239.038 169.532C238.597 175.322 244.067 183.237 248.464 184.18C252.278 185.004 258.165 180.073 260.025 173.782C260.775 171.251 260.442 168.302 260.168 165.58C259.548 159.253 258.547 152.973 257.927 146.646C257.391 141.238 260.239 138.396 265.256 136.617C272.335 134.122 279.188 130.971 286.124 128.081C288.019 127.293 289.89 126.41 292.011 125.455C292.989 138.217 289.747 143.028 278.926 147.04C273.074 149.212 267.497 152.114 261.038 155.038C270.679 193.194 267.02 231.075 267.58 269.015C270.381 265.827 272.335 262.473 274.063 259.011C275.565 255.99 276.769 252.826 278.163 249.746C284.789 235.086 291.69 220.545 297.911 205.717C299.841 201.097 300.675 195.713 300.735 190.663C301.009 165.795 300.985 140.927 300.783 116.059C300.735 110.126 300.592 103.894 298.792 98.3546C295.575 88.4457 292.691 77.7847 286.744 69.5591C276.042 54.7554 259.691 50.7082 242.065 53.0123C227.99 54.8509 215.548 61.2379 209.16 74.0479C202.451 87.5026 198.196 102.163 198.303 117.671C198.47 142.145 198.268 166.607 198.446 191.081C198.47 194.985 198.899 199.199 200.425 202.709C209.256 223.112 218.432 243.359 227.573 263.631C228.431 265.541 229.837 267.224 230.993 269.003Z"
     fill="#FB2715"
     id="path4" />
  <g
     transform="matrix(1.5682252,0,0,1.5682252,-986.61385,-1677.6893)"
     id="g456"
     style="fill:#000000">
    <g
       id="g864"
       transform="translate(14.65104,3.825981)"
       style="fill:#ffffff">
      <path
         id="path426"
         d="m 668.826,1310.095 c -0.889,0 -1.861,-0.023 -2.916,-0.072 -1.057,-0.048 -2.082,-0.107 -3.078,-0.18 -0.996,-0.073 -1.902,-0.155 -2.719,-0.252 v -2.628 c 0.865,0.072 1.77,0.144 2.719,0.216 0.947,0.072 1.871,0.133 2.771,0.18 0.9,0.049 1.662,0.072 2.287,0.072 1.271,0 2.291,-0.054 3.059,-0.162 0.768,-0.107 1.416,-0.317 1.945,-0.629 0.359,-0.217 0.623,-0.504 0.791,-0.865 0.168,-0.359 0.27,-0.779 0.307,-1.26 0.035,-0.479 0.053,-0.995 0.053,-1.547 0,-0.816 -0.023,-1.477 -0.07,-1.98 -0.049,-0.504 -0.176,-0.895 -0.379,-1.17 -0.205,-0.275 -0.535,-0.48 -0.99,-0.612 -0.455,-0.132 -1.068,-0.233 -1.836,-0.306 l -6.156,-0.684 c -1.152,-0.145 -2.076,-0.391 -2.771,-0.738 -0.697,-0.348 -1.219,-0.793 -1.566,-1.332 -0.348,-0.541 -0.582,-1.188 -0.701,-1.944 -0.121,-0.756 -0.18,-1.603 -0.18,-2.538 0,-1.512 0.197,-2.724 0.594,-3.636 0.395,-0.912 0.977,-1.608 1.746,-2.089 0.768,-0.479 1.697,-0.797 2.789,-0.953 1.092,-0.156 2.346,-0.234 3.762,-0.234 0.912,0 1.848,0.024 2.809,0.072 0.959,0.049 1.865,0.114 2.719,0.197 0.852,0.085 1.553,0.188 2.105,0.307 v 2.557 c -0.625,-0.096 -1.344,-0.181 -2.16,-0.252 -0.816,-0.072 -1.65,-0.127 -2.502,-0.162 -0.852,-0.037 -1.662,-0.055 -2.43,-0.055 -1.32,0 -2.389,0.061 -3.205,0.18 -0.816,0.121 -1.463,0.337 -1.943,0.648 -0.527,0.312 -0.859,0.75 -0.99,1.314 -0.133,0.563 -0.197,1.242 -0.197,2.033 0,0.937 0.064,1.662 0.197,2.178 0.131,0.518 0.42,0.877 0.863,1.08 0.445,0.205 1.111,0.355 1.998,0.451 l 6.014,0.684 c 0.863,0.072 1.625,0.186 2.285,0.342 0.66,0.156 1.23,0.414 1.711,0.773 0.479,0.36 0.84,0.877 1.078,1.549 0.145,0.336 0.254,0.708 0.324,1.115 0.072,0.408 0.127,0.859 0.162,1.351 0.037,0.492 0.055,1.038 0.055,1.638 0,1.368 -0.133,2.502 -0.396,3.402 -0.263,0.9 -0.637,1.614 -1.115,2.142 -0.48,0.528 -1.068,0.925 -1.764,1.188 -0.697,0.264 -1.471,0.432 -2.322,0.504 -0.856,0.072 -1.774,0.107 -2.757,0.107 z"
         inkscape:connector-curvature="0" />
      <path
         id="path428"
         d="m 695.178,1309.808 v -24.769 h 10.836 c 1.584,0 2.85,0.198 3.797,0.595 0.947,0.396 1.656,0.941 2.125,1.637 0.467,0.697 0.785,1.52 0.953,2.467 0.168,0.948 0.252,1.986 0.252,3.113 0,1.08 -0.078,2.095 -0.234,3.043 -0.156,0.947 -0.473,1.781 -0.953,2.502 -0.48,0.72 -1.201,1.283 -2.16,1.691 -0.961,0.408 -2.244,0.612 -3.852,0.612 h -7.668 v 9.108 h -3.096 z m 3.095,-11.809 h 6.66 c 1.176,0 2.105,-0.096 2.789,-0.288 0.684,-0.191 1.193,-0.497 1.529,-0.918 0.336,-0.419 0.553,-0.954 0.648,-1.603 0.096,-0.647 0.145,-1.427 0.145,-2.34 0,-0.911 -0.043,-1.691 -0.127,-2.34 -0.084,-0.647 -0.287,-1.176 -0.611,-1.584 -0.324,-0.407 -0.828,-0.713 -1.512,-0.918 -0.684,-0.203 -1.615,-0.306 -2.789,-0.306 h -6.732 z"
         inkscape:connector-curvature="0" />
      <path
         id="path430"
         d="m 726.533,1309.808 9.359,-24.769 h 3.889 l 9.324,24.769 H 745.9 l -2.555,-6.769 H 732.22 l -2.555,6.769 z m 6.623,-9.469 h 9.252 l -4.535,-12.132 h -0.18 z"
         inkscape:connector-curvature="0" />
      <path
         id="path432"
         d="m 765.736,1309.808 v -24.769 h 11.377 c 1.559,0 2.801,0.187 3.725,0.558 0.924,0.373 1.607,0.9 2.053,1.584 0.443,0.685 0.738,1.482 0.883,2.395 0.143,0.912 0.215,1.885 0.215,2.916 0,0.889 -0.078,1.807 -0.234,2.754 -0.156,0.948 -0.504,1.807 -1.043,2.574 -0.541,0.768 -1.387,1.332 -2.539,1.691 l 4.176,10.297 h -3.311 l -4.105,-10.404 0.865,0.432 c -0.168,0.049 -0.373,0.084 -0.613,0.108 -0.24,0.024 -0.562,0.036 -0.971,0.036 h -7.381 v 9.828 z m 3.096,-12.529 h 6.949 c 1.199,0 2.141,-0.096 2.826,-0.288 0.684,-0.191 1.188,-0.492 1.512,-0.9 0.324,-0.408 0.533,-0.905 0.629,-1.494 0.096,-0.588 0.145,-1.289 0.145,-2.105 0,-0.816 -0.043,-1.518 -0.127,-2.105 -0.084,-0.587 -0.275,-1.08 -0.574,-1.477 -0.301,-0.396 -0.781,-0.695 -1.441,-0.9 -0.66,-0.203 -1.566,-0.306 -2.717,-0.306 h -7.201 v 9.575 z"
         inkscape:connector-curvature="0" />
      <path
         id="path434"
         d="m 807.533,1309.808 v -22.033 h -7.812 v -2.735 h 18.756 v 2.735 h -7.848 v 22.033 z"
         inkscape:connector-curvature="0" />
      <path
         id="path436"
         d="m 830.033,1309.808 9.359,-24.769 h 3.889 l 9.324,24.769 H 849.4 l -2.555,-6.769 H 835.72 l -2.555,6.769 z m 6.623,-9.469 h 9.252 l -4.535,-12.132 h -0.18 z"
         inkscape:connector-curvature="0" />
      <path
         id="path438"
         d="m 869.236,1309.808 v -24.769 h 3.168 l 12.854,18.972 h 0.143 v -18.972 h 2.988 v 24.769 H 885.4 l -13.031,-19.332 h -0.145 v 19.332 z"
         inkscape:connector-curvature="0" />
    </g>
    <g
       id="g874"
       transform="translate(-1.9439605,3.825981)"
       style="fill:#ffffff">
      <path
         id="path440"
         d="m 660.582,1351.808 v -24.769 h 10.836 c 1.584,0 2.85,0.198 3.797,0.595 0.949,0.396 1.656,0.941 2.125,1.637 0.469,0.697 0.785,1.52 0.953,2.467 0.168,0.948 0.252,1.986 0.252,3.113 0,1.08 -0.078,2.095 -0.232,3.043 -0.156,0.947 -0.475,1.781 -0.955,2.502 -0.48,0.72 -1.199,1.283 -2.16,1.691 -0.959,0.408 -2.244,0.612 -3.852,0.612 h -7.668 v 9.108 h -3.096 z m 3.096,-11.809 h 6.66 c 1.176,0 2.105,-0.096 2.789,-0.288 0.686,-0.191 1.195,-0.497 1.531,-0.918 0.336,-0.419 0.551,-0.954 0.648,-1.603 0.094,-0.647 0.143,-1.427 0.143,-2.34 0,-0.911 -0.041,-1.691 -0.125,-2.34 -0.084,-0.647 -0.289,-1.176 -0.613,-1.584 -0.324,-0.407 -0.828,-0.713 -1.512,-0.918 -0.684,-0.203 -1.613,-0.306 -2.789,-0.306 h -6.732 z"
         inkscape:connector-curvature="0" />
      <path
         id="path442"
         d="m 695.213,1351.808 v -24.769 h 11.377 c 1.559,0 2.801,0.187 3.727,0.558 0.922,0.373 1.607,0.9 2.051,1.584 0.443,0.685 0.738,1.482 0.883,2.395 0.143,0.912 0.215,1.885 0.215,2.916 0,0.889 -0.078,1.807 -0.232,2.754 -0.158,0.948 -0.506,1.807 -1.045,2.574 -0.539,0.767 -1.387,1.332 -2.537,1.691 l 4.176,10.297 h -3.312 l -4.104,-10.404 0.863,0.432 c -0.168,0.049 -0.373,0.084 -0.611,0.108 -0.24,0.024 -0.564,0.036 -0.973,0.036 h -7.381 v 9.828 z m 3.096,-12.529 h 6.949 c 1.199,0 2.143,-0.096 2.826,-0.288 0.684,-0.191 1.188,-0.492 1.512,-0.9 0.324,-0.408 0.533,-0.905 0.629,-1.494 0.096,-0.588 0.145,-1.289 0.145,-2.105 0,-0.816 -0.041,-1.518 -0.125,-2.105 -0.086,-0.588 -0.277,-1.08 -0.576,-1.477 -0.301,-0.396 -0.781,-0.695 -1.441,-0.9 -0.66,-0.203 -1.564,-0.306 -2.717,-0.306 h -7.201 v 9.575 z"
         inkscape:connector-curvature="0" />
      <path
         id="path444"
         d="m 740.178,1352.095 c -1.92,0 -3.51,-0.102 -4.77,-0.306 -1.262,-0.204 -2.258,-0.569 -2.988,-1.099 -0.732,-0.527 -1.268,-1.266 -1.604,-2.213 -0.336,-0.948 -0.551,-2.16 -0.646,-3.637 -0.098,-1.476 -0.145,-3.281 -0.145,-5.418 0,-2.136 0.047,-3.941 0.145,-5.418 0.096,-1.476 0.311,-2.688 0.646,-3.636 0.335,-0.948 0.871,-1.687 1.604,-2.214 0.73,-0.527 1.727,-0.895 2.988,-1.098 1.26,-0.204 2.85,-0.307 4.77,-0.307 1.92,0 3.51,0.103 4.77,0.307 1.26,0.203 2.256,0.57 2.988,1.098 0.732,0.528 1.266,1.266 1.602,2.214 0.336,0.948 0.553,2.16 0.648,3.636 0.096,1.477 0.145,3.282 0.145,5.418 0,2.137 -0.049,3.942 -0.145,5.418 -0.096,1.477 -0.312,2.688 -0.648,3.637 -0.336,0.947 -0.869,1.686 -1.602,2.213 -0.732,0.529 -1.729,0.895 -2.988,1.099 -1.259,0.204 -2.85,0.306 -4.77,0.306 z m 0,-2.664 c 1.318,0 2.412,-0.041 3.275,-0.125 0.863,-0.084 1.549,-0.282 2.053,-0.595 0.504,-0.312 0.887,-0.821 1.152,-1.53 0.264,-0.707 0.426,-1.686 0.484,-2.934 0.061,-1.248 0.09,-2.855 0.09,-4.824 0,-1.967 -0.029,-3.576 -0.09,-4.824 -0.059,-1.247 -0.221,-2.225 -0.484,-2.934 -0.266,-0.707 -0.648,-1.218 -1.152,-1.529 -0.504,-0.312 -1.189,-0.51 -2.053,-0.595 -0.863,-0.083 -1.957,-0.126 -3.275,-0.126 -1.32,0 -2.406,0.043 -3.258,0.126 -0.854,0.085 -1.537,0.282 -2.053,0.595 -0.516,0.312 -0.9,0.822 -1.152,1.529 -0.252,0.709 -0.414,1.687 -0.486,2.934 -0.07,1.248 -0.107,2.857 -0.107,4.824 0,1.969 0.037,3.576 0.107,4.824 0.072,1.248 0.234,2.227 0.486,2.934 0.252,0.709 0.637,1.219 1.152,1.53 0.516,0.312 1.199,0.511 2.053,0.595 0.851,0.084 1.937,0.125 3.258,0.125 z"
         inkscape:connector-curvature="0" />
      <path
         id="path446"
         d="m 773.154,1351.808 v -22.033 h -7.812 v -2.735 h 18.756 v 2.735 h -7.848 v 22.033 z"
         inkscape:connector-curvature="0" />
      <path
         id="path448"
         d="m 809.227,1352.095 c -1.922,0 -3.512,-0.102 -4.771,-0.306 -1.259,-0.204 -2.256,-0.569 -2.988,-1.099 -0.732,-0.527 -1.266,-1.266 -1.602,-2.213 -0.336,-0.948 -0.553,-2.16 -0.648,-3.637 -0.096,-1.476 -0.143,-3.281 -0.143,-5.418 0,-2.136 0.047,-3.941 0.143,-5.418 0.096,-1.476 0.312,-2.688 0.648,-3.636 0.336,-0.948 0.869,-1.687 1.602,-2.214 0.733,-0.527 1.729,-0.895 2.988,-1.098 1.26,-0.204 2.85,-0.307 4.771,-0.307 1.918,0 3.51,0.103 4.77,0.307 1.26,0.203 2.256,0.57 2.988,1.098 0.73,0.527 1.266,1.266 1.602,2.214 0.336,0.948 0.551,2.16 0.648,3.636 0.096,1.477 0.143,3.282 0.143,5.418 0,2.137 -0.047,3.942 -0.143,5.418 -0.098,1.477 -0.312,2.688 -0.648,3.637 -0.336,0.947 -0.871,1.686 -1.602,2.213 -0.732,0.529 -1.729,0.895 -2.988,1.099 -1.259,0.204 -2.852,0.306 -4.77,0.306 z m 0,-2.664 c 1.318,0 2.41,-0.041 3.275,-0.125 0.863,-0.084 1.547,-0.282 2.051,-0.595 0.506,-0.312 0.889,-0.821 1.152,-1.53 0.264,-0.707 0.426,-1.686 0.486,-2.934 0.06,-1.248 0.09,-2.855 0.09,-4.824 0,-1.967 -0.029,-3.576 -0.09,-4.824 -0.061,-1.247 -0.223,-2.225 -0.486,-2.934 -0.264,-0.707 -0.646,-1.218 -1.152,-1.529 -0.504,-0.312 -1.188,-0.51 -2.051,-0.595 -0.865,-0.083 -1.957,-0.126 -3.275,-0.126 -1.32,0 -2.408,0.043 -3.26,0.126 -0.852,0.085 -1.535,0.282 -2.051,0.595 -0.518,0.312 -0.9,0.822 -1.152,1.529 -0.252,0.709 -0.414,1.687 -0.486,2.934 -0.072,1.248 -0.107,2.857 -0.107,4.824 0,1.969 0.035,3.576 0.107,4.824 0.072,1.248 0.234,2.227 0.486,2.934 0.252,0.709 0.635,1.219 1.152,1.53 0.516,0.312 1.199,0.511 2.051,0.595 0.852,0.084 1.939,0.125 3.26,0.125 z"
         inkscape:connector-curvature="0" />
      <path
         id="path450"
         d="m 846.018,1352.095 c -1.729,0 -3.18,-0.102 -4.355,-0.306 -1.178,-0.204 -2.137,-0.563 -2.881,-1.08 -0.744,-0.516 -1.314,-1.247 -1.709,-2.196 -0.396,-0.947 -0.666,-2.165 -0.811,-3.654 -0.145,-1.487 -0.217,-3.299 -0.217,-5.436 0,-2.136 0.072,-3.941 0.217,-5.418 0.145,-1.476 0.414,-2.688 0.811,-3.636 0.395,-0.948 0.965,-1.687 1.709,-2.214 0.744,-0.527 1.703,-0.895 2.881,-1.098 1.176,-0.204 2.627,-0.307 4.355,-0.307 0.672,0 1.361,0.024 2.07,0.072 0.707,0.049 1.385,0.107 2.033,0.18 0.648,0.073 1.211,0.168 1.691,0.288 v 2.483 c -0.551,-0.071 -1.121,-0.137 -1.709,-0.197 -0.588,-0.06 -1.17,-0.102 -1.746,-0.126 -0.576,-0.023 -1.092,-0.036 -1.549,-0.036 -1.391,0 -2.555,0.061 -3.492,0.18 -0.936,0.121 -1.68,0.355 -2.23,0.703 -0.553,0.348 -0.967,0.888 -1.242,1.619 -0.277,0.732 -0.463,1.705 -0.559,2.916 -0.096,1.213 -0.145,2.742 -0.145,4.59 0,1.849 0.049,3.379 0.145,4.59 0.096,1.213 0.281,2.185 0.559,2.916 0.275,0.732 0.689,1.273 1.242,1.621 0.551,0.348 1.295,0.582 2.23,0.701 0.938,0.121 2.102,0.18 3.492,0.18 0.816,0 1.705,-0.035 2.664,-0.107 0.961,-0.072 1.789,-0.156 2.484,-0.252 v 2.556 c -0.504,0.097 -1.098,0.175 -1.781,0.234 -0.683,0.059 -1.387,0.113 -2.107,0.161 -0.718,0.049 -1.402,0.073 -2.05,0.073 z"
         inkscape:connector-curvature="0" />
      <path
         id="path452"
         d="m 878.057,1352.095 c -1.92,0 -3.51,-0.102 -4.77,-0.306 -1.26,-0.204 -2.256,-0.569 -2.988,-1.099 -0.732,-0.527 -1.266,-1.266 -1.602,-2.213 -0.336,-0.948 -0.553,-2.16 -0.648,-3.637 -0.096,-1.476 -0.145,-3.281 -0.145,-5.418 0,-2.136 0.049,-3.941 0.145,-5.418 0.096,-1.476 0.312,-2.688 0.648,-3.636 0.336,-0.948 0.869,-1.687 1.602,-2.214 0.733,-0.527 1.729,-0.895 2.988,-1.098 1.26,-0.204 2.85,-0.307 4.77,-0.307 1.92,0 3.51,0.103 4.771,0.307 1.26,0.203 2.254,0.57 2.986,1.098 0.732,0.528 1.266,1.266 1.604,2.214 0.336,0.948 0.551,2.16 0.646,3.636 0.096,1.477 0.145,3.282 0.145,5.418 0,2.137 -0.049,3.942 -0.145,5.418 -0.096,1.477 -0.311,2.688 -0.646,3.637 -0.338,0.947 -0.871,1.686 -1.604,2.213 -0.732,0.529 -1.727,0.895 -2.986,1.099 -1.262,0.204 -2.851,0.306 -4.771,0.306 z m 0,-2.664 c 1.32,0 2.412,-0.041 3.277,-0.125 0.863,-0.084 1.547,-0.282 2.051,-0.595 0.504,-0.312 0.889,-0.821 1.152,-1.53 0.264,-0.707 0.426,-1.686 0.486,-2.934 0.059,-1.248 0.09,-2.855 0.09,-4.824 0,-1.967 -0.031,-3.576 -0.09,-4.824 -0.061,-1.247 -0.223,-2.225 -0.486,-2.934 -0.264,-0.707 -0.648,-1.218 -1.152,-1.529 -0.504,-0.312 -1.188,-0.51 -2.051,-0.595 -0.865,-0.083 -1.957,-0.126 -3.277,-0.126 -1.32,0 -2.406,0.043 -3.258,0.126 -0.852,0.085 -1.535,0.282 -2.051,0.595 -0.518,0.312 -0.9,0.822 -1.152,1.529 -0.252,0.709 -0.414,1.687 -0.486,2.934 -0.072,1.248 -0.107,2.857 -0.107,4.824 0,1.969 0.035,3.576 0.107,4.824 0.072,1.248 0.234,2.227 0.486,2.934 0.252,0.709 0.635,1.219 1.152,1.53 0.516,0.312 1.199,0.511 2.051,0.595 0.852,0.084 1.937,0.125 3.258,0.125 z"
         inkscape:connector-curvature="0" />
      <path
         id="path454"
         d="m 905.742,1351.808 v -24.769 h 3.096 v 22.032 h 11.555 v 2.736 h -14.651 z"
         inkscape:connector-curvature="0" />
    </g>
  </g>
</svg>
