<?xml version="1.0" encoding="UTF-8"?>
<svg width="722.56" height="188.1" version="1.1" viewBox="0 0 722.56 188.1" xmlns="http://www.w3.org/2000/svg">
 <ellipse cx="95.439" cy="94.048" rx="68.486" ry="67.791" stroke-width=".69529"/>
 <path d="m168.08 93.978c0.87259 38.911-31.622 74.146-74.051 74.119-42.359-0.0417-74.477-35.263-74.023-74.258 0.4744-41.14 33.011-73.866 74.33-73.838 40.915 0.02795 73.745 32.957 73.745 73.978zm-84.864 62.413c0.39075-0.0841 0.77455-0.16826 1.1653-0.24475-0.53051-22.048-2.574-44.166 3.0412-65.649-0.96923-0.84547-1.4156-1.4462-2.0087-1.7188-3.0558-1.4121-6.104-2.8444-9.2432-4.0674-5.5114-2.1457-7.6392-5.8356-6.6486-12.453 1.2139 0.58703 2.3022 1.1601 3.4322 1.6492 3.7184 1.6143 7.3735 3.4312 11.197 4.7314 5.0714 1.7257 6.0622 3.0398 5.2738 8.4554-0.53746 3.683-1.2209 7.359-1.4997 11.07-0.25795 3.3895 2.9439 8.0229 5.5178 8.575 2.2326 0.48183 5.6784-2.4043 6.7673-6.0873 0.43942-1.4817 0.24404-3.2074 0.0834-4.801-0.36293-3.7038-0.94907-7.3798-1.3113-11.084-0.31427-3.1657 1.353-4.8288 4.2899-5.8696 4.1439-1.4608 8.155-3.3058 12.216-4.997 1.109-0.46125 2.2041-0.97841 3.4458-1.5374 0.57223 7.4703-1.3252 10.287-7.6593 12.635-3.4257 1.2717-6.6901 2.9703-10.472 4.6821 5.6437 22.335 3.5022 44.509 3.8304 66.718 1.6395-1.8662 2.7832-3.8296 3.7949-5.8564 0.87885-1.7681 1.5832-3.6197 2.3994-5.4233 3.879-8.5813 7.918-17.093 11.56-25.773 1.1298-2.704 1.6179-5.8557 1.6534-8.8121 0.15991-14.557 0.14601-29.113 0.0278-43.67-0.0278-3.4733-0.11194-7.1212-1.1653-10.364-1.8835-5.8003-3.5717-12.041-7.053-16.856-6.2646-8.6655-15.835-11.035-26.153-9.6859-8.2385 1.0762-15.522 4.815-19.261 12.313-3.9276 7.8759-6.418 16.458-6.3552 25.535 0.09769 14.326-0.02092 28.646 0.08372 42.971 0.01398 2.2854 0.26511 4.7523 1.1581 6.8069 5.1693 11.943 10.541 23.795 15.892 35.661 0.502 1.118 1.3252 2.1032 2.0017 3.1448z" fill="#fb2715" stroke-width=".69529"/>
 <g transform="matrix(1.9405 0 0 1.9405 -1083.5 -2464.4)" fill="#fff">
  <path d="m668.83 1310.1c-0.889 0-1.861-0.023-2.916-0.072-1.057-0.048-2.082-0.107-3.078-0.18s-1.902-0.155-2.719-0.252v-2.628c0.865 0.072 1.77 0.144 2.719 0.216 0.947 0.072 1.871 0.133 2.771 0.18 0.9 0.049 1.662 0.072 2.287 0.072 1.271 0 2.291-0.054 3.059-0.162 0.768-0.107 1.416-0.317 1.945-0.629 0.359-0.217 0.623-0.504 0.791-0.865 0.168-0.359 0.27-0.779 0.307-1.26 0.035-0.479 0.053-0.995 0.053-1.547 0-0.816-0.023-1.477-0.07-1.98-0.049-0.504-0.176-0.895-0.379-1.17-0.205-0.275-0.535-0.48-0.99-0.612s-1.068-0.233-1.836-0.306l-6.156-0.684c-1.152-0.145-2.076-0.391-2.771-0.738-0.697-0.348-1.219-0.793-1.566-1.332-0.348-0.541-0.582-1.188-0.701-1.944-0.121-0.756-0.18-1.603-0.18-2.538 0-1.512 0.197-2.724 0.594-3.636 0.395-0.912 0.977-1.608 1.746-2.089 0.768-0.479 1.697-0.797 2.789-0.953s2.346-0.234 3.762-0.234c0.912 0 1.848 0.024 2.809 0.072 0.959 0.049 1.865 0.114 2.719 0.197 0.852 0.085 1.553 0.188 2.105 0.307v2.557c-0.625-0.096-1.344-0.181-2.16-0.252-0.816-0.072-1.65-0.127-2.502-0.162-0.852-0.037-1.662-0.055-2.43-0.055-1.32 0-2.389 0.061-3.205 0.18-0.816 0.121-1.463 0.337-1.943 0.648-0.527 0.312-0.859 0.75-0.99 1.314-0.133 0.563-0.197 1.242-0.197 2.033 0 0.937 0.064 1.662 0.197 2.178 0.131 0.518 0.42 0.877 0.863 1.08 0.445 0.205 1.111 0.355 1.998 0.451l6.014 0.684c0.863 0.072 1.625 0.186 2.285 0.342s1.23 0.414 1.711 0.773c0.479 0.36 0.84 0.877 1.078 1.549 0.145 0.336 0.254 0.708 0.324 1.115 0.072 0.408 0.127 0.859 0.162 1.351 0.037 0.492 0.055 1.038 0.055 1.638 0 1.368-0.133 2.502-0.396 3.402s-0.637 1.614-1.115 2.142c-0.48 0.528-1.068 0.925-1.764 1.188-0.697 0.264-1.471 0.432-2.322 0.504-0.856 0.072-1.774 0.107-2.757 0.107z"/>
  <path d="m695.18 1309.8v-24.769h10.836c1.584 0 2.85 0.198 3.797 0.595 0.947 0.396 1.656 0.941 2.125 1.637 0.467 0.697 0.785 1.52 0.953 2.467 0.168 0.948 0.252 1.986 0.252 3.113 0 1.08-0.078 2.095-0.234 3.043-0.156 0.947-0.473 1.781-0.953 2.502-0.48 0.72-1.201 1.283-2.16 1.691-0.961 0.408-2.244 0.612-3.852 0.612h-7.668v9.108h-3.096zm3.095-11.809h6.66c1.176 0 2.105-0.096 2.789-0.288 0.684-0.191 1.193-0.497 1.529-0.918 0.336-0.419 0.553-0.954 0.648-1.603 0.096-0.647 0.145-1.427 0.145-2.34 0-0.911-0.043-1.691-0.127-2.34-0.084-0.647-0.287-1.176-0.611-1.584-0.324-0.407-0.828-0.713-1.512-0.918-0.684-0.203-1.615-0.306-2.789-0.306h-6.732z"/>
  <path d="m726.53 1309.8 9.359-24.769h3.889l9.324 24.769h-3.205l-2.555-6.769h-11.125l-2.555 6.769zm6.623-9.469h9.252l-4.535-12.132h-0.18z"/>
  <path d="m765.74 1309.8v-24.769h11.377c1.559 0 2.801 0.187 3.725 0.558 0.924 0.373 1.607 0.9 2.053 1.584 0.443 0.685 0.738 1.482 0.883 2.395 0.143 0.912 0.215 1.885 0.215 2.916 0 0.889-0.078 1.807-0.234 2.754-0.156 0.948-0.504 1.807-1.043 2.574-0.541 0.768-1.387 1.332-2.539 1.691l4.176 10.297h-3.311l-4.105-10.404 0.865 0.432c-0.168 0.049-0.373 0.084-0.613 0.108s-0.562 0.036-0.971 0.036h-7.381v9.828zm3.096-12.529h6.949c1.199 0 2.141-0.096 2.826-0.288 0.684-0.191 1.188-0.492 1.512-0.9s0.533-0.905 0.629-1.494c0.096-0.588 0.145-1.289 0.145-2.105s-0.043-1.518-0.127-2.105-0.275-1.08-0.574-1.477c-0.301-0.396-0.781-0.695-1.441-0.9-0.66-0.203-1.566-0.306-2.717-0.306h-7.201v9.575z"/>
  <path d="m807.53 1309.8v-22.033h-7.812v-2.735h18.756v2.735h-7.848v22.033z"/>
  <path d="m830.03 1309.8 9.359-24.769h3.889l9.324 24.769h-3.205l-2.555-6.769h-11.125l-2.555 6.769zm6.623-9.469h9.252l-4.535-12.132h-0.18z"/>
  <path d="m869.24 1309.8v-24.769h3.168l12.854 18.972h0.143v-18.972h2.988v24.769h-2.989l-13.031-19.332h-0.145v19.332z"/>
  <path d="m660.58 1351.8v-24.769h10.836c1.584 0 2.85 0.198 3.797 0.595 0.949 0.396 1.656 0.941 2.125 1.637 0.469 0.697 0.785 1.52 0.953 2.467 0.168 0.948 0.252 1.986 0.252 3.113 0 1.08-0.078 2.095-0.232 3.043-0.156 0.947-0.475 1.781-0.955 2.502-0.48 0.72-1.199 1.283-2.16 1.691-0.959 0.408-2.244 0.612-3.852 0.612h-7.668v9.108h-3.096zm3.096-11.809h6.66c1.176 0 2.105-0.096 2.789-0.288 0.686-0.191 1.195-0.497 1.531-0.918 0.336-0.419 0.551-0.954 0.648-1.603 0.094-0.647 0.143-1.427 0.143-2.34 0-0.911-0.041-1.691-0.125-2.34-0.084-0.647-0.289-1.176-0.613-1.584-0.324-0.407-0.828-0.713-1.512-0.918-0.684-0.203-1.613-0.306-2.789-0.306h-6.732z"/>
  <path d="m695.21 1351.8v-24.769h11.377c1.559 0 2.801 0.187 3.727 0.558 0.922 0.373 1.607 0.9 2.051 1.584 0.443 0.685 0.738 1.482 0.883 2.395 0.143 0.912 0.215 1.885 0.215 2.916 0 0.889-0.078 1.807-0.232 2.754-0.158 0.948-0.506 1.807-1.045 2.574s-1.387 1.332-2.537 1.691l4.176 10.297h-3.312l-4.104-10.404 0.863 0.432c-0.168 0.049-0.373 0.084-0.611 0.108-0.24 0.024-0.564 0.036-0.973 0.036h-7.381v9.828zm3.096-12.529h6.949c1.199 0 2.143-0.096 2.826-0.288 0.684-0.191 1.188-0.492 1.512-0.9s0.533-0.905 0.629-1.494c0.096-0.588 0.145-1.289 0.145-2.105s-0.041-1.518-0.125-2.105c-0.086-0.588-0.277-1.08-0.576-1.477-0.301-0.396-0.781-0.695-1.441-0.9-0.66-0.203-1.564-0.306-2.717-0.306h-7.201v9.575z"/>
  <path d="m740.18 1352.1c-1.92 0-3.51-0.102-4.77-0.306-1.262-0.204-2.258-0.569-2.988-1.099-0.732-0.527-1.268-1.266-1.604-2.213-0.336-0.948-0.551-2.16-0.646-3.637-0.098-1.476-0.145-3.281-0.145-5.418 0-2.136 0.047-3.941 0.145-5.418 0.096-1.476 0.311-2.688 0.646-3.636s0.871-1.687 1.604-2.214c0.73-0.527 1.727-0.895 2.988-1.098 1.26-0.204 2.85-0.307 4.77-0.307s3.51 0.103 4.77 0.307c1.26 0.203 2.256 0.57 2.988 1.098s1.266 1.266 1.602 2.214 0.553 2.16 0.648 3.636c0.096 1.477 0.145 3.282 0.145 5.418 0 2.137-0.049 3.942-0.145 5.418-0.096 1.477-0.312 2.688-0.648 3.637-0.336 0.947-0.869 1.686-1.602 2.213-0.732 0.529-1.729 0.895-2.988 1.099s-2.85 0.306-4.77 0.306zm0-2.664c1.318 0 2.412-0.041 3.275-0.125s1.549-0.282 2.053-0.595c0.504-0.312 0.887-0.821 1.152-1.53 0.264-0.707 0.426-1.686 0.484-2.934 0.061-1.248 0.09-2.855 0.09-4.824 0-1.967-0.029-3.576-0.09-4.824-0.059-1.247-0.221-2.225-0.484-2.934-0.266-0.707-0.648-1.218-1.152-1.529-0.504-0.312-1.189-0.51-2.053-0.595-0.863-0.083-1.957-0.126-3.275-0.126-1.32 0-2.406 0.043-3.258 0.126-0.854 0.085-1.537 0.282-2.053 0.595-0.516 0.312-0.9 0.822-1.152 1.529-0.252 0.709-0.414 1.687-0.486 2.934-0.07 1.248-0.107 2.857-0.107 4.824 0 1.969 0.037 3.576 0.107 4.824 0.072 1.248 0.234 2.227 0.486 2.934 0.252 0.709 0.637 1.219 1.152 1.53 0.516 0.312 1.199 0.511 2.053 0.595 0.851 0.084 1.937 0.125 3.258 0.125z"/>
  <path d="m773.15 1351.8v-22.033h-7.812v-2.735h18.756v2.735h-7.848v22.033z"/>
  <path d="m809.23 1352.1c-1.922 0-3.512-0.102-4.771-0.306s-2.256-0.569-2.988-1.099c-0.732-0.527-1.266-1.266-1.602-2.213-0.336-0.948-0.553-2.16-0.648-3.637-0.096-1.476-0.143-3.281-0.143-5.418 0-2.136 0.047-3.941 0.143-5.418 0.096-1.476 0.312-2.688 0.648-3.636s0.869-1.687 1.602-2.214 1.729-0.895 2.988-1.098c1.26-0.204 2.85-0.307 4.771-0.307 1.918 0 3.51 0.103 4.77 0.307 1.26 0.203 2.256 0.57 2.988 1.098 0.73 0.527 1.266 1.266 1.602 2.214s0.551 2.16 0.648 3.636c0.096 1.477 0.143 3.282 0.143 5.418 0 2.137-0.047 3.942-0.143 5.418-0.098 1.477-0.312 2.688-0.648 3.637-0.336 0.947-0.871 1.686-1.602 2.213-0.732 0.529-1.729 0.895-2.988 1.099s-2.852 0.306-4.77 0.306zm0-2.664c1.318 0 2.41-0.041 3.275-0.125 0.863-0.084 1.547-0.282 2.051-0.595 0.506-0.312 0.889-0.821 1.152-1.53 0.264-0.707 0.426-1.686 0.486-2.934s0.09-2.855 0.09-4.824c0-1.967-0.029-3.576-0.09-4.824-0.061-1.247-0.223-2.225-0.486-2.934-0.264-0.707-0.646-1.218-1.152-1.529-0.504-0.312-1.188-0.51-2.051-0.595-0.865-0.083-1.957-0.126-3.275-0.126-1.32 0-2.408 0.043-3.26 0.126-0.852 0.085-1.535 0.282-2.051 0.595-0.518 0.312-0.9 0.822-1.152 1.529-0.252 0.709-0.414 1.687-0.486 2.934-0.072 1.248-0.107 2.857-0.107 4.824 0 1.969 0.035 3.576 0.107 4.824s0.234 2.227 0.486 2.934c0.252 0.709 0.635 1.219 1.152 1.53 0.516 0.312 1.199 0.511 2.051 0.595s1.939 0.125 3.26 0.125z"/>
  <path d="m846.02 1352.1c-1.729 0-3.18-0.102-4.355-0.306-1.178-0.204-2.137-0.563-2.881-1.08-0.744-0.516-1.314-1.247-1.709-2.196-0.396-0.947-0.666-2.165-0.811-3.654-0.145-1.487-0.217-3.299-0.217-5.436 0-2.136 0.072-3.941 0.217-5.418 0.145-1.476 0.414-2.688 0.811-3.636 0.395-0.948 0.965-1.687 1.709-2.214s1.703-0.895 2.881-1.098c1.176-0.204 2.627-0.307 4.355-0.307 0.672 0 1.361 0.024 2.07 0.072 0.707 0.049 1.385 0.107 2.033 0.18s1.211 0.168 1.691 0.288v2.483c-0.551-0.071-1.121-0.137-1.709-0.197s-1.17-0.102-1.746-0.126c-0.576-0.023-1.092-0.036-1.549-0.036-1.391 0-2.555 0.061-3.492 0.18-0.936 0.121-1.68 0.355-2.23 0.703-0.553 0.348-0.967 0.888-1.242 1.619-0.277 0.732-0.463 1.705-0.559 2.916-0.096 1.213-0.145 2.742-0.145 4.59 0 1.849 0.049 3.379 0.145 4.59 0.096 1.213 0.281 2.185 0.559 2.916 0.275 0.732 0.689 1.273 1.242 1.621 0.551 0.348 1.295 0.582 2.23 0.701 0.938 0.121 2.102 0.18 3.492 0.18 0.816 0 1.705-0.035 2.664-0.107 0.961-0.072 1.789-0.156 2.484-0.252v2.556c-0.504 0.097-1.098 0.175-1.781 0.234s-1.387 0.113-2.107 0.161c-0.718 0.049-1.402 0.073-2.05 0.073z"/>
  <path d="m878.06 1352.1c-1.92 0-3.51-0.102-4.77-0.306s-2.256-0.569-2.988-1.099c-0.732-0.527-1.266-1.266-1.602-2.213-0.336-0.948-0.553-2.16-0.648-3.637-0.096-1.476-0.145-3.281-0.145-5.418 0-2.136 0.049-3.941 0.145-5.418 0.096-1.476 0.312-2.688 0.648-3.636s0.869-1.687 1.602-2.214 1.729-0.895 2.988-1.098c1.26-0.204 2.85-0.307 4.77-0.307s3.51 0.103 4.771 0.307c1.26 0.203 2.254 0.57 2.986 1.098s1.266 1.266 1.604 2.214c0.336 0.948 0.551 2.16 0.646 3.636 0.096 1.477 0.145 3.282 0.145 5.418 0 2.137-0.049 3.942-0.145 5.418-0.096 1.477-0.311 2.688-0.646 3.637-0.338 0.947-0.871 1.686-1.604 2.213-0.732 0.529-1.727 0.895-2.986 1.099-1.262 0.204-2.851 0.306-4.771 0.306zm0-2.664c1.32 0 2.412-0.041 3.277-0.125 0.863-0.084 1.547-0.282 2.051-0.595 0.504-0.312 0.889-0.821 1.152-1.53 0.264-0.707 0.426-1.686 0.486-2.934 0.059-1.248 0.09-2.855 0.09-4.824 0-1.967-0.031-3.576-0.09-4.824-0.061-1.247-0.223-2.225-0.486-2.934-0.264-0.707-0.648-1.218-1.152-1.529-0.504-0.312-1.188-0.51-2.051-0.595-0.865-0.083-1.957-0.126-3.277-0.126s-2.406 0.043-3.258 0.126c-0.852 0.085-1.535 0.282-2.051 0.595-0.518 0.312-0.9 0.822-1.152 1.529-0.252 0.709-0.414 1.687-0.486 2.934-0.072 1.248-0.107 2.857-0.107 4.824 0 1.969 0.035 3.576 0.107 4.824s0.234 2.227 0.486 2.934c0.252 0.709 0.635 1.219 1.152 1.53 0.516 0.312 1.199 0.511 2.051 0.595s1.937 0.125 3.258 0.125z"/>
  <path d="m905.74 1351.8v-24.769h3.096v22.032h11.555v2.736h-14.651z"/>
 </g>
</svg>
