<?xml version="1.0" encoding="UTF-8"?>
<svg width="16" height="16" version="1.1" viewBox="0 0 16 16" xmlns="http://www.w3.org/2000/svg">
 <ellipse cx="7.9661" cy="8" rx="7.6271" ry="7.6949" stroke="#fff" stroke-opacity=".035176"/>
 <path d="m15.898 7.9925c0.093122 4.1513-3.3737 7.9104-7.9003 7.9075-4.5192-0.004444-7.9457-3.7621-7.8974-7.9224 0.05061-4.3891 3.5218-7.8806 7.9301-7.8777 4.3651 0.0029823 7.8676 3.5161 7.8676 7.8926zm-9.0539 6.6587c0.041673-9e-3 0.082605-0.01787 0.12429-0.02617-0.056564-2.3522-0.27463-4.7119 0.3245-7.0038-0.10346-0.090218-0.15109-0.15434-0.21435-0.18341-0.32599-0.1506-0.65124-0.30345-0.98615-0.43392-0.58797-0.22889-0.81497-0.62255-0.70928-1.3286 0.1295 0.062627 0.24561 0.12376 0.36618 0.17596 0.39669 0.17222 0.78668 0.36607 1.1945 0.50474 0.54108 0.18416 0.64676 0.32433 0.56266 0.90213-0.057305 0.39292-0.13024 0.78508-0.16001 1.181-0.027542 0.36159 0.31408 0.85591 0.58871 0.9148 0.23817 0.051449 0.60583-0.25647 0.72193-0.64938 0.046896-0.15806 0.02605-0.34222 0.0089369-0.51221-0.0387-0.39515-0.10122-0.78732-0.13992-1.1825-0.033496-0.33775 0.14438-0.51519 0.45772-0.62627 0.4421-0.15583 0.87004-0.35266 1.3032-0.53308 0.1184-0.049207 0.23522-0.10438 0.36775-0.16402 0.061028 0.79701-0.14141 1.0975-0.81724 1.348-0.36544 0.13569-0.71375 0.31687-1.1171 0.49953 0.6021 2.3828 0.37361 4.7485 0.4086 7.1179 0.1749-0.19908 0.29696-0.40853 0.40488-0.62479 0.093773-0.18861 0.16895-0.38621 0.25603-0.57848 0.41377-0.91561 0.84472-1.8237 1.2332-2.7497 0.12058-0.28855 0.17272-0.62479 0.17647-0.94015 0.01708-1.553 0.0156-3.106 3e-3 -4.659-3e-3 -0.37054-0.01195-0.75973-0.12433-1.1057-0.20099-0.61883-0.38111-1.2846-0.75251-1.7983-0.66831-0.9245-1.6894-1.1772-2.7902-1.0334-0.87898 0.11482-1.656 0.5137-2.0549 1.3137-0.41902 0.84026-0.68471 1.7558-0.67802 2.7243 0.010418 1.5284-0.00223 3.0561 0.00893 4.5845 0.00149 0.24383 0.028282 0.507 0.12355 0.72613 0.5515 1.2742 1.1246 2.5387 1.6954 3.8047 0.053582 0.11929 0.14141 0.22446 0.21361 0.33555z" fill="#fff" stroke-width=".9875"/>
</svg>
