<svg width="1000" height="200" viewBox="0 0 1000 200" fill="none" xmlns="http://www.w3.org/2000/svg">
<ellipse cx="103" cy="101" rx="76" ry="75" fill="black"/>
<path d="M261.262 131.576C259.486 131.576 257.542 131.528 255.43 131.432C253.318 131.336 251.254 131.216 249.238 131.072C247.27 130.928 245.47 130.76 243.838 130.568V125.312C245.566 125.456 247.366 125.6 249.238 125.744C251.158 125.888 253.006 126.008 254.782 126.104C256.606 126.2 258.142 126.248 259.39 126.248C261.934 126.248 263.974 126.152 265.51 125.96C267.046 125.72 268.342 125.288 269.398 124.664C270.118 124.232 270.646 123.656 270.982 122.936C271.318 122.216 271.51 121.376 271.558 120.416C271.654 119.456 271.702 118.424 271.702 117.32C271.702 115.688 271.654 114.368 271.558 113.36C271.462 112.352 271.198 111.584 270.766 111.056C270.382 110.48 269.734 110.072 268.822 109.832C267.91 109.544 266.686 109.328 265.15 109.184L252.838 107.816C250.534 107.528 248.686 107.048 247.294 106.376C245.902 105.656 244.846 104.768 244.126 103.712C243.454 102.608 242.998 101.312 242.758 99.824C242.518 98.288 242.398 96.584 242.398 94.712C242.398 91.688 242.782 89.264 243.55 87.44C244.366 85.616 245.542 84.224 247.078 83.264C248.614 82.304 250.462 81.68 252.622 81.392C254.83 81.056 257.35 80.888 260.182 80.888C262.006 80.888 263.878 80.936 265.798 81.032C267.718 81.128 269.518 81.272 271.198 81.464C272.926 81.608 274.342 81.8 275.446 82.04V87.152C274.198 86.96 272.758 86.792 271.126 86.648C269.494 86.504 267.814 86.408 266.086 86.36C264.406 86.264 262.798 86.216 261.262 86.216C258.622 86.216 256.486 86.336 254.854 86.576C253.222 86.816 251.926 87.248 250.966 87.872C249.91 88.496 249.238 89.384 248.95 90.536C248.71 91.64 248.59 92.984 248.59 94.568C248.59 96.44 248.71 97.904 248.95 98.96C249.238 99.968 249.814 100.688 250.678 101.12C251.59 101.504 252.934 101.792 254.71 101.984L266.734 103.352C268.462 103.496 269.974 103.736 271.27 104.072C272.614 104.36 273.766 104.864 274.726 105.584C275.686 106.304 276.406 107.336 276.886 108.68C277.174 109.352 277.39 110.096 277.534 110.912C277.678 111.728 277.774 112.64 277.822 113.648C277.918 114.608 277.966 115.688 277.966 116.888C277.966 119.624 277.702 121.904 277.174 123.728C276.646 125.504 275.902 126.92 274.942 127.976C273.982 129.032 272.806 129.824 271.414 130.352C270.022 130.88 268.462 131.216 266.734 131.36C265.054 131.504 263.23 131.576 261.262 131.576ZM289.985 131V81.464H311.657C314.825 81.464 317.345 81.872 319.217 82.688C321.137 83.456 322.553 84.536 323.465 85.928C324.425 87.32 325.073 88.976 325.409 90.896C325.745 92.768 325.913 94.832 325.913 97.088C325.913 99.248 325.745 101.288 325.409 103.208C325.121 105.08 324.497 106.736 323.537 108.176C322.577 109.616 321.137 110.744 319.217 111.56C317.297 112.376 314.729 112.784 311.513 112.784H296.177V131H289.985ZM296.177 107.384H309.497C311.849 107.384 313.697 107.192 315.041 106.808C316.433 106.424 317.465 105.824 318.137 105.008C318.809 104.144 319.241 103.064 319.433 101.768C319.625 100.472 319.721 98.912 319.721 97.088C319.721 95.264 319.625 93.704 319.433 92.408C319.289 91.112 318.881 90.056 318.209 89.24C317.585 88.424 316.577 87.824 315.185 87.44C313.841 87.008 311.993 86.792 309.641 86.792H296.177V107.384ZM328.746 131L347.466 81.464H355.242L373.89 131H367.482L362.37 117.464H340.122L335.01 131H328.746ZM341.994 112.064H360.498L351.426 87.8H351.066L341.994 112.064ZM383.149 131V81.464H405.901C409.021 81.464 411.493 81.848 413.317 82.616C415.189 83.336 416.557 84.392 417.421 85.784C418.333 87.128 418.933 88.712 419.221 90.536C419.509 92.36 419.653 94.304 419.653 96.368C419.653 98.144 419.485 99.992 419.149 101.912C418.861 103.784 418.165 105.488 417.061 107.024C416.005 108.56 414.325 109.688 412.021 110.408L420.373 131H413.749L405.541 110.192L407.269 111.056C406.933 111.152 406.525 111.224 406.045 111.272C405.565 111.32 404.917 111.344 404.101 111.344H389.341V131H383.149ZM389.341 105.944H403.237C405.637 105.944 407.509 105.752 408.853 105.368C410.245 104.984 411.253 104.384 411.877 103.568C412.549 102.752 412.981 101.768 413.173 100.616C413.365 99.416 413.461 98 413.461 96.368C413.461 94.736 413.365 93.344 413.173 92.192C413.029 90.992 412.645 90.008 412.021 89.24C411.445 88.424 410.485 87.824 409.141 87.44C407.845 87.008 406.045 86.792 403.741 86.792H389.341V105.944ZM442.741 131V86.936H427.117V81.464H464.629V86.936H448.933V131H442.741ZM463.817 131L482.537 81.464H490.313L508.961 131H502.553L497.441 117.464H475.193L470.081 131H463.817ZM477.065 112.064H495.569L486.497 87.8H486.137L477.065 112.064ZM518.22 131V81.464H524.556L550.26 119.408H550.548V81.464H556.524V131H550.548L524.484 92.336H524.196V131H518.22ZM587.829 131V81.464H609.501C612.669 81.464 615.189 81.872 617.061 82.688C618.981 83.456 620.397 84.536 621.309 85.928C622.269 87.32 622.917 88.976 623.253 90.896C623.589 92.768 623.757 94.832 623.757 97.088C623.757 99.248 623.589 101.288 623.253 103.208C622.965 105.08 622.341 106.736 621.381 108.176C620.421 109.616 618.981 110.744 617.061 111.56C615.141 112.376 612.573 112.784 609.357 112.784H594.021V131H587.829ZM594.021 107.384H607.341C609.693 107.384 611.541 107.192 612.885 106.808C614.277 106.424 615.309 105.824 615.981 105.008C616.653 104.144 617.085 103.064 617.277 101.768C617.469 100.472 617.565 98.912 617.565 97.088C617.565 95.264 617.469 93.704 617.277 92.408C617.133 91.112 616.725 90.056 616.053 89.24C615.429 88.424 614.421 87.824 613.029 87.44C611.685 87.008 609.837 86.792 607.485 86.792H594.021V107.384ZM634.798 131V81.464H657.55C660.67 81.464 663.142 81.848 664.966 82.616C666.838 83.336 668.206 84.392 669.07 85.784C669.982 87.128 670.582 88.712 670.87 90.536C671.158 92.36 671.302 94.304 671.302 96.368C671.302 98.144 671.134 99.992 670.798 101.912C670.51 103.784 669.814 105.488 668.71 107.024C667.654 108.56 665.974 109.688 663.67 110.408L672.022 131H665.398L657.19 110.192L658.918 111.056C658.582 111.152 658.174 111.224 657.694 111.272C657.214 111.32 656.566 111.344 655.75 111.344H640.99V131H634.798ZM640.99 105.944H654.886C657.286 105.944 659.158 105.752 660.502 105.368C661.894 104.984 662.902 104.384 663.526 103.568C664.198 102.752 664.63 101.768 664.822 100.616C665.014 99.416 665.11 98 665.11 96.368C665.11 94.736 665.014 93.344 664.822 92.192C664.678 90.992 664.294 90.008 663.67 89.24C663.094 88.424 662.134 87.824 660.79 87.44C659.494 87.008 657.694 86.792 655.39 86.792H640.99V105.944ZM702.381 131.576C698.541 131.576 695.349 131.384 692.805 131C690.309 130.568 688.317 129.824 686.829 128.768C685.389 127.712 684.333 126.248 683.661 124.376C682.989 122.456 682.557 120.032 682.365 117.104C682.173 114.128 682.077 110.504 682.077 106.232C682.077 101.96 682.173 98.36 682.365 95.432C682.557 92.456 682.989 90.032 683.661 88.16C684.333 86.24 685.389 84.752 686.829 83.696C688.317 82.64 690.309 81.92 692.805 81.536C695.349 81.104 698.541 80.888 702.381 80.888C706.221 80.888 709.389 81.104 711.885 81.536C714.429 81.92 716.421 82.64 717.861 83.696C719.349 84.752 720.429 86.24 721.101 88.16C721.773 90.032 722.205 92.456 722.397 95.432C722.589 98.36 722.685 101.96 722.685 106.232C722.685 110.504 722.589 114.128 722.397 117.104C722.205 120.032 721.773 122.456 721.101 124.376C720.429 126.248 719.349 127.712 717.861 128.768C716.421 129.824 714.429 130.568 711.885 131C709.389 131.384 706.221 131.576 702.381 131.576ZM702.381 126.248C705.021 126.248 707.205 126.176 708.933 126.032C710.661 125.84 712.029 125.432 713.037 124.808C714.045 124.184 714.813 123.176 715.341 121.784C715.869 120.344 716.181 118.376 716.277 115.88C716.421 113.384 716.493 110.168 716.493 106.232C716.493 102.296 716.421 99.08 716.277 96.584C716.181 94.088 715.869 92.144 715.341 90.752C714.813 89.312 714.045 88.28 713.037 87.656C712.029 87.032 710.661 86.648 708.933 86.504C707.205 86.312 705.021 86.216 702.381 86.216C699.741 86.216 697.557 86.312 695.829 86.504C694.149 86.648 692.781 87.032 691.725 87.656C690.717 88.28 689.949 89.312 689.421 90.752C688.941 92.144 688.629 94.088 688.485 96.584C688.341 99.08 688.269 102.296 688.269 106.232C688.269 110.168 688.341 113.384 688.485 115.88C688.629 118.376 688.941 120.344 689.421 121.784C689.949 123.176 690.717 124.184 691.725 124.808C692.781 125.432 694.149 125.84 695.829 126.032C697.557 126.176 699.741 126.248 702.381 126.248ZM745.999 131V86.936H730.375V81.464H767.887V86.936H752.191V131H745.999ZM795.827 131.576C791.987 131.576 788.795 131.384 786.251 131C783.755 130.568 781.763 129.824 780.275 128.768C778.835 127.712 777.779 126.248 777.107 124.376C776.435 122.456 776.003 120.032 775.811 117.104C775.619 114.128 775.523 110.504 775.523 106.232C775.523 101.96 775.619 98.36 775.811 95.432C776.003 92.456 776.435 90.032 777.107 88.16C777.779 86.24 778.835 84.752 780.275 83.696C781.763 82.64 783.755 81.92 786.251 81.536C788.795 81.104 791.987 80.888 795.827 80.888C799.667 80.888 802.835 81.104 805.331 81.536C807.875 81.92 809.867 82.64 811.307 83.696C812.795 84.752 813.875 86.24 814.547 88.16C815.219 90.032 815.651 92.456 815.843 95.432C816.035 98.36 816.131 101.96 816.131 106.232C816.131 110.504 816.035 114.128 815.843 117.104C815.651 120.032 815.219 122.456 814.547 124.376C813.875 126.248 812.795 127.712 811.307 128.768C809.867 129.824 807.875 130.568 805.331 131C802.835 131.384 799.667 131.576 795.827 131.576ZM795.827 126.248C798.467 126.248 800.651 126.176 802.379 126.032C804.107 125.84 805.475 125.432 806.483 124.808C807.491 124.184 808.259 123.176 808.787 121.784C809.315 120.344 809.627 118.376 809.723 115.88C809.867 113.384 809.939 110.168 809.939 106.232C809.939 102.296 809.867 99.08 809.723 96.584C809.627 94.088 809.315 92.144 808.787 90.752C808.259 89.312 807.491 88.28 806.483 87.656C805.475 87.032 804.107 86.648 802.379 86.504C800.651 86.312 798.467 86.216 795.827 86.216C793.187 86.216 791.003 86.312 789.275 86.504C787.595 86.648 786.227 87.032 785.171 87.656C784.163 88.28 783.395 89.312 782.867 90.752C782.387 92.144 782.075 94.088 781.931 96.584C781.787 99.08 781.715 102.296 781.715 106.232C781.715 110.168 781.787 113.384 781.931 115.88C782.075 118.376 782.387 120.344 782.867 121.784C783.395 123.176 784.163 124.184 785.171 124.808C786.227 125.432 787.595 125.84 789.275 126.032C791.003 126.176 793.187 126.248 795.827 126.248ZM847.076 131.576C843.62 131.576 840.716 131.384 838.364 131C836.012 130.568 834.092 129.848 832.604 128.84C831.116 127.784 829.964 126.32 829.148 124.448C828.38 122.528 827.852 120.08 827.564 117.104C827.276 114.128 827.132 110.504 827.132 106.232C827.132 101.96 827.276 98.36 827.564 95.432C827.852 92.456 828.38 90.032 829.148 88.16C829.964 86.24 831.116 84.752 832.604 83.696C834.092 82.64 836.012 81.92 838.364 81.536C840.716 81.104 843.62 80.888 847.076 80.888C848.42 80.888 849.788 80.936 851.18 81.032C852.62 81.128 853.988 81.248 855.284 81.392C856.58 81.536 857.708 81.728 858.668 81.968V86.936C857.564 86.792 856.412 86.672 855.212 86.576C854.06 86.432 852.908 86.336 851.756 86.288C850.604 86.24 849.572 86.216 848.66 86.216C845.876 86.216 843.548 86.336 841.676 86.576C839.804 86.816 838.316 87.296 837.212 88.016C836.108 88.688 835.268 89.768 834.692 91.256C834.164 92.696 833.804 94.64 833.612 97.088C833.42 99.488 833.324 102.536 833.324 106.232C833.324 109.928 833.42 113 833.612 115.448C833.804 117.848 834.164 119.792 834.692 121.28C835.268 122.72 836.108 123.8 837.212 124.52C838.316 125.192 839.804 125.648 841.676 125.888C843.548 126.128 845.876 126.248 848.66 126.248C850.292 126.248 852.068 126.176 853.988 126.032C855.908 125.888 857.564 125.72 858.956 125.528V130.64C857.948 130.832 856.748 130.976 855.356 131.072C854.012 131.216 852.62 131.336 851.18 131.432C849.74 131.528 848.372 131.576 847.076 131.576ZM888.85 131.576C885.01 131.576 881.818 131.384 879.274 131C876.778 130.568 874.786 129.824 873.298 128.768C871.858 127.712 870.802 126.248 870.13 124.376C869.458 122.456 869.026 120.032 868.834 117.104C868.642 114.128 868.546 110.504 868.546 106.232C868.546 101.96 868.642 98.36 868.834 95.432C869.026 92.456 869.458 90.032 870.13 88.16C870.802 86.24 871.858 84.752 873.298 83.696C874.786 82.64 876.778 81.92 879.274 81.536C881.818 81.104 885.01 80.888 888.85 80.888C892.69 80.888 895.858 81.104 898.354 81.536C900.898 81.92 902.89 82.64 904.33 83.696C905.818 84.752 906.898 86.24 907.57 88.16C908.242 90.032 908.674 92.456 908.866 95.432C909.058 98.36 909.154 101.96 909.154 106.232C909.154 110.504 909.058 114.128 908.866 117.104C908.674 120.032 908.242 122.456 907.57 124.376C906.898 126.248 905.818 127.712 904.33 128.768C902.89 129.824 900.898 130.568 898.354 131C895.858 131.384 892.69 131.576 888.85 131.576ZM888.85 126.248C891.49 126.248 893.674 126.176 895.402 126.032C897.13 125.84 898.498 125.432 899.506 124.808C900.514 124.184 901.282 123.176 901.81 121.784C902.338 120.344 902.65 118.376 902.746 115.88C902.89 113.384 902.962 110.168 902.962 106.232C902.962 102.296 902.89 99.08 902.746 96.584C902.65 94.088 902.338 92.144 901.81 90.752C901.282 89.312 900.514 88.28 899.506 87.656C898.498 87.032 897.13 86.648 895.402 86.504C893.674 86.312 891.49 86.216 888.85 86.216C886.21 86.216 884.026 86.312 882.298 86.504C880.618 86.648 879.25 87.032 878.194 87.656C877.186 88.28 876.418 89.312 875.89 90.752C875.41 92.144 875.098 94.088 874.954 96.584C874.81 99.08 874.738 102.296 874.738 106.232C874.738 110.168 874.81 113.384 874.954 115.88C875.098 118.376 875.41 120.344 875.89 121.784C876.418 123.176 877.186 124.184 878.194 124.808C879.25 125.432 880.618 125.84 882.298 126.032C884.026 126.176 886.21 126.248 888.85 126.248ZM921.884 131V81.464H928.076V125.528H951.188V131H921.884Z" fill="black"/>
<path d="M182.981 99.424C183.929 141.725 148.603 180.03 102.478 180C56.4286 179.954 21.5122 141.664 22.0052 99.2721C22.5209 54.5473 57.8922 18.9696 102.812 19C147.291 19.0304 182.981 54.8284 182.981 99.424ZM90.723 167.275C91.1477 167.184 91.5648 167.092 91.9895 167.009C91.4132 143.04 89.1911 118.994 95.2961 95.6406C94.242 94.7214 93.7566 94.068 93.1119 93.7717C89.7902 92.2371 86.476 90.6796 83.0633 89.3501C77.072 87.0178 74.7589 83.0065 75.8358 75.8119C77.1554 76.4501 78.3385 77.0731 79.5671 77.6049C83.6093 79.3598 87.5833 81.3351 91.7393 82.7482C97.2528 84.6247 98.3297 86.053 97.4727 91.9408C96.8887 95.9445 96.1455 99.9406 95.8422 103.975C95.5616 107.659 99.0426 112.696 101.841 113.297C104.268 113.821 108.014 110.683 109.197 106.679C109.675 105.069 109.463 103.192 109.288 101.46C108.894 97.4336 108.257 93.4374 107.863 89.4109C107.521 85.9694 109.334 84.1612 112.527 83.0293C117.032 81.4414 121.392 79.4358 125.806 77.5973C127.012 77.0958 128.203 76.5337 129.553 75.9259C130.175 84.0473 128.112 87.109 121.226 89.6616C117.502 91.0443 113.953 92.8904 109.842 94.7517C115.977 119.032 113.649 143.138 114.006 167.282C115.788 165.254 117.032 163.119 118.131 160.916C119.087 158.994 119.853 156.98 120.74 155.02C124.957 145.691 129.348 136.438 133.307 127.002C134.535 124.062 135.066 120.635 135.104 117.422C135.279 101.597 135.263 85.7719 135.134 69.9469C135.104 66.1711 135.013 62.2053 133.868 58.6802C131.82 52.3745 129.985 45.5902 126.201 40.3558C119.39 30.9352 108.985 28.3598 97.7685 29.826C88.8119 30.996 80.8943 35.0605 76.8293 43.2123C72.5595 51.7744 69.8521 61.1037 69.9203 70.9725C70.0265 86.5468 69.8976 102.113 70.0113 117.688C70.0265 120.172 70.2995 122.854 71.2703 125.087C76.89 138.071 82.7296 150.956 88.5464 163.856C89.0925 165.071 89.9874 166.143 90.723 167.275Z" fill="#FB2715"/>
</svg>
