<svg width="500" height="500" viewBox="0 0 500 500" fill="none" xmlns="http://www.w3.org/2000/svg">
<ellipse cx="250" cy="162.5" rx="119" ry="117.5" fill="black"/>
<path d="M375.971 162.381C377.46 228.854 321.948 289.048 249.466 289C177.102 288.928 122.233 228.758 123.008 162.142C123.818 91.8601 179.402 35.9523 249.99 36C319.887 36.0478 375.971 92.3018 375.971 162.381ZM230.993 269.003C231.661 268.86 232.316 268.717 232.984 268.585C232.078 230.919 228.586 193.134 238.18 156.435C236.523 154.991 235.76 153.964 234.747 153.498C229.527 151.087 224.319 148.639 218.957 146.55C209.542 142.885 205.907 136.582 207.599 125.276C209.673 126.279 211.532 127.258 213.463 128.093C219.815 130.851 226.059 133.955 232.59 136.176C241.254 139.124 242.947 141.369 241.6 150.621C240.682 156.913 239.514 163.192 239.038 169.532C238.597 175.322 244.067 183.237 248.464 184.18C252.278 185.004 258.165 180.073 260.025 173.782C260.775 171.251 260.442 168.302 260.168 165.58C259.548 159.253 258.547 152.973 257.927 146.646C257.391 141.238 260.239 138.396 265.256 136.617C272.335 134.122 279.188 130.971 286.124 128.081C288.019 127.293 289.89 126.41 292.011 125.455C292.989 138.217 289.747 143.028 278.926 147.04C273.074 149.212 267.497 152.114 261.038 155.038C270.679 193.194 267.02 231.075 267.58 269.015C270.381 265.827 272.335 262.473 274.063 259.011C275.565 255.99 276.769 252.826 278.163 249.746C284.789 235.086 291.69 220.545 297.911 205.717C299.841 201.097 300.675 195.713 300.735 190.663C301.009 165.795 300.985 140.927 300.783 116.059C300.735 110.126 300.592 103.894 298.792 98.3546C295.575 88.4457 292.691 77.7847 286.744 69.5591C276.042 54.7554 259.691 50.7082 242.065 53.0123C227.99 54.8509 215.548 61.2379 209.16 74.0479C202.451 87.5026 198.196 102.163 198.303 117.671C198.47 142.145 198.268 166.607 198.446 191.081C198.47 194.985 198.899 199.199 200.425 202.709C209.256 223.112 218.432 243.359 227.573 263.631C228.431 265.541 229.837 267.224 230.993 269.003Z" fill="#FB2715"/>
<path d="M99.0194 381.624C97.0954 381.624 94.9894 381.572 92.7014 381.468C90.4134 381.364 88.1774 381.234 85.9934 381.078C83.8614 380.922 81.9114 380.74 80.1434 380.532V374.838C82.0154 374.994 83.9654 375.15 85.9934 375.306C88.0734 375.462 90.0754 375.592 91.9994 375.696C93.9754 375.8 95.6394 375.852 96.9914 375.852C99.7474 375.852 101.957 375.748 103.621 375.54C105.285 375.28 106.689 374.812 107.833 374.136C108.613 373.668 109.185 373.044 109.549 372.264C109.913 371.484 110.121 370.574 110.173 369.534C110.277 368.494 110.329 367.376 110.329 366.18C110.329 364.412 110.277 362.982 110.173 361.89C110.069 360.798 109.783 359.966 109.315 359.394C108.899 358.77 108.197 358.328 107.209 358.068C106.221 357.756 104.895 357.522 103.231 357.366L89.8934 355.884C87.3974 355.572 85.3954 355.052 83.8874 354.324C82.3794 353.544 81.2354 352.582 80.4554 351.438C79.7274 350.242 79.2334 348.838 78.9734 347.226C78.7134 345.562 78.5834 343.716 78.5834 341.688C78.5834 338.412 78.9994 335.786 79.8314 333.81C80.7154 331.834 81.9894 330.326 83.6534 329.286C85.3174 328.246 87.3194 327.57 89.6594 327.258C92.0514 326.894 94.7814 326.712 97.8494 326.712C99.8254 326.712 101.853 326.764 103.933 326.868C106.013 326.972 107.963 327.128 109.783 327.336C111.655 327.492 113.189 327.7 114.385 327.96V333.498C113.033 333.29 111.473 333.108 109.705 332.952C107.937 332.796 106.117 332.692 104.245 332.64C102.425 332.536 100.683 332.484 99.0194 332.484C96.1594 332.484 93.8454 332.614 92.0774 332.874C90.3094 333.134 88.9054 333.602 87.8654 334.278C86.7214 334.954 85.9934 335.916 85.6814 337.164C85.4214 338.36 85.2914 339.816 85.2914 341.532C85.2914 343.56 85.4214 345.146 85.6814 346.29C85.9934 347.382 86.6174 348.162 87.5534 348.63C88.5414 349.046 89.9974 349.358 91.9214 349.566L104.947 351.048C106.819 351.204 108.457 351.464 109.861 351.828C111.317 352.14 112.565 352.686 113.605 353.466C114.645 354.246 115.425 355.364 115.945 356.82C116.257 357.548 116.491 358.354 116.647 359.238C116.803 360.122 116.907 361.11 116.959 362.202C117.063 363.242 117.115 364.412 117.115 365.712C117.115 368.676 116.829 371.146 116.257 373.122C115.685 375.046 114.879 376.58 113.839 377.724C112.799 378.868 111.525 379.726 110.017 380.298C108.509 380.87 106.819 381.234 104.947 381.39C103.127 381.546 101.151 381.624 99.0194 381.624ZM130.136 381V327.336H153.614C157.046 327.336 159.776 327.778 161.804 328.662C163.884 329.494 165.418 330.664 166.406 332.172C167.446 333.68 168.148 335.474 168.512 337.554C168.876 339.582 169.058 341.818 169.058 344.262C169.058 346.602 168.876 348.812 168.512 350.892C168.2 352.92 167.524 354.714 166.484 356.274C165.444 357.834 163.884 359.056 161.804 359.94C159.724 360.824 156.942 361.266 153.458 361.266H136.844V381H130.136ZM136.844 355.416H151.274C153.822 355.416 155.824 355.208 157.28 354.792C158.788 354.376 159.906 353.726 160.634 352.842C161.362 351.906 161.83 350.736 162.038 349.332C162.246 347.928 162.35 346.238 162.35 344.262C162.35 342.286 162.246 340.596 162.038 339.192C161.882 337.788 161.44 336.644 160.712 335.76C160.036 334.876 158.944 334.226 157.436 333.81C155.98 333.342 153.978 333.108 151.43 333.108H136.844V355.416ZM172.127 381L192.407 327.336H200.831L221.033 381H214.091L208.553 366.336H184.451L178.913 381H172.127ZM186.479 360.486H206.525L196.697 334.2H196.307L186.479 360.486ZM231.064 381V327.336H255.712C259.092 327.336 261.77 327.752 263.746 328.584C265.774 329.364 267.256 330.508 268.192 332.016C269.18 333.472 269.83 335.188 270.142 337.164C270.454 339.14 270.61 341.246 270.61 343.482C270.61 345.406 270.428 347.408 270.064 349.488C269.752 351.516 268.998 353.362 267.802 355.026C266.658 356.69 264.838 357.912 262.342 358.692L271.39 381H264.214L255.322 358.458L257.194 359.394C256.83 359.498 256.388 359.576 255.868 359.628C255.348 359.68 254.646 359.706 253.762 359.706H237.772V381H231.064ZM237.772 353.856H252.826C255.426 353.856 257.454 353.648 258.91 353.232C260.418 352.816 261.51 352.166 262.186 351.282C262.914 350.398 263.382 349.332 263.59 348.084C263.798 346.784 263.902 345.25 263.902 343.482C263.902 341.714 263.798 340.206 263.59 338.958C263.434 337.658 263.018 336.592 262.342 335.76C261.718 334.876 260.678 334.226 259.222 333.81C257.818 333.342 255.868 333.108 253.372 333.108H237.772V353.856ZM295.621 381V333.264H278.695V327.336H319.333V333.264H302.329V381H295.621ZM318.454 381L338.734 327.336H347.158L367.36 381H360.418L354.88 366.336H330.778L325.24 381H318.454ZM332.806 360.486H352.852L343.024 334.2H342.634L332.806 360.486ZM377.39 381V327.336H384.254L412.1 368.442H412.412V327.336H418.886V381H412.412L384.176 339.114H383.864V381H377.39ZM55.8684 458V404.336H79.3464C82.7784 404.336 85.5084 404.778 87.5364 405.662C89.6164 406.494 91.1504 407.664 92.1384 409.172C93.1784 410.68 93.8804 412.474 94.2444 414.554C94.6084 416.582 94.7904 418.818 94.7904 421.262C94.7904 423.602 94.6084 425.812 94.2444 427.892C93.9324 429.92 93.2564 431.714 92.2164 433.274C91.1764 434.834 89.6164 436.056 87.5364 436.94C85.4564 437.824 82.6744 438.266 79.1904 438.266H62.5764V458H55.8684ZM62.5764 432.416H77.0064C79.5544 432.416 81.5564 432.208 83.0124 431.792C84.5204 431.376 85.6384 430.726 86.3664 429.842C87.0944 428.906 87.5624 427.736 87.7704 426.332C87.9784 424.928 88.0824 423.238 88.0824 421.262C88.0824 419.286 87.9784 417.596 87.7704 416.192C87.6144 414.788 87.1724 413.644 86.4444 412.76C85.7684 411.876 84.6764 411.226 83.1684 410.81C81.7124 410.342 79.7104 410.108 77.1624 410.108H62.5764V432.416ZM106.751 458V404.336H131.399C134.779 404.336 137.457 404.752 139.433 405.584C141.461 406.364 142.943 407.508 143.879 409.016C144.867 410.472 145.517 412.188 145.829 414.164C146.141 416.14 146.297 418.246 146.297 420.482C146.297 422.406 146.115 424.408 145.751 426.488C145.439 428.516 144.685 430.362 143.489 432.026C142.345 433.69 140.525 434.912 138.029 435.692L147.077 458H139.901L131.009 435.458L132.881 436.394C132.517 436.498 132.075 436.576 131.555 436.628C131.035 436.68 130.333 436.706 129.449 436.706H113.459V458H106.751ZM113.459 430.856H128.513C131.113 430.856 133.141 430.648 134.597 430.232C136.105 429.816 137.197 429.166 137.873 428.282C138.601 427.398 139.069 426.332 139.277 425.084C139.485 423.784 139.589 422.25 139.589 420.482C139.589 418.714 139.485 417.206 139.277 415.958C139.121 414.658 138.705 413.592 138.029 412.76C137.405 411.876 136.365 411.226 134.909 410.81C133.505 410.342 131.555 410.108 129.059 410.108H113.459V430.856ZM179.967 458.624C175.807 458.624 172.349 458.416 169.593 458C166.889 457.532 164.731 456.726 163.119 455.582C161.559 454.438 160.415 452.852 159.687 450.824C158.959 448.744 158.491 446.118 158.283 442.946C158.075 439.722 157.971 435.796 157.971 431.168C157.971 426.54 158.075 422.64 158.283 419.468C158.491 416.244 158.959 413.618 159.687 411.59C160.415 409.51 161.559 407.898 163.119 406.754C164.731 405.61 166.889 404.83 169.593 404.414C172.349 403.946 175.807 403.712 179.967 403.712C184.127 403.712 187.559 403.946 190.263 404.414C193.019 404.83 195.177 405.61 196.737 406.754C198.349 407.898 199.519 409.51 200.247 411.59C200.975 413.618 201.443 416.244 201.651 419.468C201.859 422.64 201.963 426.54 201.963 431.168C201.963 435.796 201.859 439.722 201.651 442.946C201.443 446.118 200.975 448.744 200.247 450.824C199.519 452.852 198.349 454.438 196.737 455.582C195.177 456.726 193.019 457.532 190.263 458C187.559 458.416 184.127 458.624 179.967 458.624ZM179.967 452.852C182.827 452.852 185.193 452.774 187.065 452.618C188.937 452.41 190.419 451.968 191.511 451.292C192.603 450.616 193.435 449.524 194.007 448.016C194.579 446.456 194.917 444.324 195.021 441.62C195.177 438.916 195.255 435.432 195.255 431.168C195.255 426.904 195.177 423.42 195.021 420.716C194.917 418.012 194.579 415.906 194.007 414.398C193.435 412.838 192.603 411.72 191.511 411.044C190.419 410.368 188.937 409.952 187.065 409.796C185.193 409.588 182.827 409.484 179.967 409.484C177.107 409.484 174.741 409.588 172.869 409.796C171.049 409.952 169.567 410.368 168.423 411.044C167.331 411.72 166.499 412.838 165.927 414.398C165.407 415.906 165.069 418.012 164.913 420.716C164.757 423.42 164.679 426.904 164.679 431.168C164.679 435.432 164.757 438.916 164.913 441.62C165.069 444.324 165.407 446.456 165.927 448.016C166.499 449.524 167.331 450.616 168.423 451.292C169.567 451.968 171.049 452.41 172.869 452.618C174.741 452.774 177.107 452.852 179.967 452.852ZM227.219 458V410.264H210.293V404.336H250.931V410.264H233.927V458H227.219ZM281.199 458.624C277.039 458.624 273.581 458.416 270.825 458C268.121 457.532 265.963 456.726 264.351 455.582C262.791 454.438 261.647 452.852 260.919 450.824C260.191 448.744 259.723 446.118 259.515 442.946C259.307 439.722 259.203 435.796 259.203 431.168C259.203 426.54 259.307 422.64 259.515 419.468C259.723 416.244 260.191 413.618 260.919 411.59C261.647 409.51 262.791 407.898 264.351 406.754C265.963 405.61 268.121 404.83 270.825 404.414C273.581 403.946 277.039 403.712 281.199 403.712C285.359 403.712 288.791 403.946 291.495 404.414C294.251 404.83 296.409 405.61 297.969 406.754C299.581 407.898 300.751 409.51 301.479 411.59C302.207 413.618 302.675 416.244 302.883 419.468C303.091 422.64 303.195 426.54 303.195 431.168C303.195 435.796 303.091 439.722 302.883 442.946C302.675 446.118 302.207 448.744 301.479 450.824C300.751 452.852 299.581 454.438 297.969 455.582C296.409 456.726 294.251 457.532 291.495 458C288.791 458.416 285.359 458.624 281.199 458.624ZM281.199 452.852C284.059 452.852 286.425 452.774 288.297 452.618C290.169 452.41 291.651 451.968 292.743 451.292C293.835 450.616 294.667 449.524 295.239 448.016C295.811 446.456 296.149 444.324 296.253 441.62C296.409 438.916 296.487 435.432 296.487 431.168C296.487 426.904 296.409 423.42 296.253 420.716C296.149 418.012 295.811 415.906 295.239 414.398C294.667 412.838 293.835 411.72 292.743 411.044C291.651 410.368 290.169 409.952 288.297 409.796C286.425 409.588 284.059 409.484 281.199 409.484C278.339 409.484 275.973 409.588 274.101 409.796C272.281 409.952 270.799 410.368 269.655 411.044C268.563 411.72 267.731 412.838 267.159 414.398C266.639 415.906 266.301 418.012 266.145 420.716C265.989 423.42 265.911 426.904 265.911 431.168C265.911 435.432 265.989 438.916 266.145 441.62C266.301 444.324 266.639 446.456 267.159 448.016C267.731 449.524 268.563 450.616 269.655 451.292C270.799 451.968 272.281 452.41 274.101 452.618C275.973 452.774 278.339 452.852 281.199 452.852ZM336.72 458.624C332.976 458.624 329.83 458.416 327.282 458C324.734 457.532 322.654 456.752 321.042 455.66C319.43 454.516 318.182 452.93 317.298 450.902C316.466 448.822 315.894 446.17 315.582 442.946C315.27 439.722 315.114 435.796 315.114 431.168C315.114 426.54 315.27 422.64 315.582 419.468C315.894 416.244 316.466 413.618 317.298 411.59C318.182 409.51 319.43 407.898 321.042 406.754C322.654 405.61 324.734 404.83 327.282 404.414C329.83 403.946 332.976 403.712 336.72 403.712C338.176 403.712 339.658 403.764 341.166 403.868C342.726 403.972 344.208 404.102 345.612 404.258C347.016 404.414 348.238 404.622 349.278 404.882V410.264C348.082 410.108 346.834 409.978 345.534 409.874C344.286 409.718 343.038 409.614 341.79 409.562C340.542 409.51 339.424 409.484 338.436 409.484C335.42 409.484 332.898 409.614 330.87 409.874C328.842 410.134 327.23 410.654 326.034 411.434C324.838 412.162 323.928 413.332 323.304 414.944C322.732 416.504 322.342 418.61 322.134 421.262C321.926 423.862 321.822 427.164 321.822 431.168C321.822 435.172 321.926 438.5 322.134 441.152C322.342 443.752 322.732 445.858 323.304 447.47C323.928 449.03 324.838 450.2 326.034 450.98C327.23 451.708 328.842 452.202 330.87 452.462C332.898 452.722 335.42 452.852 338.436 452.852C340.204 452.852 342.128 452.774 344.208 452.618C346.288 452.462 348.082 452.28 349.59 452.072V457.61C348.498 457.818 347.198 457.974 345.69 458.078C344.234 458.234 342.726 458.364 341.166 458.468C339.606 458.572 338.124 458.624 336.72 458.624ZM381.975 458.624C377.815 458.624 374.357 458.416 371.601 458C368.897 457.532 366.739 456.726 365.127 455.582C363.567 454.438 362.423 452.852 361.695 450.824C360.967 448.744 360.499 446.118 360.291 442.946C360.083 439.722 359.979 435.796 359.979 431.168C359.979 426.54 360.083 422.64 360.291 419.468C360.499 416.244 360.967 413.618 361.695 411.59C362.423 409.51 363.567 407.898 365.127 406.754C366.739 405.61 368.897 404.83 371.601 404.414C374.357 403.946 377.815 403.712 381.975 403.712C386.135 403.712 389.567 403.946 392.271 404.414C395.027 404.83 397.185 405.61 398.745 406.754C400.357 407.898 401.527 409.51 402.255 411.59C402.983 413.618 403.451 416.244 403.659 419.468C403.867 422.64 403.971 426.54 403.971 431.168C403.971 435.796 403.867 439.722 403.659 442.946C403.451 446.118 402.983 448.744 402.255 450.824C401.527 452.852 400.357 454.438 398.745 455.582C397.185 456.726 395.027 457.532 392.271 458C389.567 458.416 386.135 458.624 381.975 458.624ZM381.975 452.852C384.835 452.852 387.201 452.774 389.073 452.618C390.945 452.41 392.427 451.968 393.519 451.292C394.611 450.616 395.443 449.524 396.015 448.016C396.587 446.456 396.925 444.324 397.029 441.62C397.185 438.916 397.263 435.432 397.263 431.168C397.263 426.904 397.185 423.42 397.029 420.716C396.925 418.012 396.587 415.906 396.015 414.398C395.443 412.838 394.611 411.72 393.519 411.044C392.427 410.368 390.945 409.952 389.073 409.796C387.201 409.588 384.835 409.484 381.975 409.484C379.115 409.484 376.749 409.588 374.877 409.796C373.057 409.952 371.575 410.368 370.431 411.044C369.339 411.72 368.507 412.838 367.935 414.398C367.415 415.906 367.077 418.012 366.921 420.716C366.765 423.42 366.687 426.904 366.687 431.168C366.687 435.432 366.765 438.916 366.921 441.62C367.077 444.324 367.415 446.456 367.935 448.016C368.507 449.524 369.339 450.616 370.431 451.292C371.575 451.968 373.057 452.41 374.877 452.618C376.749 452.774 379.115 452.852 381.975 452.852ZM417.761 458V404.336H424.469V452.072H449.507V458H417.761Z" fill="black"/>
</svg>
