<svg width="400" height="400" viewBox="0 0 400 400" fill="none" xmlns="http://www.w3.org/2000/svg">
<g clip-path="url(#clip0)">
<rect width="400" height="400" fill="#1D171F"/>
<path d="M399.956 199.811C402.312 304.908 314.545 400.075 199.947 400C85.5373 399.887 -1.21193 304.757 0.0128082 199.434C1.29407 88.3164 89.1739 -0.0754518 200.776 4.83304e-05C311.285 0.0755485 399.956 89.0147 399.956 199.811ZM170.742 368.384C171.797 368.158 172.833 367.931 173.888 367.724C172.456 308.173 166.935 248.433 182.103 190.411C179.484 188.128 178.278 186.504 176.677 185.768C168.424 181.955 160.19 178.086 151.711 174.783C136.826 168.988 131.079 159.022 133.754 141.148C137.033 142.733 139.972 144.281 143.025 145.602C153.068 149.962 162.941 154.87 173.266 158.381C186.965 163.043 189.64 166.591 187.511 181.219C186.06 191.166 184.214 201.095 183.46 211.117C182.763 220.272 191.411 232.786 198.364 234.277C204.394 235.579 213.702 227.784 216.641 217.837C217.828 213.835 217.3 209.173 216.867 204.87C215.887 194.866 214.305 184.938 213.325 174.934C212.477 166.384 216.98 161.891 224.913 159.079C236.105 155.134 246.939 150.151 257.905 145.583C260.901 144.337 263.859 142.941 267.213 141.431C268.758 161.608 263.633 169.215 246.525 175.557C237.273 178.992 228.455 183.579 218.243 188.203C233.486 248.528 227.701 308.418 228.587 368.403C233.015 363.363 236.105 358.06 238.837 352.586C241.211 347.81 243.114 342.809 245.319 337.939C255.795 314.76 266.705 291.77 276.54 268.328C279.593 261.023 280.912 252.51 281.006 244.526C281.439 205.21 281.401 165.893 281.081 126.576C281.006 117.195 280.78 107.342 277.935 98.5844C272.847 82.9181 268.287 66.0627 258.885 53.0578C241.965 29.6527 216.113 23.2541 188.246 26.897C165.993 29.8037 146.322 39.9019 136.223 60.1548C125.615 81.427 118.888 104.606 119.058 129.124C119.321 167.818 119.001 206.493 119.284 245.187C119.321 251.359 120 258.022 122.411 263.571C136.373 295.829 150.882 327.841 165.334 359.891C166.69 362.911 168.914 365.572 170.742 368.384Z" fill="#FB2715"/>
</g>
<defs>
<clipPath id="clip0">
<rect width="400" height="400" fill="white"/>
</clipPath>
</defs>
</svg>
